<svg width="83" height="182" fill="none" xmlns="http://www.w3.org/2000/svg"><path fill-rule="evenodd" clip-rule="evenodd" d="M41.5 41C18.58 41 0 43.525 0 46.64c0 3.115 18.58 5.64 41.5 5.64S83 49.755 83 46.64C83 43.525 64.42 41 41.5 41zm.031 13.164c11.143 0 21.632-.6 29.534-1.687 3.916-.538 7.013-1.173 9.207-1.887.524-.17 1.412-.462 2.265-.926l-5.3 48.375a296.179 296.179 0 0 1-2.927 2.522 92.322 92.322 0 0 1-3.028 2.48c-.795.616-1.413 1.048-1.853 1.298-.44.249-.776.374-1.003.374-.28 0-.48-.058-.6-.175a.587.587 0 0 1-.178-.389l-.004-.067a.356.356 0 0 1 .022-.087.946.946 0 0 1 .072-.142 4.67 4.67 0 0 1 .437-.579c.342-.398.763-.88 1.264-1.451.501-.569 1.039-1.2 1.614-1.894a27.718 27.718 0 0 0 1.603-2.14c.494-.733.905-1.462 1.233-2.187.327-.726.49-1.407.49-2.048a2.83 2.83 0 0 0-.054-.563 2.307 2.307 0 0 0-.266-.711 2.887 2.887 0 0 0-.832-.913 3.8 3.8 0 0 0-1.163-.55 4.647 4.647 0 0 0-1.313-.188 5.041 5.041 0 0 0-1.923.398 9.332 9.332 0 0 0-.563.256c-.448.22-.889.477-1.323.775-.614.42-1.209.892-1.784 1.415a26.85 26.85 0 0 0-1.602 1.579 2.88 2.88 0 0 0 .13-.444c.046-.203.09-.418.13-.644l.059-.35.041-.294c.014-.106.024-.197.031-.274a1.925 1.925 0 0 0-.082-.79 1.157 1.157 0 0 0-.27-.445c-.24-.24-.628-.362-1.162-.362-.348 0-.672.184-.973.55-.3.366-.571.8-.812 1.298a16.647 16.647 0 0 0-.64 1.521c-.188.515-.335.912-.442 1.193-.064.226-.131.454-.202.684l-.162.514c-.08.25-.163.5-.249.753a.902.902 0 0 0-.309.2c-.228.23-.477.472-.744.727l-.529.502c-.474.444-.972.889-1.494 1.334a47.67 47.67 0 0 1-1.573 1.286c-.528.414-1.035.78-1.524 1.099-.487.32-.941.578-1.362.772-.42.196-.773.293-1.053.293-.226 0-.38-.07-.46-.211-.08-.14-.12-.328-.12-.56 0-.375.07-.8.21-1.276.06-.206.122-.401.184-.585.08-.241.163-.463.246-.667l.56-1.403.632-1.58c.462-1.146.957-2.358 1.485-3.637l.162-.394c.476-1.154.963-2.336 1.46-3.547a369.097 369.097 0 0 1 1.625-3.895l.407-.96c.377-.885.736-1.72 1.076-2.503.461-1.06.86-1.956 1.192-2.69.175-.359.319-.694.432-1.006a3.42 3.42 0 0 0 .132-.474 2.326 2.326 0 0 0 .039-.414c0-.593-.17-1.022-.512-1.287a1.799 1.799 0 0 0-1.133-.398c-.414 0-.825.125-1.233.374-.406.25-.73.679-.972 1.287l-6.073 15.088-1.323 3.3c-.482 1.2-.956 2.408-1.423 3.625a15.984 15.984 0 0 0-.667 2.117 13.56 13.56 0 0 1-.506.397c-.675.507-1.32.901-1.934 1.182-.616.281-1.13.421-1.544.421-.588 0-.881-.281-.881-.843 0-.607.089-1.267.27-1.976a21.4 21.4 0 0 1 .682-2.175c.272-.741.571-1.47.892-2.188l.41-.926.481-1.097c.163-.378.31-.73.441-1.058l.097-.245.144-.381c.18-.491.27-.878.27-1.159 0-.498-.14-.927-.42-1.286-.282-.359-.662-.538-1.143-.538a1.484 1.484 0 0 0-.53.096 1.45 1.45 0 0 0-.573.418 5.185 5.185 0 0 0-.781 1.287 16.168 16.168 0 0 0-.632 1.684 13.093 13.093 0 0 1-.672 1.708c-.36.796-.811 1.672-1.352 2.631a19.964 19.964 0 0 1-1.815 2.691 10.968 10.968 0 0 1-2.184 2.094 4.577 4.577 0 0 1-1.418.694 3.887 3.887 0 0 1-1.068.148c-.307 0-.528-.117-.662-.351a1.527 1.527 0 0 1-.2-.772c.026-.67.14-1.36.34-2.07.201-.709.442-1.407.723-2.094.28-.686.584-1.35.912-1.988.327-.64.638-1.236.931-1.79.294-.553.552-1.045.773-1.474.22-.429.363-.775.43-1.041.04-.14.061-.288.061-.444 0-.124-.016-.24-.046-.349a1.1 1.1 0 0 0-.114-.27 1.399 1.399 0 0 0-.422-.446 1.878 1.878 0 0 0-.713-.293 2.24 2.24 0 0 0-.43-.046c-.216 0-.424.033-.625.099a2.19 2.19 0 0 0-.568.288c-.366.257-.69.681-.972 1.275a90.888 90.888 0 0 0-1.617 3.479 51.741 51.741 0 0 0-.928 2.251c-.601 1.575-1.046 2.859-1.333 3.848-.288.991-.458 1.716-.511 2.176-.054.461-.08.698-.08.714 0 .208.008.405.026.591.014.138.032.27.056.396.046.252.112.481.198.686.187.444.434.799.742 1.064a2.654 2.654 0 0 0 1.072.561c.409.109.832.164 1.274.164.974 0 1.877-.16 2.706-.48a8.931 8.931 0 0 0 2.245-1.251 11.37 11.37 0 0 0 1.784-1.708c.52-.623.955-1.24 1.302-1.848-.213.951-.32 1.785-.32 2.503 0 1.014.2 1.731.6 2.152.142.149.298.271.47.367.314.177.68.265 1.096.265.329 0 .68-.047 1.052-.139a7.02 7.02 0 0 0 1.112-.388c.801-.35 1.617-.815 2.445-1.391.238-.166.476-.341.71-.522l.006.033.003.03c.017.124.035.247.062.365.094.406.251.757.472 1.053.22.296.515.53.882.702.241.112.521.188.84.226.167.021.344.031.533.031.503 0 1.014-.074 1.536-.221a7.109 7.109 0 0 0 .94-.34 13.823 13.823 0 0 0 2.566-1.51 26.514 26.514 0 0 0 2.596-2.187l.123-.122c-.14.319-.271.633-.415.953l-.302.671-.489 1.072c-.442.964-.897 1.935-1.363 2.912a467.506 467.506 0 0 0-2.206 4.69c-.106.281-.224.573-.35.878-.126.304-.25.615-.37.935-.12.319-.221.644-.301.971a4.03 4.03 0 0 0-.12.959c0 .639.157 1.072.47 1.298.315.226.711.34 1.194.34.373 0 .71-.082 1.011-.246.301-.164.569-.382.802-.654.234-.274.44-.59.621-.948.18-.36.338-.741.47-1.147.024-.083.067-.21.129-.381l.153-.414.51-1.357.622-1.637.632-1.65c.2-.522.378-.978.531-1.368.153-.39.264-.655.331-.795l.1-.216.172-.381.43-.982c.16-.366.337-.756.53-1.17l.261-.563.29-.642c.174-.389.334-.741.482-1.053l.34-.725a27.13 27.13 0 0 1 .973-1.789c.381-.647.802-1.29 1.263-1.93a23.166 23.166 0 0 1 1.483-1.847 15.306 15.306 0 0 1 1.623-1.58c.334-.277.67-.52 1.01-.729l.222-.133a7.39 7.39 0 0 1 .454-.238c.295-.142.586-.247.872-.315a3.463 3.463 0 0 1 .781-.094c.307 0 .528.055.661.163.133.11.2.258.2.445 0 .182-.053.395-.163.64a4.394 4.394 0 0 1-.318.577c-.32.5-.724 1.05-1.212 1.648a89.136 89.136 0 0 1-1.595 1.907 52.886 52.886 0 0 0-1.623 1.989 18.448 18.448 0 0 0-1.302 1.895c-.36.607-.569 1.146-.621 1.614-.015.077-.02.144-.02.199v.175c0 .34.054.647.163.922.137.344.36.637.667.879.32.252.717.431 1.19.538.348.078.737.117 1.167.117a7.665 7.665 0 0 0 3.046-.608c.949-.405 1.921-.979 2.917-1.72a40.432 40.432 0 0 0 3.177-2.654l.668-.609.274-.247-3.914 33.463c-.698 1.751-14.056 6.058-31.671 6.058-17.607 0-30.96-4.303-31.67-6.055l-2.724-28.146c.114.082.23.164.352.238.447.269.952.449 1.514.539.285.046.586.069.902.069.814 0 1.663-.195 2.546-.585.342-.151.684-.32 1.025-.506.536-.292 1.07-.626 1.6-1.003a24.81 24.81 0 0 0 2.545-2.082 40.376 40.376 0 0 0 2.306-2.327c-.241.733-.512 1.563-.811 2.491l-.227.704-.275.875c-.117.376-.23.746-.34 1.111a87.696 87.696 0 0 0-.672 2.327c-.188.687-.288 1.155-.3 1.405a3.255 3.255 0 0 0-.017.213l-.003.137v.328c0 .35.021.65.063.898.048.281.123.496.227.646a.9.9 0 0 0 .28.265c.175.104.39.156.651.156a1.1 1.1 0 0 0 .377-.068 1.43 1.43 0 0 0 .366-.202c.24-.178.46-.405.66-.678.202-.272.376-.562.522-.866a6.23 6.23 0 0 0 .189-.431c.054-.14.098-.273.131-.398.028-.079.101-.328.221-.749l.451-1.567c.18-.624.384-1.322.612-2.094l.266-.897c.145-.483.293-.971.445-1.466l.413-1.346.31-1.017a131.127 131.127 0 0 1 1.161-3.65c.141-.413.238-.657.291-.736.24-.686.488-1.345.742-1.977.254-.631.484-1.26.691-1.882a16 16 0 0 0 .512-1.919c.133-.656.2-1.357.2-2.106 0-.28-.043-.526-.13-.736a1.404 1.404 0 0 0-.35-.515 1.42 1.42 0 0 0-.503-.293 1.874 1.874 0 0 0-.346-.08l-.088-.008a1.712 1.712 0 0 0-.126-.005c-.388 0-.766.125-1.133.375-.368.25-.665.67-.892 1.262l-1.865 5.498c-.227.468-.567 1.018-1.022 1.65a30.284 30.284 0 0 1-1.563 1.976c-.312.364-.637.727-.976 1.086-.3.318-.609.634-.928.949-.37.365-.74.708-1.108 1.031-.31.272-.619.528-.927.771l-.277.214-.225.165a14.05 14.05 0 0 1-.604.412c-.287.185-.57.35-.848.495a4.876 4.876 0 0 1-.955.386 2.79 2.79 0 0 1-.73.105c-.234 0-.446-.034-.638-.103a1.471 1.471 0 0 1-.454-.26 2.522 2.522 0 0 1-.681-.923 4.498 4.498 0 0 1-.341-1.252c-.06-.459-.09-.908-.09-1.345 0-.813.084-1.69.251-2.633a22.18 22.18 0 0 1 .4-1.8 35.149 35.149 0 0 1 1.753-5.006 44.588 44.588 0 0 1 2.537-4.96c.484-.816.978-1.587 1.484-2.311.494-.708.998-1.372 1.514-1.993.587-.709 1.18-1.34 1.774-1.892.201-.187.403-.364.605-.533.258-.216.517-.417.777-.604 1.062-.764 2.061-1.146 2.997-1.146a3.016 3.016 0 0 1 1.674.503c.18.118.355.26.525.43.177.175.348.379.514.61.128.179.253.374.374.585.454.827.865 1.462 1.232 1.907.179.217.365.38.56.492.203.116.414.175.634.175.467 0 .872-.203 1.212-.609.34-.405.511-.959.511-1.66a5.688 5.688 0 0 0-.09-.947 2.517 2.517 0 0 0-.431-.995c-.99-1.466-2.051-2.527-3.187-3.181-1.137-.656-2.312-.983-3.528-.983-.653 0-1.31.087-1.972.26a8.679 8.679 0 0 0-1.225.419c-1.077.452-2.142 1.08-3.198 1.882a22.444 22.444 0 0 0-3.087 2.878 32.7 32.7 0 0 0-2.836 3.66 40.502 40.502 0 0 0-2.466 4.223 43.271 43.271 0 0 0-1.994 4.574c-.282.76-.535 1.524-.762 2.289L.527 49.665c.854.463 1.74.754 2.264.925 2.193.713 5.291 1.349 9.206 1.887 7.902 1.088 18.392 1.687 29.534 1.687zm-23.48 87.101c4 .95 12.321 2.544 23.09 2.544 10.767 0 19.087-1.594 23.089-2.544 2.77-.657 4.987-1.338 6.663-2.038l-5.05 8.703-1.652 28.373c0 3.146-10.145 5.697-22.66 5.697-12.514 0-22.659-2.551-22.659-5.697l-2.088-28.067-5.336-8.983c.23.095.47.19.72.285.788.297 1.675.591 2.663.881a60.48 60.48 0 0 0 3.22.846zm35.087-91.653c2.724 0 4.932-.593 4.932-1.324 0-.731-2.208-1.324-4.932-1.324s-4.932.593-4.932 1.324c0 .73 2.208 1.324 4.932 1.324z" fill="#DA4648"/><path d="M49.037 47.021a.219.219 0 0 0-.037.118c0 .476 1.784.861 3.984.861s3.984-.385 3.984-.86l5.204-20.82L82.868 4.76a.44.44 0 0 0 .02-.02c.438-.49-.451-2.002-1.926-3.3C79.487.143 77.895-.296 77.4.198a.375.375 0 0 0-.011.01L55.307 23.136l-6.27 23.886z" fill="#DA4648"/></svg>