<svg width="134" height="189" fill="none" xmlns="http://www.w3.org/2000/svg"><path fill-rule="evenodd" clip-rule="evenodd" d="M21.473 0H13v25h8.546v-8.333h7.736V25h8.472V0h-8.472v8.261h-7.81V0zm20.002 8.333h7.477V25h8.473V8.333h7.514V0H41.475v8.333zM68.66 0h8.878l5.451 8.804L88.441 0h8.878v25h-8.472V12.609l-5.931 8.985-5.93-8.985V25H68.66V0zm41.331 0h-8.472v25H122v-8.261h-12.009V0z" fill="#000"/><path d="M12.188 173.852L0 37h134l-12.189 136.778L66.889 189" fill="#E44D26"/><path d="M67 177V48h55l-10.496 116.635" fill="#F16529"/><path fill-rule="evenodd" clip-rule="evenodd" d="M67 65H25l4.568 50.657H67V98.931H44.895l-1.547-17.168H67V65zm-19.895 59.075h-16.8l2.358 26.325L67 160v-17.501l-18.716-5.021-1.178-13.403z" fill="#EBEBEB"/><path fill-rule="evenodd" clip-rule="evenodd" d="M67 65h42l-1.55 16.776H67V65zm0 33.957h38.937l-4.614 51.51L67 160v-17.441l18.712-5.025 1.956-21.801H67V98.957z" fill="#fff"/></svg>