<svg width="194" height="45" fill="none" xmlns="http://www.w3.org/2000/svg"><path fill-rule="evenodd" clip-rule="evenodd" d="M43.301 18.391V29.96c0 7.465-6.094 13.546-13.575 13.546H13.773c-7.53 0-13.625-6.081-13.625-13.547V18.392h9.513V29.96c0 3.51 2.873 6.377 6.391 6.377h11.346c3.517 0 6.39-2.867 6.39-6.378V18.392h9.513zm-24.673-3.609h6.243c.99 0 1.833.791 1.833 1.83v10.727c0 .99-.793 1.83-1.833 1.83h-6.243c-.99 0-1.833-.791-1.833-1.83V16.611c0-.989.842-1.829 1.833-1.829zM33.839 1.088c4.608 1.483 8.175 5.339 9.215 10.134H33.84V1.088zM13.774.445h12.93v7.168h-10.65c-2.527 0-4.707 1.484-5.747 3.61H.446C1.734 5.093 7.234.444 13.774.444zm142.092 14.04c4.608 0 7.134 1.533 7.134 7.317 0 5.883-2.478 7.614-7.134 7.614-4.657 0-7.135-1.73-7.135-7.614 0-5.784 2.478-7.317 7.135-7.317zm-48.702.347v14.287h6.49c4.608 0 6.887-1.68 6.887-7.267 0-5.587-2.229-7.07-6.887-7.07h-6.49v.05zm23.038 10.826c-2.18 0-2.923-.197-3.121-2.175v-.05h5.896v-3.361h-5.846c.247-1.681 1.04-1.83 3.071-1.83h4.261v-3.46h-4.756c-4.657 0-6.887 1.483-6.887 7.07 0 5.586 2.28 7.267 6.887 7.267h4.756v-3.46h-4.261zm6.738-10.827v7.07c0 5.537 2.23 7.218 6.887 7.218h3.171v-3.46h-2.676c-2.626 0-3.171-.347-3.171-3.708v-7.12h-4.211zm-23.732 10.827c2.626 0 3.171-.346 3.171-3.707 0-3.412-.595-3.659-3.171-3.659h-2.031v7.366h2.031zm45.581-3.856c0 3.659-.297 4.005-2.923 4.005-2.675 0-2.972-.346-2.923-4.005 0-3.411.248-3.708 2.923-3.708 2.626 0 2.923.297 2.923 3.708zM82.49 23.483c.199 1.978.942 2.175 3.121 2.175h4.261v3.461h-4.756c-4.607 0-6.886-1.68-6.886-7.267 0-5.587 2.229-7.07 6.886-7.07h4.756v3.46h-4.26c-2.032 0-2.825.149-3.072 1.83h5.846v3.362H82.49v.05zM64.407 29.12c-4.607 0-6.886-1.68-6.886-7.267v-7.02h4.21v7.119c0 3.312.545 3.707 3.073 3.707V14.831h3.914v10.827c2.576 0 3.12-.395 3.12-3.707v-7.12h4.212v7.07c0 5.587-2.23 7.268-6.887 7.268-1.535-.05-3.121-.05-4.756-.05zm35.226-10.975h-3.37v2.027h3.37c.347 0 .595-.1.595-.989 0-.84-.248-1.038-.595-1.038zm-3.37 7.613v-2.422h3.37c.495 0 .842.247.842 1.236 0 .94-.297 1.186-.744 1.186h-3.467zm8.225-7.465c0 2.027-.545 3.164-3.122 3.362 2.726.148 3.321 1.335 3.369 3.658 0 2.917-1.535 3.807-3.864 3.807H92.35V14.832h8.521c2.874 0 3.617 1.038 3.617 3.46zm5.054 15.918c.693 0 1.388.1 1.784.247l-.347 1.187-.199-.03c-.329-.051-.758-.118-1.288-.118-.743 0-.842.148-.842.346 0 .296.099.346.992.445 1.188.148 1.733.642 1.733 1.631 0 1.384-.644 1.78-2.378 1.78-.693 0-1.338-.099-1.783-.247l.297-1.236.175.026c.34.051.808.122 1.311.122.743 0 .843-.099.843-.346 0-.247-.1-.346-1.091-.445-1.09-.148-1.585-.494-1.585-1.483 0-1.335.693-1.879 2.378-1.879zm7.531 1.385V39.6h-1.436v-4.005h-1.735V34.31h4.906v1.285h-1.735zm7.629-1.236h1.437v3.905c0 1.137-.941 1.483-2.279 1.483-1.387 0-2.279-.296-2.279-1.483V34.36h1.437v3.56c0 .296.198.444.842.444.644 0 .842-.148.842-.445v-3.56zm4.509 5.24v-5.24h2.378c1.684 0 2.527.543 2.527 2.57 0 2.077-.843 2.67-2.527 2.67h-2.378zm3.37-2.62c0 1.236-.198 1.384-1.189 1.384h-.744v-2.768h.744c.991 0 1.189.098 1.189 1.384zm4.408 2.62h1.437v-5.24h-1.437v5.24zm7.383-5.389c1.685 0 2.626.544 2.626 2.67 0 2.175-.892 2.818-2.626 2.818-1.684 0-2.626-.643-2.626-2.818 0-2.126.892-2.67 2.626-2.67zm1.089 2.67c0 1.335-.099 1.483-1.09 1.483-.991 0-1.09-.099-1.09-1.483 0-1.285.099-1.384 1.09-1.384.991 0 1.09.148 1.09 1.384z" fill="#fff"/><path d="M192.5 6.5v37.054" stroke="#fff" stroke-linecap="square"/></svg>