<svg width="141" height="46" fill="none" xmlns="http://www.w3.org/2000/svg"><path fill-rule="evenodd" clip-rule="evenodd" d="M90.693.124l.737-.089c.518-.059 2.602-.023 3.374.053 3.293.348 6.373 1.579 8.763 3.504.548.442 1.967 1.82 1.967 1.914 0 .03-.347.39-.771.79-.713.677-.784.73-.995.73-.201 0-.283-.053-.69-.424-1.207-1.12-2.272-1.867-3.58-2.515-1.313-.654-2.61-1.042-4.24-1.272-.836-.118-3.21-.1-4 .03-3.12.524-5.246 2.126-5.718 4.305-.14.63-.1 1.855.077 2.35.442 1.224 1.296 2.072 2.868 2.844 1.355.665 2.668 1.072 5.483 1.702.966.218 2.09.489 2.497.595 4.37 1.19 7.179 2.885 8.539 5.153.931 1.543 1.249 3.462.913 5.441-.671 3.899-3.805 6.55-8.628 7.309-.83.13-3.298.177-4.287.088-2.59-.247-5.142-1.066-7.237-2.338-1.143-.695-2.586-1.867-3.381-2.756l-.313-.342.772-.76c.736-.724.784-.759 1.013-.759.218 0 .288.047.795.506 2.456 2.233 4.835 3.351 7.857 3.705.954.112 2.732.112 3.574 0 3.222-.43 5.513-2.073 6.013-4.317.135-.607.089-1.896-.082-2.385-.66-1.832-2.439-3.004-6.073-3.987a57.782 57.782 0 0 0-2.332-.56c-3.986-.889-6.354-1.749-8.28-3.027-2.52-1.666-3.727-3.804-3.722-6.601 0-1.473.295-2.739.908-3.94.783-1.537 2.273-2.933 4.034-3.781 1.13-.548 2.79-1.013 4.145-1.166zm-49.056 32.85V.454l.783.035c.424.023.936.082 1.13.13.52.14 1.132.453 1.515.777.182.153 5.4 5.913 11.601 12.791l11.266 12.509.018-13.116.012-13.12 1.183.023L70.33.5l.171.194.17.188V33.35l-.807-.036c-1.148-.047-1.743-.23-2.478-.777-.242-.177-3.84-4.158-11.679-12.933L44.375 6.925l-.03 13.187-.029 13.192H41.92l-.14-.165-.142-.165zM111.13.5c0 .017 2.821 4.587 6.272 10.153l6.272 10.117v12.562h1.772c1.232 0 1.85-.024 2.021-.07.329-.1.647-.436.73-.772.053-.194.071-1.861.071-6.03V20.7l6.301-10.089c3.469-5.547 6.301-10.1 6.301-10.117 0-.053-2.22-.018-2.443.04-.13.036-.319.125-.419.201-.117.094-1.973 3.05-5.506 8.77-2.927 4.746-5.336 8.633-5.354 8.633-.017-.006-2.296-3.67-5.064-8.14l-.329-.53-.024-.038-.02-.035-.029-.046-.015-.025c-4.515-7.294-4.926-7.957-5.522-8.299a4.712 4.712 0 0 0-.19-.1l-.06-.03c-.713-.36-.843-.384-2.892-.407C111.972.47 111.13.477 111.13.5zM8.24 17.155C12.767 8.286 16.53.913 16.601.771c.077-.14.153-.23.182-.206.047.06 16.784 32.703 16.784 32.75 0 .018-.841.018-1.867.006-1.837-.023-1.878-.03-2.302-.176-.57-.207-.93-.448-1.379-.92-.346-.37-.488-.63-2.225-4.027l-1.856-3.634h-8.391l-8.393-.006-2.061 4.075c-2.197 4.34-2.296 4.506-2.768 4.635-.223.06-2.326.094-2.326.035 0-.011 3.704-7.279 8.24-16.148zm10.877-1.99c1.938 3.787 3.533 6.92 3.545 6.96.018.066-1.313.077-7.114.077-6.095 0-7.132-.011-7.114-.082.04-.189 7.085-13.928 7.12-13.887.017.024 1.626 3.14 3.563 6.932zM28.41 45.24l1.184-2.739.989-2.285.271.018.271.018 1.13 2.62.104.239a200.345 200.345 0 0 1 1.069 2.488c.03.094 0 .106-.336.088l-.365-.017-.283-.648-.283-.648-1.312-.017-1.314-.012-.295.677-.288.677h-.736l.194-.46zm2.922-2.78c.259.595.47 1.107.47 1.131 0 .023-.44.047-.977.047-.907 0-.977-.006-.942-.106.082-.224.948-2.179.96-2.167.006.006.23.5.49 1.095zm68.415 1.543l1.178-2.738.447-1.043h.542l1.166 2.698c.636 1.478 1.16 2.715 1.16 2.738 0 .024-.159.041-.359.03l-.354-.018-.282-.648-.282-.648-1.319-.012-1.32-.017-.289.677-.282.677h-.742l.736-1.696zm2.414-1.484l.478 1.12h-1.001c-.778 0-.995-.019-.972-.078.206-.512.948-2.16.978-2.16.017 0 .253.506.517 1.118zM36.396 45.7v-5.43l1.342.024c1.196.024 1.372.041 1.667.153.618.242.96.783.954 1.514-.006.653-.294 1.178-.807 1.472-.094.053-.059.159.4 1.142l.274.59.188.412c.03.065.045.102.045.106a.218.218 0 0 1-.059.007l-.108.006-.204.004h-.377l-.47-1.019-.472-1.012-.83-.018-.837-.018V45.7h-.706zm2.82-4.564c.336.2.447.4.447.813-.006.453-.14.707-.47.866-.212.1-.366.117-1.167.117h-.924v-1.955l.96.024c.824.017.983.035 1.154.135zm4.423 4.564v-5.43l1.342.024c1.467.035 1.69.077 2.085.4.118.1.288.33.377.507.312.642.177 1.502-.318 1.985-.353.347-.612.412-1.76.441l-1.02.024v2.05h-.706zm2.821-4.564c.342.2.447.4.447.825 0 .406-.088.583-.406.818-.148.112-.259.124-1.16.142l-.995.017v-1.96l.96.023c.824.017.983.035 1.154.135zm29.134 1.885c0-1.42.624-2.332 1.807-2.65.583-.154 1.385-.071 1.932.212.76.388 1.231 1.313 1.231 2.438 0 .865-.26 1.584-.736 2.06-.907.914-2.662.896-3.527-.029-.495-.524-.707-1.136-.707-2.031zm3.38-1.82c.601.324.878.895.883 1.808.007 1.272-.558 1.967-1.648 2.032-.842.047-1.366-.23-1.708-.895-.2-.4-.206-.419-.206-1.12 0-.842.106-1.148.53-1.566.354-.347.748-.477 1.355-.453.388.017.53.047.795.194zm4.888 4.5v-5.42h.572l1.119 1.355 1.125 1.354 1.018-1.219 1.114-1.325c.046-.053.223-.112.4-.135l.306-.042v5.43h-.648v-2.09c0-1.149-.017-2.091-.04-2.091a.724.724 0 0 0-.108.108l-.251.285c-.198.229-.461.54-.743.879-1.019 1.225-1.06 1.266-1.149 1.154a51.962 51.962 0 0 0-.507-.623l-.558-.678-.972-1.178-.019 2.12-.011 2.114h-.648zm9.188-2.716V45.7h.647v-2.05l1.05-.029c1.177-.029 1.371-.076 1.748-.406.648-.571.677-1.814.059-2.432-.4-.407-.624-.454-2.161-.489l-1.343-.024v2.715zm2.868-.206c.553-.412.53-1.307-.042-1.643-.183-.1-.33-.118-1.19-.135l-.989-.024v1.961l1.025-.017c.936-.018 1.043-.03 1.196-.142zm11.307-2.456c-.024.018-.041 1.237-.041 2.71V45.7h.707l.011-2.096.018-2.103 1.737 2.097 1.738 2.102h.618v-5.424l-.336.018-.341.018-.03 2.096-.03 2.103-1.755-2.114-1.754-2.115h-.253c-.136 0-.272.018-.289.041zm8.658 1.567a75.894 75.894 0 0 1-1.125-1.537c-.029-.053.053-.07.371-.07h.412l.836 1.148c.459.636.86 1.166.884 1.178.023.017.418-.49.883-1.125.46-.636.866-1.166.907-1.178.041-.018.235-.024.429-.012l.366.018-1.119 1.513-1.12 1.514V45.7h-.647v-2.35l-1.077-1.46zm-93.251-1.431c-.436.141-.795.4-1.089.795-.313.418-.46.89-.501 1.59-.047.96.188 1.714.719 2.238.712.718 1.99.883 2.968.389.247-.13.671-.519.877-.819l.141-.188-.317-.142-.313-.141-.117.153c-.354.477-.849.718-1.467.718-.76 0-1.302-.306-1.596-.906-.406-.837-.265-2.091.294-2.657.33-.323.696-.459 1.267-.465.583 0 .954.13 1.308.477a1.706 1.706 0 0 0 .177.15c.042.029.074.044.087.039.148-.065.548-.324.548-.354 0-.123-.742-.706-1.043-.824-.494-.188-1.436-.218-1.943-.053zM50.588 45.7v-5.359h3.887v.648h-3.18v1.708h2.944v.648h-2.944v1.708h3.18v.647h-3.887zm6.478-5.035v.324h1.944V45.7h.707v-4.71h1.943v-.648h-4.594v.324zm11.178 1.349c.236-.772.736-1.302 1.448-1.55.301-.105.466-.123 1.007-.105.548.017.701.041.985.17.376.177.764.466.906.678.1.165.077.194-.312.412-.095.051-.142.076-.182.067-.038-.008-.07-.048-.13-.126-.065-.082-.301-.241-.519-.347-.347-.171-.447-.195-.865-.189-.789 0-1.337.342-1.638 1.02-.165.376-.206 1.277-.076 1.725.142.483.418.86.8 1.072.302.17.366.182.914.182.542 0 .612-.012.907-.177a2.17 2.17 0 0 0 .518-.424l.206-.247.289.147c.27.136.288.153.224.277-.136.242-.73.783-1.013.913-.901.424-2.08.282-2.757-.324-.606-.548-.836-1.125-.842-2.108 0-.513.024-.737.13-1.066zM0 42.962v.383h15.907l-.018-.371-.018-.365-7.933-.018L0 42.579v.383zm124.969.1c0-.188.017-.365.041-.383.017-.023 3.598-.041 7.95-.041h7.909v.766h-15.9v-.342z" fill="#fff"/></svg>