<svg width="183" height="183" fill="none" xmlns="http://www.w3.org/2000/svg"><path d="M183 91.5c0 2.827-.127 5.62-.381 8.38a87.544 87.544 0 0 1-.822 6.477C174.701 149.825 136.974 183 91.5 183c-23.163 0-44.312-8.605-60.431-22.797a91.808 91.808 0 0 1-15.656-17.863C5.677 127.801 0 110.312 0 91.5 0 40.966 40.966 0 91.5 0S183 40.966 183 91.5z" fill="#F2F2F2"/><path fill-rule="evenodd" clip-rule="evenodd" d="M160.074 101.721c-1.369.518-2.035.785-2.535.601-.2-.074-.373-.219-.554-.45-.256-.324-.526-.817-.907-1.513l-.006-.01-.127-.232c-1.873-3.401-2.87-6.979-2.956-10.87-.071-3.338.843-6.442 1.993-9.486.918-2.42-.276-3.275-2.374-3.495a22.865 22.865 0 0 0-4.632.015c-3.98.406-4.372.75-5.429 4.61-.627 2.291-1.127 4.6-2.169 6.775-2.568 5.353-5.487 10.508-8.482 15.626-.126.218-.248.439-.37.661-.393.717-.79 1.438-1.369 2.04-2.169-3.246-2.986-6.83-3.169-10.59-.183-3.713.955-7.163 2.206-10.576.422-1.149.071-1.862-.923-2.358-.44-.22-.932-.425-1.414-.463-2.553-.2-5.099-.171-7.589.526-1.121.31-1.852.937-2.102 2.194a32.67 32.67 0 0 1-.161.768l-.103.447-.077.32a33.269 33.269 0 0 1-1.926 5.609c-1.445 3.242-2.885 6.487-4.326 9.733-1.386 3.124-2.773 6.25-4.163 9.373l-.511 1.149c-2.291 5.15-4.581 10.298-7.298 15.242a2.846 2.846 0 0 0-.073.146l-.065.139a3.32 3.32 0 0 1-.103.207c-.08.15-.175.285-.299.36a.408.408 0 0 1-.195.063.518.518 0 0 1-.157-.016.44.44 0 0 1-.336-.314c-.053-.168-.042-.378-.032-.582.006-.11.01-.218.006-.316-.15-2.798.514-5.481 1.178-8.153l.237-.961c.332-1.36.673-2.718 1.018-4.075.537-2.109 1.088-4.215 1.639-6.321l.041-.159.941-3.609c.351-1.354-.239-2.264-1.362-2.913-1.617-.929-3.225-.974-4.977.328.24-1.925.344-3.615.261-5.304-.186-3.768-1.933-6.219-4.975-6.786-2.221-.414-4.324.231-6.309 1.171-4.63 2.19-8.352 5.491-11.48 9.498-.366.466-.735.895-1.265 1.182-2.683 1.461-5.365 2.922-8.046 4.385-3.187 1.74-6.371 3.483-9.552 5.236-.642.358-1.056.257-1.52-.239-2.949-3.16-6.371-5.767-9.762-8.412-.366-.287-.734-.572-1.102-.857l-1.298-1c-3.964-3.05-7.926-6.1-11.327-9.811-2.388-2.611-4.382-5.473-5.378-8.927-1.628-5.647-.412-10.907 2.3-15.905 3.205-5.913 7.962-10.479 13.206-14.545 8.33-6.454 17.464-11.58 27.092-15.798 10.782-4.719 21.965-7.759 33.877-7.3 4.719.183 9.3 1 13.503 3.309 2.976 1.634 4.946 3.995 5.503 7.46.653 4.059-.321 7.808-2.124 11.363-4.028 7.942-10.431 13.567-17.998 17.972-6.3 3.667-13.099 5.995-20.293 7.215-3.976.675-7.966 1.081-11.965.474-4.588-.698-8.828-2.23-11.968-5.924-.362-.425-.82-.72-1.437-.422-.272.132-.417.31-.49.514a1.315 1.315 0 0 0-.065.466c.001.102.01.206.02.31l.012.113c.045.369.146.742.277 1.093.84 2.264 2.41 3.973 4.252 5.465 4.785 3.89 10.456 5.032 16.41 5.148 5.828.116 11.565-.623 17.243-1.98 12.809-3.06 23.538-9.338 31.37-20.096 4.681-6.431 7.646-13.519 7.384-21.628-.168-5.144-1.9-9.688-5.652-13.38-4.461-4.384-9.997-6.588-15.937-7.913-6.615-1.47-13.297-1.678-20.047-.872-5.872.7-11.61 1.902-17.194 3.823-8.545 2.943-16.799 6.558-24.698 10.952-8.094 4.499-15.721 9.65-22.41 16.104-5.92 5.71-11.01 12.011-13.877 19.834-1.223 3.35-2.105 6.793-1.284 10.415 1.054 4.663 3.353 8.699 6.377 12.34 4.573 5.513 10.184 9.855 15.97 14.003 1.09.783 2.194 1.549 3.302 2.31l1.66 1.138c.977.667 1.952 1.334 2.922 2.009.75.522 1.499 1.049 2.241 1.583a92.355 92.355 0 0 1 3.853 2.916c.657.528.97.781.91 1.012-.054.212-.424.406-1.134.777l-.009.006c-1.74.906-3.498 1.779-5.207 2.745-6.894 3.895-13.559 8.117-18.998 13.985-2.676 2.891-4.494 6.137-5.342 9.74A91.723 91.723 0 0 0 31.514 160c10.158-.791 17.933-6.073 23.68-14.809 2.773-4.219 4.072-8.994 4.56-14.03.43-4.439-.022-8.736-1.328-12.974-.081-.266-.24-.531-.398-.791-.284-.472-.56-.931-.345-1.354.31-.604 1.244-.91 1.93-1.306 2.77-1.608 5.547-3.193 8.4-4.83.034.169.04.318.029.455-.02.246-.095.448-.165.642a3.323 3.323 0 0 0-.085.26c-1.635 5.995-2.773 12.038-1.53 18.268.772 3.879 2.06 7.531 4.51 10.743 2.519 3.305 8.145 2.928 10.43-.089 2.168-2.865 3.606-6.096 5.103-9.311a123.25 123.25 0 0 0 1.081-2.404l.57-1.305.02-.05c.228-.524.457-1.049.688-1.572-.145 2.141-.138 4.23-.06 6.312.079 2.051.408 4.077 1.475 5.89 1.284 2.178 3.7 2.813 5.944 1.649 2.366-1.228 3.979-3.25 5.233-5.443 5.379-9.434 10.37-19.069 14.503-29.13.881-2.137 1.784-4.271 2.781-6.647l.115.582.233 1.152a45.402 45.402 0 0 0 4.92 13.593c.507.915.452 1.545-.191 2.421-1.87 2.544-3.894 4.959-5.919 7.375l-1.006 1.201-.583.693c-.276.326-.554.65-.833.975-.379.442-.757.885-1.132 1.33-.222.263-.442.527-.66.793-.91 1.109-1.783 2.248-2.559 3.461-1.501 2.35-.639 4.756 1.859 5.29.769.164 1.579.212 2.366.201 4.365-.052 8.393-1.354 12.145-3.488 5.051-2.876 8.045-7.091 7.906-13.093-.063-2.731-.803-5.353-1.903-7.856-.243-.556-.254-.959.108-1.481 3.498-5.007 6.589-10.255 9.43-15.656.131-.247.25-.501.371-.759l.012-.023.014-.028c.339-.717.687-1.455 1.275-2.126l.104.349.013.043.01.033c.018.06.037.117.052.172.025.09.046.173.064.257.903 4.477 2.12 8.852 4.405 12.848.144.25.238.472.287.674.05.201.055.383.021.555-.082.408-.39.753-.86 1.15-2.984 2.533-5.5 5.488-7.474 8.871-1.538 2.634-2.591 5.446-2.58 8.531.012 3.432 2.639 5.454 5.988 4.648 3.49-.836 6.727-2.257 9.631-4.379 6.328-4.629 8.184-9.513 6.201-16.328-.764-2.637-.762-2.637 1.797-3.41l.133-.04c5.888-1.776 11.86-1.851 17.863-.873.68.112 1.352.239 2.016.384.35-2.13.627-4.286.821-6.468-7.679-1.876-15.348-.903-22.926 1.973zM35.68 149.712c-1.706.604-3.479.862-5.294.72-2.258-.179-3.692-1.772-3.838-4.167-.164-2.76.654-5.252 1.863-7.677 2.198-4.402 5.89-7.39 9.658-10.322 3.661-2.853 7.597-5.289 11.576-7.658.195-.116.359-.213.498-.288.149-.08.27-.135.369-.162.094-.024.17-.023.233.007.19.092.263.453.4 1.17.167.858.326 1.716.436 2.558.126.967.188 1.911.124 2.807.315 10.045-6.987 19.815-16.025 23.012zm51.3-38.404c1.474-3.984 2.86-8.016 3.494-12.25.25-1.641-.485-2.283-2.08-1.877-2.347.601-4.12 2.097-5.51 3.936-4.968 6.599-7.985 13.94-8.04 22.923.016.149.03.304.043.462.02.26.037.532.053.812.097 1.592.212 3.471 1.143 5.198.612 1.134 1.397 1.242 2.281.313.937-.981 1.545-2.178 2.124-3.383 2.312-4.784 4.146-9.764 5.979-14.741l.513-1.393zm38.288 14.343c-1.703 2.94-4.156 5.077-7.164 6.599l-.112.057c-.301.158-.656.345-.915.01-.218-.279.012-.484.217-.668.056-.049.109-.097.152-.145 2.992-3.264 5.944-6.554 8.606-10.094.015-.022.041-.036.078-.051l.078-.029c.055-.018.124-.043.213-.08-.026 1.637-.385 3.077-1.153 4.401zm19.254.139c.434.335.949-.057 1.393-.265 4.051-1.906 6.384-4.962 6.421-9.554-.015-.839-.033-1.663-.239-2.488-.198-.806-.459-.873-1.041-.313-1.445 1.395-2.759 2.891-3.82 4.603-1.26 2.033-2.175 4.216-2.855 6.495-.146.5-.336 1.152.141 1.522z" fill="#CD6699"/></svg>