<?xml version="1.0" encoding="UTF-8"?>
<svg width="61px" height="45px" viewBox="0 0 61 45" version="1.1" xmlns="http://www.w3.org/2000/svg" xmlns:xlink="http://www.w3.org/1999/xlink">
    <!-- Generator: Sketch 53.2 (72643) - https://sketchapp.com -->
    <title>1</title>
    <desc>Created with Sketch.</desc>
    <g id="pages" stroke="none" stroke-width="1" fill="none" fill-rule="evenodd">
        <g id="ansy" transform="translate(-382.000000, -2280.000000)" fill="#C72839" fill-rule="nonzero">
            <path d="M441.938273,2280 C442.473902,2280 442.908148,2280.43425 442.908148,2280.96987 L442.908148,2318.92341 C442.908148,2319.45904 442.473902,2319.89329 441.938273,2319.89329 L415.764839,2319.89329 L415.764839,2323.06025 L422.756344,2323.06025 C423.291974,2323.06025 423.726219,2323.4945 423.726219,2324.03013 C423.726219,2324.56575 423.291974,2325 422.756344,2325 L402.151933,2325 C401.616303,2325 401.182058,2324.56575 401.182058,2324.03013 C401.182058,2323.4945 401.616303,2323.06025 402.151933,2323.06025 L409.143438,2323.06025 L409.143438,2319.89329 L382.969875,2319.89329 C382.434245,2319.89329 382,2319.45904 382,2318.92341 L382,2280.96987 C382,2280.43425 382.434245,2280 382.969875,2280 L441.938273,2280 Z M413.825089,2323.06038 L413.825089,2319.89341 L411.083188,2319.89341 L411.083188,2323.06038 L413.825089,2323.06038 Z M440.968398,2317.95354 L440.968398,2281.93975 L383.93975,2281.93975 L383.93975,2317.95354 L440.968398,2317.95354 Z M385.814842,2314.49005 C385.457798,2314.49005 385.168258,2314.20051 385.168258,2313.84346 L385.168258,2283.81484 C385.168258,2283.4578 385.457798,2283.16826 385.814842,2283.16826 L439.093306,2283.16826 C439.45035,2283.16826 439.73989,2283.4578 439.73989,2283.81484 L439.73989,2313.84346 C439.73989,2314.20051 439.45035,2314.49005 439.093306,2314.49005 L385.814842,2314.49005 Z M386.461425,2284.46142 L386.461425,2313.19688 L438.446723,2313.19688 L438.446723,2284.46142 L386.461425,2284.46142 Z M436.933847,2315.71067 C437.290891,2315.71067 437.580431,2316.00021 437.580431,2316.35725 C437.580431,2316.71429 437.290891,2317.00383 436.933847,2317.00383 L434.088881,2317.00383 C433.731837,2317.00383 433.442297,2316.71429 433.442297,2316.35725 C433.442297,2316.00021 433.731837,2315.71067 434.088881,2315.71067 L436.933847,2315.71067 Z M415.078944,2315.71067 C415.436116,2315.71067 415.725527,2316.00021 415.725527,2316.35725 C415.725527,2316.71429 415.435987,2317.00383 415.078944,2317.00383 L409.829204,2317.00383 C409.472161,2317.00383 409.182621,2316.71429 409.182621,2316.35725 C409.182621,2316.00021 409.472161,2315.71067 409.829204,2315.71067 L415.078944,2315.71067 Z M439.093694,2315.71093 C439.263099,2315.71093 439.429918,2315.77946 439.550182,2315.89973 C439.670447,2316.01999 439.740278,2316.18681 439.740278,2316.35751 C439.740278,2316.52691 439.670447,2316.69373 439.550182,2316.814 C439.429918,2316.93426 439.263099,2317.00409 439.093694,2317.00409 C438.922996,2317.00409 438.756178,2316.93426 438.635913,2316.814 C438.515649,2316.69373 438.447111,2316.52821 438.447111,2316.35751 C438.447111,2316.18681 438.515649,2316.01999 438.635913,2315.89973 C438.756178,2315.77946 438.922996,2315.71093 439.093694,2315.71093 Z" id="1"></path>
        </g>
    </g>
</svg>