<?xml version="1.0" encoding="UTF-8"?>
<svg width="39px" height="48px" viewBox="0 0 39 48" version="1.1" xmlns="http://www.w3.org/2000/svg" xmlns:xlink="http://www.w3.org/1999/xlink">
    <!-- Generator: Sketch 53.2 (72643) - https://sketchapp.com -->
    <title>2</title>
    <desc>Created with Sketch.</desc>
    <g id="pages" stroke="none" stroke-width="1" fill="none" fill-rule="evenodd">
        <g id="ansy" transform="translate(-907.000000, -2278.000000)" fill="#C72839" fill-rule="nonzero">
            <path d="M942.537297,2278 C944.102703,2278 945.376324,2279.27362 945.376324,2280.83903 L945.376324,2323.1587 C945.376324,2324.72411 944.102703,2325.99773 942.537297,2325.99773 L909.946919,2325.99773 C908.381405,2325.99773 907.107892,2324.72411 907.107892,2323.1587 L907.107892,2280.83903 C907.107892,2279.27362 908.381514,2278 909.946919,2278 L942.537297,2278 Z M943.754703,2323.1587 L943.754703,2280.83903 C943.754703,2280.16778 943.208541,2279.62162 942.537297,2279.62162 L909.946919,2279.62162 C909.275676,2279.62162 908.729514,2280.16778 908.729514,2280.83903 L908.729514,2323.1587 C908.729514,2323.82995 909.275676,2324.37611 909.946919,2324.37611 L942.537297,2324.37611 C943.208541,2324.37611 943.754703,2323.82995 943.754703,2323.1587 Z M942.133189,2283.17924 C942.431676,2283.17924 942.67373,2283.42119 942.67373,2283.71978 L942.67373,2320.27795 C942.67373,2320.57643 942.431676,2320.81849 942.133189,2320.81849 L910.351027,2320.81849 C910.052541,2320.81849 909.810486,2320.57643 909.810486,2320.27795 L909.810486,2283.71978 C909.810486,2283.4213 910.052541,2283.17924 910.351027,2283.17924 L942.133189,2283.17924 Z M941.592649,2319.73741 L941.592649,2284.26032 L910.891568,2284.26032 L910.891568,2319.73741 L941.592649,2319.73741 Z M926.242378,2321.94357 C926.455351,2321.94357 926.664,2322.03005 926.815351,2322.18141 C926.966703,2322.33168 927.053189,2322.54141 927.053189,2322.75438 C927.053189,2322.96735 926.966703,2323.17708 926.815351,2323.32735 C926.665081,2323.4787 926.455351,2323.56519 926.242378,2323.56519 C926.028324,2323.56519 925.819676,2323.4787 925.668324,2323.32735 C925.518054,2323.17708 925.431568,2322.96735 925.431568,2322.75438 C925.431568,2322.54141 925.518054,2322.33168 925.668324,2322.18141 C925.819676,2322.03005 926.028324,2321.94357 926.242378,2321.94357 Z M926.242378,2282.02681 C926.099676,2282.02681 925.960216,2281.96951 925.859676,2281.86897 C925.759135,2281.76843 925.701838,2281.62897 925.701838,2281.48627 C925.701838,2281.34357 925.759135,2281.20411 925.859676,2281.10357 C925.960216,2281.00303 926.099676,2280.94573 926.242378,2280.94573 C926.384,2280.94573 926.523459,2281.00303 926.624,2281.10357 C926.724541,2281.20519 926.782919,2281.34357 926.782919,2281.48627 C926.782919,2281.62897 926.724541,2281.76843 926.624,2281.86897 C926.523459,2281.96951 926.384,2282.02681 926.242378,2282.02681 Z" id="2"></path>
        </g>
    </g>
</svg>