<?xml version="1.0" encoding="UTF-8"?>
<svg width="28px" height="42px" viewBox="0 0 28 42" version="1.1" xmlns="http://www.w3.org/2000/svg" xmlns:xlink="http://www.w3.org/1999/xlink">
    <!-- Generator: Sketch 53.2 (72643) - https://sketchapp.com -->
    <title>3</title>
    <desc>Created with Sketch.</desc>
    <g id="pages" stroke="none" stroke-width="1" fill="none" fill-rule="evenodd">
        <g id="ansy" transform="translate(-1218.000000, -2280.000000)" fill="#C72839" fill-rule="nonzero">
            <path d="M1242.39474,2280 C1243.86097,2280 1245.05369,2281.19281 1245.05378,2282.65904 L1245.05378,2319.34096 C1245.05378,2320.80719 1243.86097,2322 1242.39474,2322 L1220.65904,2322 C1219.19281,2322 1218,2320.8071 1218,2319.34096 L1218,2282.65904 C1218,2281.19281 1219.19272,2280 1220.65896,2280 L1242.39474,2280 Z M1219.33245,2286.68323 L1219.33245,2314.45929 L1243.72133,2314.45929 L1243.72133,2286.68323 L1219.33245,2286.68323 Z M1220.65896,2281.33245 C1219.92753,2281.33245 1219.33245,2281.92753 1219.33245,2282.65904 L1219.33245,2285.79493 L1243.72133,2285.79493 L1243.72133,2282.65904 C1243.72133,2281.92753 1243.12616,2281.33245 1242.39474,2281.33245 L1220.65896,2281.33245 Z M1242.39474,2320.66746 C1243.12616,2320.66746 1243.72124,2320.07238 1243.72124,2319.34087 L1243.72124,2315.3475 L1219.33236,2315.3475 L1219.33236,2319.34087 C1219.33236,2320.07238 1219.92753,2320.66746 1220.65896,2320.66746 L1242.39474,2320.66746 Z M1231.52689,2315.93645 C1232.7301,2315.93645 1233.70892,2316.91545 1233.70892,2318.11856 C1233.70892,2319.32168 1232.73001,2320.30059 1231.52689,2320.30059 C1230.32377,2320.30059 1229.34486,2319.32177 1229.34486,2318.11856 C1229.34486,2316.91536 1230.32368,2315.93645 1231.52689,2315.93645 Z M1231.52689,2319.41229 C1232.24029,2319.41229 1232.82061,2318.83187 1232.82061,2318.11856 C1232.82061,2317.40517 1232.24029,2316.82475 1231.52689,2316.82475 C1230.81349,2316.82475 1230.23317,2317.40517 1230.23317,2318.11856 C1230.23317,2318.83187 1230.81349,2319.41229 1231.52689,2319.41229 Z M1228.50666,2284.23232 C1228.26131,2284.23232 1228.06251,2284.03343 1228.06251,2283.78817 C1228.06251,2283.54291 1228.26131,2283.34401 1228.50666,2283.34401 L1234.54712,2283.34401 C1234.79247,2283.34401 1234.99127,2283.54291 1234.99127,2283.78817 C1234.99127,2284.03343 1234.79247,2284.23232 1234.54712,2284.23232 L1228.50666,2284.23232 Z M1226.90798,2284.23232 C1226.79073,2284.23232 1226.67614,2284.18524 1226.59353,2284.10262 C1226.51091,2284.01912 1226.46383,2283.90542 1226.46383,2283.78817 C1226.46383,2283.67091 1226.51091,2283.55632 1226.59353,2283.47371 C1226.67694,2283.39109 1226.79073,2283.34401 1226.90798,2283.34401 C1227.02426,2283.34401 1227.13885,2283.39109 1227.22156,2283.47371 C1227.30417,2283.55721 1227.35214,2283.67091 1227.35214,2283.78817 C1227.35214,2283.90542 1227.30417,2284.01912 1227.22156,2284.10262 C1227.13894,2284.18524 1227.02435,2284.23232 1226.90798,2284.23232 Z" id="3"></path>
        </g>
    </g>
</svg>