<svg xmlns="http://www.w3.org/2000/svg" width="329" height="293" viewBox="0 0 329 293">
  <g id="_6-column" data-name="6-column" transform="translate(-656 -107)">
    <path id="Combined_Shape" data-name="Combined Shape" d="M288,293V0h41V293Zm-58,0V0h42V293Zm-58,0V0h42V293Zm-57,0V0h42V293Zm-58,0V0H99V293ZM0,293V0H41V293Z" transform="translate(656 107)" fill="#c72839" opacity="0.1"/>
    <path id="Combined_Shape-2" data-name="Combined Shape" d="M0,256V240H329v16Zm0-48V192H329v16Zm0-48V144H329v16Zm0-48V96H329v16ZM0,64V48H329V64ZM0,16V0H329V16Z" transform="translate(656 129)" fill="#c72839" opacity="0.05"/>
  </g>
</svg>
