<svg xmlns="http://www.w3.org/2000/svg" width="40.006" height="41.001" viewBox="0 0 40.006 41.001">
  <g id="Afghanistan" transform="translate(-0.995 -1)">
    <path id="Shape" d="M35.162,41H5.323a.829.829,0,0,1-.6-.278,22.4,22.4,0,0,1-3.05-4.739C-.04,32.4-.444,29.044.472,26.011,2,20.925,7.2,17.154,15.931,14.8V10.44a6.678,6.678,0,0,1-.319-3.886c.5-2.366,2.2-4.527,5.037-6.424a.828.828,0,0,1,.947.04c.262.208,6.394,5.159,3.812,10.3v4.362c2.646.828,11.474,4.083,13.953,11.183,1.522,4.37.329,9.3-3.545,14.646A.837.837,0,0,1,35.162,41ZM17.237,16.1a1.245,1.245,0,0,1-.292.158C8.437,18.425,3.419,21.867,2.031,26.487.3,32.229,4.792,38.2,5.71,39.334H34.736c3.345-4.744,4.385-9.04,3.091-12.768-2.353-6.758-11.575-9.774-13.4-10.31l-.047-.014a1.312,1.312,0,0,0-.133-.052H17.583A.756.756,0,0,1,17.237,16.1Zm.32-4.6v3.04h6.21V11.511H17.583a.016.016,0,0,1-.013-.007A.017.017,0,0,0,17.557,11.5Zm3.491-9.636c-5.63,4.037-3.671,7.838-3.585,8v.013a.214.214,0,0,0,.061-.013.2.2,0,0,1,.059-.013h6.291c1.745-3.216-1.4-6.655-2.826-7.984ZM32.21,37.92a.819.819,0,0,1-.58-.238.828.828,0,0,1,0-1.163,9.6,9.6,0,0,0,2.545-7.984,10.789,10.789,0,0,0-5.664-7.772.83.83,0,0,1-.32-1.123.8.8,0,0,1,1.106-.318,12.43,12.43,0,0,1,4.319,3.724A12.3,12.3,0,0,1,35.789,28.3a11.274,11.274,0,0,1-3,9.384A.819.819,0,0,1,32.21,37.92Zm-23.669,0a.82.82,0,0,1-.58-.238,11.273,11.273,0,0,1-3-9.384,12.3,12.3,0,0,1,2.171-5.252,12.427,12.427,0,0,1,4.319-3.724.8.8,0,0,1,1.106.318.83.83,0,0,1-.319,1.123,10.788,10.788,0,0,0-5.665,7.772,9.552,9.552,0,0,0,2.559,7.984.834.834,0,0,1-.013,1.163A.82.82,0,0,1,8.541,37.92Zm19.226-.343h0a.781.781,0,0,1-.522-.2.832.832,0,0,1-.094-1.163,10.385,10.385,0,0,0,1.866-7.6,6.976,6.976,0,0,0-3.278-5.142.83.83,0,0,1-.254-1.137.808.808,0,0,1,.5-.365.816.816,0,0,1,.616.1,8.688,8.688,0,0,1,4.025,6.292A12.073,12.073,0,0,1,28.391,37.3a.8.8,0,0,1-.61.278Zm-4.588,0h-.018a.771.771,0,0,1-.607-.291.832.832,0,0,1,.093-1.164,9.271,9.271,0,0,0,2.719-6.16,4.541,4.541,0,0,0-1.839-3.568.833.833,0,0,1-.147-1.164.82.82,0,0,1,.542-.311.829.829,0,0,1,.1-.006.82.82,0,0,1,.5.172,6.173,6.173,0,0,1,2.466,4.838A10.819,10.819,0,0,1,23.7,37.391.82.82,0,0,1,23.179,37.577Zm-5.608,0h0a.82.82,0,0,1-.521-.185,10.814,10.814,0,0,1-3.291-7.468,6.1,6.1,0,0,1,2.479-4.838.8.8,0,0,1,1.133.145.834.834,0,0,1-.147,1.164,4.542,4.542,0,0,0-1.84,3.568,9.333,9.333,0,0,0,2.719,6.16.833.833,0,0,1,.094,1.164.774.774,0,0,1-.608.291h-.018Zm-4.588,0h-.011a.805.805,0,0,1-.613-.278,12.076,12.076,0,0,1-2.239-8.935,8.69,8.69,0,0,1,4.025-6.292.8.8,0,0,1,.431-.125.8.8,0,0,1,.689.39.829.829,0,0,1-.253,1.137,6.978,6.978,0,0,0-3.279,5.142,10.385,10.385,0,0,0,1.866,7.6.832.832,0,0,1-.094,1.163A.781.781,0,0,1,12.983,37.577Z" transform="translate(1 1)" fill="#ec5149"/>
  </g>
</svg>
