<svg xmlns="http://www.w3.org/2000/svg" width="38" height="38" viewBox="0 0 38 38">
  <g id="Azerbaijan" transform="translate(-1)">
    <path id="Shape" d="M19.157,38a.657.657,0,0,1-.616-.432l-3.346-9.149-8.761,4.26a.667.667,0,0,1-.753-.118.679.679,0,0,1-.13-.76l4.1-8.834L.445,19.793a.661.661,0,0,1-.012-1.245l9.151-3.343L5.322,6.436a.656.656,0,0,1,.872-.878l8.838,4.1L18.213.445A.676.676,0,0,1,18.832,0h.011a.657.657,0,0,1,.616.433l3.347,9.149,8.76-4.261a.673.673,0,0,1,.753.131.658.658,0,0,1,.131.747l-4.1,8.834,9.208,3.173a.665.665,0,0,1,.446.629.647.647,0,0,1-.434.617l-9.15,3.355,4.262,8.756a.656.656,0,0,1-.123.747.671.671,0,0,1-.478.2.661.661,0,0,1-.272-.058l-8.837-4.1-3.181,9.2a.654.654,0,0,1-.618.445h-.011ZM15.564,26.845h0a.786.786,0,0,1,.247.04.674.674,0,0,1,.374.393l2.959,8.087,2.814-8.141a.657.657,0,0,1,.366-.393.642.642,0,0,1,.536.014l7.816,3.618-3.769-7.747a.627.627,0,0,1-.02-.524.652.652,0,0,1,.387-.381l8.091-2.962-8.144-2.805a.686.686,0,0,1-.393-.367.659.659,0,0,1,.008-.537l3.63-7.812L22.72,11.09a.7.7,0,0,1-.536.026.675.675,0,0,1-.374-.393L18.85,2.635l-2.814,8.14a.626.626,0,0,1-.367.393.693.693,0,0,1-.536,0L7.317,7.538l3.768,7.746a.654.654,0,0,1-.367.9L2.625,19.151l8.146,2.8a.69.69,0,0,1,.393.367.657.657,0,0,1-.008.537l-3.63,7.813,7.747-3.762A.733.733,0,0,1,15.564,26.845Z" transform="translate(1)" fill="#ec5149"/>
  </g>
</svg>
