<svg xmlns="http://www.w3.org/2000/svg" width="45" height="35" viewBox="0 0 45 35">
  <g id="Caucasus" transform="translate(0 -1)">
    <path id="Shape" d="M.634,35h0a.671.671,0,0,1-.266-.054.66.66,0,0,1-.33-.378.693.693,0,0,1,.024-.51L15.7.389a.653.653,0,0,1,.474-.377A.6.6,0,0,1,16.29,0a.615.615,0,0,1,.451.2l5.982,6.059,4.6-3.056a.642.642,0,0,1,.508-.081.671.671,0,0,1,.41.323L44.917,33.869a.678.678,0,0,1,.059.506.657.657,0,0,1-.306.4.67.67,0,0,1-.318.081h-.007a.644.644,0,0,1-.559-.337L32.363,13.676l-6.4,7.445a.647.647,0,0,1-.487.229.677.677,0,0,1-.41-.148L18.2,15.48,9.217,18.738a.641.641,0,0,1-.2.032.649.649,0,0,1-.365-.113L1.233,34.623A.646.646,0,0,1,.654,35H.634ZM18.315,14.061a.666.666,0,0,1,.423.153L25.4,19.76l6.289-7.323L27.455,4.71l-3.78,2.5L24.99,8.546a.679.679,0,0,1,0,.942.634.634,0,0,1-.919.014L16.478,1.8,9.284,17.3l8.829-3.2A.659.659,0,0,1,18.315,14.061Z" transform="translate(0 1)" fill="#ec5149"/>
  </g>
</svg>
