<svg xmlns="http://www.w3.org/2000/svg" width="41" height="41" viewBox="0 0 41 41">
  <g id="Dagestan" transform="translate(-1 -1)">
    <path id="Shape" d="M19.239,41a.814.814,0,0,1-.574-1.389L21.188,37.1a.814.814,0,0,1,1.15,1.151l-2.524,2.513A.808.808,0,0,1,19.239,41Zm7.424-.939h0a.889.889,0,0,1-.317-.067.813.813,0,0,1-.423-1.071l1.388-3.267a.819.819,0,0,1,1.07-.436.831.831,0,0,1,.437,1.072l-1.4,3.267A.811.811,0,0,1,26.662,40.061Zm-14.8-.992h0a.809.809,0,0,1-.3-1.561l3.278-1.376a.809.809,0,1,1,.621,1.495L12.174,39A.889.889,0,0,1,11.857,39.069ZM20.5,36.384h0a15.858,15.858,0,1,1,6.075-1.212A15.8,15.8,0,0,1,20.5,36.384Zm0-30.116h0A14.237,14.237,0,1,0,34.736,20.5,14.249,14.249,0,0,0,20.506,6.269ZM33.532,36.132a.825.825,0,0,1-.819-.82V31.755a.826.826,0,0,1,.819-.82.808.808,0,0,1,.573.243.819.819,0,0,1,.233.577v3.558a.811.811,0,0,1-.806.82ZM9.254,34.348H5.685a.808.808,0,0,1-.573-.243.819.819,0,0,1-.233-.577.8.8,0,0,1,.8-.807H9.254a.8.8,0,0,1,.571.235.81.81,0,0,1,.235.572.814.814,0,0,1-.806.82Zm28.893-4.193h-.015a.812.812,0,0,1-.753-.5l-1.336-3.307a.829.829,0,0,1,.45-1.058.792.792,0,0,1,1.057.45L38.9,29.044a.827.827,0,0,1-.449,1.058A.883.883,0,0,1,38.147,30.155Zm-32.62-.33h0a.681.681,0,0,1-.265-.053l-3.357-1.19a.814.814,0,1,1,.542-1.534L5.8,28.237a.819.819,0,0,1-.277,1.588Zm34.659-7.248h0a.808.808,0,0,1-.575-.239L37.1,19.813a.8.8,0,0,1,0-1.138.813.813,0,0,1,1.15,0l2.511,2.513a.814.814,0,0,1-.576,1.389Zm-36.85,0H3.329a.823.823,0,0,1-.578-.239L.24,19.813a.793.793,0,0,1,0-1.138.812.812,0,0,1,1.149,0L3.9,21.188a.814.814,0,0,1,0,1.15A.794.794,0,0,1,3.336,22.577Zm.869-6.8h0a.829.829,0,0,1-.767-.517L2.1,11.969a.819.819,0,1,1,1.52-.608l1.335,3.294a.823.823,0,0,1-.449,1.057A.908.908,0,0,1,4.2,15.779Zm34.6-1.773h0a.627.627,0,0,1-.251-.052L35.2,12.763a.809.809,0,0,1-.49-1.045.806.806,0,0,1,1.031-.49L39.1,12.419a.819.819,0,0,1-.278,1.587ZM7.469,10.065a.825.825,0,0,1-.819-.82V5.687a.813.813,0,0,1,.812-.806h.014a.8.8,0,0,1,.8.806V9.245a.816.816,0,0,1-.233.577A.808.808,0,0,1,7.469,10.065ZM35.324,8.279H31.742a.813.813,0,0,1,.007-1.626h3.568a.818.818,0,0,1,.572.243.809.809,0,0,1-.566,1.383Zm-22.4-2.432a.7.7,0,0,1-.3-.067.825.825,0,0,1-.436-1.071l1.4-3.267a.831.831,0,0,1,1.071-.436.816.816,0,0,1,.423,1.071l-1.388,3.28a.825.825,0,0,1-.753.49Zm12.934-.873h0a.837.837,0,0,1-.753-.5A.826.826,0,0,1,25.537,3.4l3.29-1.375a.822.822,0,0,1,1.057.437.8.8,0,0,1-.436,1.071L26.171,4.907A.891.891,0,0,1,25.853,4.973ZM19.239,4.14a.813.813,0,0,1-.575-1.389L21.188.239a.813.813,0,0,1,1.15,1.15L19.813,3.9a.805.805,0,0,1-.568.239Z" transform="translate(1 1)" fill="#ec5149"/>
  </g>
</svg>
