<svg width="24" height="31" viewBox="0 0 24 31" fill="none" xmlns="http://www.w3.org/2000/svg">
<path fill-rule="evenodd" clip-rule="evenodd" d="M16.5518 0H0V31H24V7.5361L16.5518 0ZM16.8511 1.7639L22.2567 7.23333H16.8511V1.7639ZM1.02128 1.03333V29.9667H22.9787V8.26667H15.8298V1.03333H1.02128Z" fill="#C72839"/>
<path d="M4.54545 9H9.45455C9.75564 9 10 8.7765 10 8.5C10 8.2235 9.75564 8 9.45455 8H4.54545C4.24436 8 4 8.2235 4 8.5C4 8.7765 4.24436 9 4.54545 9Z" fill="#C72839"/>
<path d="M13.4737 19H4.52632C4.23579 19 4 19.2235 4 19.5C4 19.7765 4.23579 20 4.52632 20H13.4737C13.7642 20 14 19.7765 14 19.5C14 19.2235 13.7642 19 13.4737 19Z" fill="#C72839"/>
<path d="M18.4444 16H14.5556C14.2489 16 14 16.2235 14 16.5C14 16.7765 14.2489 17 14.5556 17H18.4444C18.7511 17 19 16.7765 19 16.5C19 16.2235 18.7511 16 18.4444 16Z" fill="#C72839"/>
<path d="M4.57143 13H7.42857C7.744 13 8 12.7765 8 12.5C8 12.2235 7.744 12 7.42857 12H4.57143C4.256 12 4 12.2235 4 12.5C4 12.7765 4.256 13 4.57143 13Z" fill="#C72839"/>
<path d="M12.5556 13H16.4444C16.7511 13 17 12.7765 17 12.5C17 12.2235 16.7511 12 16.4444 12H12.5556C12.2489 12 12 12.2235 12 12.5C12 12.7765 12.2489 13 12.5556 13Z" fill="#C72839"/>
<path d="M9 12.4969C9 12.6277 9.055 12.7585 9.145 12.8541C9.24 12.9447 9.37 13 9.5 13C9.63 13 9.76 12.9447 9.855 12.8541C9.945 12.7585 10 12.6277 10 12.4969C10 12.3655 9.945 12.2347 9.855 12.1396C9.67 11.9535 9.335 11.9535 9.145 12.1396C9.055 12.2347 9 12.3655 9 12.4969Z" fill="#C72839"/>
<path d="M7.5 16C7.224 16 7 16.2235 7 16.5C7 16.7765 7.224 17 7.5 17H12.5C12.776 17 13 16.7765 13 16.5C13 16.2235 12.776 16 12.5 16H7.5Z" fill="#C72839"/>
<path d="M4.5 17C4.63 17 4.76 16.9447 4.855 16.8541C4.945 16.7585 5 16.6277 5 16.4969C5 16.3655 4.945 16.2347 4.855 16.1396C4.67 15.9535 4.33 15.9535 4.145 16.1396C4.055 16.2347 4 16.3605 4 16.4969C4 16.6277 4.055 16.7585 4.145 16.8541C4.24 16.9447 4.37 17 4.5 17Z" fill="#C72839"/>
<path d="M18.4444 23H14.5556C14.2489 23 14 23.2235 14 23.5C14 23.7765 14.2489 24 14.5556 24H18.4444C18.7511 24 19 23.7765 19 23.5C19 23.2235 18.7511 23 18.4444 23Z" fill="#C72839"/>
<path d="M12.5 23H7.5C7.224 23 7 23.2235 7 23.5C7 23.7765 7.224 24 7.5 24H12.5C12.776 24 13 23.7765 13 23.5C13 23.2235 12.776 23 12.5 23Z" fill="#C72839"/>
<path d="M4.145 23.1391C4.055 23.2297 4 23.3601 4 23.4965C4 23.6325 4.05 23.7583 4.145 23.854C4.24 23.9446 4.37 24 4.5 24C4.635 24 4.76 23.9446 4.855 23.854C4.945 23.7583 5 23.6274 5 23.4965C5 23.3601 4.945 23.2342 4.855 23.1441C4.67 22.9528 4.335 22.9528 4.145 23.1391Z" fill="#C72839"/>
<path d="M18.145 12.1396C18.055 12.2347 18 12.3655 18 12.4969C18 12.6277 18.055 12.7585 18.145 12.8541C18.24 12.9447 18.37 13 18.5 13C18.63 13 18.76 12.9447 18.855 12.8541C18.95 12.7585 19 12.6277 19 12.4969C19 12.3655 18.95 12.2347 18.855 12.1396C18.665 11.9535 18.335 11.9535 18.145 12.1396Z" fill="#C72839"/>
<path d="M15.855 19.8541C15.945 19.7585 16 19.6277 16 19.4969C16 19.3655 15.945 19.2347 15.855 19.1396C15.665 18.9535 15.33 18.9535 15.145 19.1396C15.055 19.2347 15 19.3655 15 19.4969C15 19.6277 15.055 19.7585 15.145 19.8541C15.24 19.9492 15.365 20 15.5 20C15.635 20 15.76 19.9447 15.855 19.8541Z" fill="#C72839"/>
<path d="M18.145 19.1396C18.055 19.2347 18 19.3655 18 19.4969C18 19.6277 18.055 19.7585 18.145 19.8541C18.24 19.9447 18.365 20 18.5 20C18.635 20 18.76 19.9447 18.855 19.8541C18.945 19.7585 19 19.6277 19 19.4969C19 19.3655 18.945 19.2347 18.855 19.1396C18.67 18.9535 18.33 18.9535 18.145 19.1396Z" fill="#C72839"/>
</svg>
