<svg width="24" height="31" viewBox="0 0 24 31" fill="none" xmlns="http://www.w3.org/2000/svg">
<path fill-rule="evenodd" clip-rule="evenodd" d="M16.5518 0H0V31H24V7.5361L16.5518 0ZM16.8511 1.7639L22.2567 7.23333H16.8511V1.7639ZM1.02128 1.03333V29.9667H22.9787V8.26667H15.8298V1.03333H1.02128Z" fill="#C72839"/>
<path d="M3.54545 4H8.45455C8.75564 4 9 3.7765 9 3.5C9 3.2235 8.75564 3 8.45455 3H3.54545C3.24436 3 3 3.2235 3 3.5C3 3.7765 3.24436 4 3.54545 4Z" fill="#C72839"/>
<path d="M12.4737 9H3.52632C3.23579 9 3 9.2235 3 9.5C3 9.7765 3.23579 10 3.52632 10H12.4737C12.7642 10 13 9.7765 13 9.5C13 9.2235 12.7642 9 12.4737 9Z" fill="#C72839"/>
<path d="M20.4477 11H14.5263C14.2358 11 14 11.2235 14 11.5C14 11.7765 14.2358 12 14.5263 12H20.4477C20.7383 12 20.9741 11.7765 20.9741 11.5C20.9741 11.2235 20.7383 11 20.4477 11Z" fill="#C72839"/>
<path d="M14.4444 5H13.5556C13.2489 5 13 5.2235 13 5.5C13 5.7765 13.2489 6 13.5556 6H14.4444C14.7511 6 15 5.7765 15 5.5C15 5.2235 14.7511 5 14.4444 5Z" fill="#C72839"/>
<path d="M10.5714 4H13.4286C13.744 4 14 3.7765 14 3.5C14 3.2235 13.744 3 13.4286 3H10.5714C10.256 3 10 3.2235 10 3.5C10 3.7765 10.256 4 10.5714 4Z" fill="#C72839"/>
<path d="M5.55556 6H9.44444C9.75111 6 10 5.7765 10 5.5C10 5.2235 9.75111 5 9.44444 5H5.55556C5.24889 5 5 5.2235 5 5.5C5 5.7765 5.24889 6 5.55556 6Z" fill="#C72839"/>
<path d="M3 5.49686C3 5.62767 3.055 5.75849 3.145 5.85409C3.24 5.94465 3.37 6 3.5 6C3.63 6 3.76 5.94465 3.855 5.85409C3.945 5.75849 4 5.62767 4 5.49686C4 5.36553 3.945 5.23472 3.855 5.13962C3.67 4.95346 3.335 4.95346 3.145 5.13962C3.055 5.23472 3 5.36553 3 5.49686Z" fill="#C72839"/>
<path d="M3.5 7C3.224 7 3 7.2235 3 7.5C3 7.7765 3.224 8 3.5 8H8.5C8.776 8 9 7.7765 9 7.5C9 7.2235 8.776 7 8.5 7H3.5Z" fill="#C72839"/>
<path d="M10.5 8C10.63 8 10.76 7.94465 10.855 7.85409C10.945 7.75849 11 7.62767 11 7.49686C11 7.36553 10.945 7.23472 10.855 7.13962C10.67 6.95346 10.33 6.95346 10.145 7.13962C10.055 7.23472 10 7.3605 10 7.49686C10 7.62767 10.055 7.75849 10.145 7.85409C10.24 7.94465 10.37 8 10.5 8Z" fill="#C72839"/>
<path d="M14.4444 7H12.5556C12.2489 7 12 7.2235 12 7.5C12 7.7765 12.2489 8 12.5556 8H14.4444C14.7511 8 15 7.7765 15 7.5C15 7.2235 14.7511 7 14.4444 7Z" fill="#C72839"/>
<path d="M20.4741 9H16.5C16.224 9 16 9.2235 16 9.5C16 9.7765 16.224 10 16.5 10H20.4741C20.7501 10 20.9741 9.7765 20.9741 9.5C20.9741 9.2235 20.7501 9 20.4741 9Z" fill="#C72839"/>
<path d="M10.5 11H5.5C5.224 11 5 11.2235 5 11.5C5 11.7765 5.224 12 5.5 12H10.5C10.776 12 11 11.7765 11 11.5C11 11.2235 10.776 11 10.5 11Z" fill="#C72839"/>
<path d="M12.145 11.1391C12.055 11.2297 12 11.3601 12 11.4965C12 11.6325 12.05 11.7583 12.145 11.854C12.24 11.9446 12.37 12 12.5 12C12.635 12 12.76 11.9446 12.855 11.854C12.945 11.7583 13 11.6274 13 11.4965C13 11.3601 12.945 11.2342 12.855 11.1441C12.67 10.9528 12.335 10.9528 12.145 11.1391Z" fill="#C72839"/>
<path d="M11.145 5.13962C11.055 5.23472 11 5.36553 11 5.49686C11 5.62767 11.055 5.75849 11.145 5.85409C11.24 5.94465 11.37 6 11.5 6C11.63 6 11.76 5.94465 11.855 5.85409C11.95 5.75849 12 5.62767 12 5.49686C12 5.36553 11.95 5.23472 11.855 5.13962C11.665 4.95346 11.335 4.95346 11.145 5.13962Z" fill="#C72839"/>
<path d="M14.855 9.85409C14.945 9.75849 15 9.62767 15 9.49686C15 9.36553 14.945 9.23472 14.855 9.13962C14.665 8.95346 14.33 8.95346 14.145 9.13962C14.055 9.23472 14 9.36553 14 9.49686C14 9.62767 14.055 9.75849 14.145 9.85409C14.24 9.94918 14.365 10 14.5 10C14.635 10 14.76 9.94465 14.855 9.85409Z" fill="#C72839"/>
<path d="M3.145 11.1396C3.055 11.2347 3 11.3655 3 11.4969C3 11.6277 3.055 11.7585 3.145 11.8541C3.24 11.9447 3.365 12 3.5 12C3.635 12 3.76 11.9447 3.855 11.8541C3.945 11.7585 4 11.6277 4 11.4969C4 11.3655 3.945 11.2347 3.855 11.1396C3.67 10.9535 3.33 10.9535 3.145 11.1396Z" fill="#C72839"/>
<path d="M12.4737 13H3.52632C3.23579 13 3 13.2235 3 13.5C3 13.7765 3.23579 14 3.52632 14H12.4737C12.7642 14 13 13.7765 13 13.5C13 13.2235 12.7642 13 12.4737 13Z" fill="#C72839"/>
<path d="M20.4477 15H14.5263C14.2358 15 14 15.2235 14 15.5C14 15.7765 14.2358 16 14.5263 16H20.4477C20.7383 16 20.9741 15.7765 20.9741 15.5C20.9741 15.2235 20.7383 15 20.4477 15Z" fill="#C72839"/>
<path d="M20.4741 13H16.5C16.224 13 16 13.2235 16 13.5C16 13.7765 16.224 14 16.5 14H20.4741C20.7501 14 20.9741 13.7765 20.9741 13.5C20.9741 13.2235 20.7501 13 20.4741 13Z" fill="#C72839"/>
<path d="M10.5 15H5.5C5.224 15 5 15.2235 5 15.5C5 15.7765 5.224 16 5.5 16H10.5C10.776 16 11 15.7765 11 15.5C11 15.2235 10.776 15 10.5 15Z" fill="#C72839"/>
<path d="M12.145 15.1391C12.055 15.2297 12 15.3601 12 15.4965C12 15.6325 12.05 15.7583 12.145 15.854C12.24 15.9446 12.37 16 12.5 16C12.635 16 12.76 15.9446 12.855 15.854C12.945 15.7583 13 15.6274 13 15.4965C13 15.3601 12.945 15.2342 12.855 15.1441C12.67 14.9528 12.335 14.9528 12.145 15.1391Z" fill="#C72839"/>
<path d="M14.855 13.8541C14.945 13.7585 15 13.6277 15 13.4969C15 13.3655 14.945 13.2347 14.855 13.1396C14.665 12.9535 14.33 12.9535 14.145 13.1396C14.055 13.2347 14 13.3655 14 13.4969C14 13.6277 14.055 13.7585 14.145 13.8541C14.24 13.9492 14.365 14 14.5 14C14.635 14 14.76 13.9447 14.855 13.8541Z" fill="#C72839"/>
<path d="M3.145 15.1396C3.055 15.2347 3 15.3655 3 15.4969C3 15.6277 3.055 15.7585 3.145 15.8541C3.24 15.9447 3.365 16 3.5 16C3.635 16 3.76 15.9447 3.855 15.8541C3.945 15.7585 4 15.6277 4 15.4969C4 15.3655 3.945 15.2347 3.855 15.1396C3.67 14.9535 3.33 14.9535 3.145 15.1396Z" fill="#C72839"/>
<path d="M12.4737 17H3.52632C3.23579 17 3 17.2235 3 17.5C3 17.7765 3.23579 18 3.52632 18H12.4737C12.7642 18 13 17.7765 13 17.5C13 17.2235 12.7642 17 12.4737 17Z" fill="#C72839"/>
<path d="M20.4477 19H14.5263C14.2358 19 14 19.2235 14 19.5C14 19.7765 14.2358 20 14.5263 20H20.4477C20.7383 20 20.9741 19.7765 20.9741 19.5C20.9741 19.2235 20.7383 19 20.4477 19Z" fill="#C72839"/>
<path d="M20.4741 17H16.5C16.224 17 16 17.2235 16 17.5C16 17.7765 16.224 18 16.5 18H20.4741C20.7501 18 20.9741 17.7765 20.9741 17.5C20.9741 17.2235 20.7501 17 20.4741 17Z" fill="#C72839"/>
<path d="M10.5 19H5.5C5.224 19 5 19.2235 5 19.5C5 19.7765 5.224 20 5.5 20H10.5C10.776 20 11 19.7765 11 19.5C11 19.2235 10.776 19 10.5 19Z" fill="#C72839"/>
<path d="M12.145 19.1391C12.055 19.2297 12 19.3601 12 19.4965C12 19.6325 12.05 19.7583 12.145 19.854C12.24 19.9446 12.37 20 12.5 20C12.635 20 12.76 19.9446 12.855 19.854C12.945 19.7583 13 19.6274 13 19.4965C13 19.3601 12.945 19.2342 12.855 19.1441C12.67 18.9528 12.335 18.9528 12.145 19.1391Z" fill="#C72839"/>
<path d="M14.855 17.8541C14.945 17.7585 15 17.6277 15 17.4969C15 17.3655 14.945 17.2347 14.855 17.1396C14.665 16.9535 14.33 16.9535 14.145 17.1396C14.055 17.2347 14 17.3655 14 17.4969C14 17.6277 14.055 17.7585 14.145 17.8541C14.24 17.9492 14.365 18 14.5 18C14.635 18 14.76 17.9447 14.855 17.8541Z" fill="#C72839"/>
<path d="M3.145 19.1396C3.055 19.2347 3 19.3655 3 19.4969C3 19.6277 3.055 19.7585 3.145 19.8541C3.24 19.9447 3.365 20 3.5 20C3.635 20 3.76 19.9447 3.855 19.8541C3.945 19.7585 4 19.6277 4 19.4969C4 19.3655 3.945 19.2347 3.855 19.1396C3.67 18.9535 3.33 18.9535 3.145 19.1396Z" fill="#C72839"/>
<path d="M12.4737 21H3.52632C3.23579 21 3 21.2235 3 21.5C3 21.7765 3.23579 22 3.52632 22H12.4737C12.7642 22 13 21.7765 13 21.5C13 21.2235 12.7642 21 12.4737 21Z" fill="#C72839"/>
<path d="M20.4477 23H14.5263C14.2358 23 14 23.2235 14 23.5C14 23.7765 14.2358 24 14.5263 24H20.4477C20.7383 24 20.9741 23.7765 20.9741 23.5C20.9741 23.2235 20.7383 23 20.4477 23Z" fill="#C72839"/>
<path d="M20.4741 21H16.5C16.224 21 16 21.2235 16 21.5C16 21.7765 16.224 22 16.5 22H20.4741C20.7501 22 20.9741 21.7765 20.9741 21.5C20.9741 21.2235 20.7501 21 20.4741 21Z" fill="#C72839"/>
<path d="M10.5 23H5.5C5.224 23 5 23.2235 5 23.5C5 23.7765 5.224 24 5.5 24H10.5C10.776 24 11 23.7765 11 23.5C11 23.2235 10.776 23 10.5 23Z" fill="#C72839"/>
<path d="M12.145 23.1391C12.055 23.2297 12 23.3601 12 23.4965C12 23.6325 12.05 23.7583 12.145 23.854C12.24 23.9446 12.37 24 12.5 24C12.635 24 12.76 23.9446 12.855 23.854C12.945 23.7583 13 23.6274 13 23.4965C13 23.3601 12.945 23.2342 12.855 23.1441C12.67 22.9528 12.335 22.9528 12.145 23.1391Z" fill="#C72839"/>
<path d="M14.855 21.8541C14.945 21.7585 15 21.6277 15 21.4969C15 21.3655 14.945 21.2347 14.855 21.1396C14.665 20.9535 14.33 20.9535 14.145 21.1396C14.055 21.2347 14 21.3655 14 21.4969C14 21.6277 14.055 21.7585 14.145 21.8541C14.24 21.9492 14.365 22 14.5 22C14.635 22 14.76 21.9447 14.855 21.8541Z" fill="#C72839"/>
<path d="M3.145 23.1396C3.055 23.2347 3 23.3655 3 23.4969C3 23.6277 3.055 23.7585 3.145 23.8541C3.24 23.9447 3.365 24 3.5 24C3.635 24 3.76 23.9447 3.855 23.8541C3.945 23.7585 4 23.6277 4 23.4969C4 23.3655 3.945 23.2347 3.855 23.1396C3.67 22.9535 3.33 22.9535 3.145 23.1396Z" fill="#C72839"/>
<path d="M12.4737 25H3.52632C3.23579 25 3 25.2235 3 25.5C3 25.7765 3.23579 26 3.52632 26H12.4737C12.7642 26 13 25.7765 13 25.5C13 25.2235 12.7642 25 12.4737 25Z" fill="#C72839"/>
<path d="M20.4477 27H14.5263C14.2358 27 14 27.2235 14 27.5C14 27.7765 14.2358 28 14.5263 28H20.4477C20.7383 28 20.9741 27.7765 20.9741 27.5C20.9741 27.2235 20.7383 27 20.4477 27Z" fill="#C72839"/>
<path d="M20.4741 25H16.5C16.224 25 16 25.2235 16 25.5C16 25.7765 16.224 26 16.5 26H20.4741C20.7501 26 20.9741 25.7765 20.9741 25.5C20.9741 25.2235 20.7501 25 20.4741 25Z" fill="#C72839"/>
<path d="M10.5 27H5.5C5.224 27 5 27.2235 5 27.5C5 27.7765 5.224 28 5.5 28H10.5C10.776 28 11 27.7765 11 27.5C11 27.2235 10.776 27 10.5 27Z" fill="#C72839"/>
<path d="M12.145 27.1391C12.055 27.2297 12 27.3601 12 27.4965C12 27.6325 12.05 27.7583 12.145 27.854C12.24 27.9446 12.37 28 12.5 28C12.635 28 12.76 27.9446 12.855 27.854C12.945 27.7583 13 27.6274 13 27.4965C13 27.3601 12.945 27.2342 12.855 27.1441C12.67 26.9528 12.335 26.9528 12.145 27.1391Z" fill="#C72839"/>
<path d="M14.855 25.8541C14.945 25.7585 15 25.6277 15 25.4969C15 25.3655 14.945 25.2347 14.855 25.1396C14.665 24.9535 14.33 24.9535 14.145 25.1396C14.055 25.2347 14 25.3655 14 25.4969C14 25.6277 14.055 25.7585 14.145 25.8541C14.24 25.9492 14.365 26 14.5 26C14.635 26 14.76 25.9447 14.855 25.8541Z" fill="#C72839"/>
<path d="M3.145 27.1396C3.055 27.2347 3 27.3655 3 27.4969C3 27.6277 3.055 27.7585 3.145 27.8541C3.24 27.9447 3.365 28 3.5 28C3.635 28 3.76 27.9447 3.855 27.8541C3.945 27.7585 4 27.6277 4 27.4969C4 27.3655 3.945 27.2347 3.855 27.1396C3.67 26.9535 3.33 26.9535 3.145 27.1396Z" fill="#C72839"/>
</svg>
