<svg xmlns="http://www.w3.org/2000/svg" width="47" height="32.001" viewBox="0 0 47 32.001">
  <g id="ecological-compatibility" transform="translate(0 -0.7)">
    <path id="Shape" d="M20.687,32h0l-1.538-.281c.016-.087,1.608-8.959.058-16.459a25.248,25.248,0,0,1-7.29,1.174,12.944,12.944,0,0,1-7.1-1.822C1.991,12.787.386,9.678.048,5.37L0,4.763.573,4.57A23.935,23.935,0,0,1,8.256,3.108a11.48,11.48,0,0,1,7.707,2.639,14.017,14.017,0,0,1,3.89,5.985,23.366,23.366,0,0,1,3.135-5.271A17.305,17.305,0,0,1,29,1.562,16.14,16.14,0,0,1,36.058,0,26.041,26.041,0,0,1,46.4,2.442L47,2.7l-.142.624c-1.493,6.615-4.437,10.971-8.752,12.947a13.578,13.578,0,0,1-5.6,1.2h-.149a21.017,21.017,0,0,1-8.833-2.145l-.773-.4.486-.728a21.186,21.186,0,0,1,3.756-4A14.849,14.849,0,0,1,36.5,6.446a12.856,12.856,0,0,1,1.779.125l-.22,1.544a11.015,11.015,0,0,0-1.527-.107c-5.677,0-9.89,4.423-11.437,6.324a19.479,19.479,0,0,0,7.293,1.562,12.044,12.044,0,0,0,5.063-1.042c3.71-1.713,6.309-5.5,7.725-11.243A23.929,23.929,0,0,0,36.07,1.562,14.581,14.581,0,0,0,29.679,2.97c-5.955,2.864-8.466,9.335-9.094,11.25,1.912,8.038.177,17.385.1,17.779ZM8.237,4.673A21.672,21.672,0,0,0,1.665,5.851c.391,3.482,1.736,5.986,4,7.441a11.364,11.364,0,0,0,6.229,1.569,23.95,23.95,0,0,0,6.945-1.129,13.455,13.455,0,0,0-3.9-6.8A9.975,9.975,0,0,0,8.237,4.673Z" transform="translate(0 0.701)" fill="#69b8aa"/>
  </g>
</svg>
