<svg xmlns="http://www.w3.org/2000/svg" width="47" height="36.001" viewBox="0 0 47 36.001">
  <g id="exclusive-design" transform="translate(0 0.299)">
    <path id="Shape" d="M44.174,36H.959a.95.95,0,1,1,0-1.9H2.333V31.832H.959a.95.95,0,1,1,0-1.9H2.333v-2.3H.959a.95.95,0,1,1,0-1.9H2.333V23.153H.959a.95.95,0,1,1,0-1.9H2.333v-2.44H.959a.961.961,0,0,1-.83-.477.95.95,0,0,1,0-.954.961.961,0,0,1,.83-.477H2.333V14.53H.959a.95.95,0,1,1,0-1.9H2.333v-2.5H.959a.95.95,0,1,1,0-1.9H2.333V5.951H.959a.95.95,0,1,1,0-1.9H2.333V1.909H.995a.95.95,0,1,1,0-1.9H2.333V0H44.174V.063a1.055,1.055,0,0,1,.3-.054h1.573a.95.95,0,1,1,0,1.9H44.473a.806.806,0,0,1-.3-.063V4.1a.88.88,0,0,1,.272-.054H46.01a.95.95,0,1,1,0,1.9H44.446a.878.878,0,0,1-.272-.054V8.282a.88.88,0,0,1,.272-.054H46.01a.95.95,0,1,1,0,1.9H44.446a.878.878,0,0,1-.272-.054v2.611a.83.83,0,0,1,.272-.054H46.01a.95.95,0,1,1,0,1.9H44.446a.852.852,0,0,1-.272-.054v2.494a.832.832,0,0,1,.272-.063H46.01a.954.954,0,1,1,0,1.908H44.446a1.168,1.168,0,0,1-.272-.054v2.548a.854.854,0,0,1,.272-.054H46.01a.95.95,0,1,1,0,1.9H44.446a.828.828,0,0,1-.272-.054v2.692a.88.88,0,0,1,.272-.054H46.01a.95.95,0,1,1,0,1.9H44.446a.878.878,0,0,1-.272-.054v2.4a.88.88,0,0,1,.272-.054H46.01a.95.95,0,1,1,0,1.9H44.446a.878.878,0,0,1-.272-.054v2.376a.88.88,0,0,1,.272-.054H46.01a.95.95,0,1,1,0,1.9H44.446a.878.878,0,0,1-.272-.054V36ZM4.25,1.9V34.1H42.257V1.9ZM22.969,31.526h0L9.631,18.284,23.539,4.465,36.877,17.716,22.97,31.525Zm.57-24.369-11.2,11.127,10.634,10.56,11.2-11.127L23.539,7.157Zm-.277,14.476h0A3.637,3.637,0,1,1,26.912,18,3.651,3.651,0,0,1,23.258,21.632Z" transform="translate(0 -0.299)" fill="#ec5149"/>
  </g>
</svg>
