<svg width="83" height="182" viewBox="0 0 83 182" fill="none" xmlns="http://www.w3.org/2000/svg">
<path fill-rule="evenodd" clip-rule="evenodd" d="M41.5 41C18.5801 41 0 43.5249 0 46.6399C0 49.7546 18.5801 52.2795 41.5 52.2795C64.4199 52.2795 83 49.7546 83 46.6399C83 43.5249 64.4199 41 41.5 41ZM41.5312 54.1641C52.6738 54.1641 63.1631 53.5649 71.0654 52.4773C74.9814 51.9387 78.0781 51.3035 80.2715 50.5898C80.7959 50.4192 81.6836 50.1279 82.5371 49.6636L77.2363 98.0386C76.1299 99.0024 75.1484 99.8499 74.3096 100.561C73.0869 101.598 72.0771 102.425 71.2822 103.041C70.4873 103.657 69.8691 104.089 69.4287 104.339C68.9883 104.588 68.6533 104.713 68.4258 104.713C68.1455 104.713 67.9453 104.655 67.8252 104.538C67.7441 104.458 67.6904 104.364 67.6631 104.252C67.6553 104.219 67.6494 104.185 67.6475 104.149L67.6445 104.082C67.6465 104.057 67.6543 104.028 67.666 103.995C67.6816 103.954 67.7061 103.907 67.7383 103.853C67.8252 103.707 67.9707 103.514 68.1748 103.274C68.5166 102.876 68.9375 102.394 69.4385 101.823C69.9404 101.254 70.4775 100.623 71.0527 99.929C71.626 99.2346 72.1611 98.5217 72.6562 97.7881C73.1504 97.0559 73.5615 96.3269 73.8887 95.6018C74.2158 94.8765 74.3789 94.1946 74.3789 93.5544C74.3789 93.3567 74.3613 93.1689 74.3252 92.991C74.2734 92.7334 74.1846 92.4963 74.0586 92.2798C73.8457 91.9133 73.5674 91.6096 73.2266 91.3672C72.8867 91.1255 72.498 90.9424 72.0645 90.8179C71.9297 90.7791 71.7949 90.7463 71.6602 90.7197C71.3594 90.6599 71.0566 90.6301 70.752 90.6301C70.1104 90.6301 69.4688 90.7632 68.8281 91.0273C68.7383 91.0647 68.6484 91.1033 68.5596 91.1436C68.4609 91.188 68.3623 91.2344 68.2646 91.2827C67.8174 91.5024 67.376 91.7603 66.9424 92.0576C66.3281 92.4778 65.7334 92.9504 65.1582 93.4731C64.584 93.9954 64.0488 94.5212 63.5557 95.0518C63.5957 94.9583 63.6387 94.8103 63.6855 94.6077C63.7324 94.4048 63.7764 94.1899 63.8164 93.9644L63.875 93.6135L63.916 93.3203C63.9297 93.2139 63.9404 93.1226 63.9473 93.0461C63.9531 92.9773 63.9561 92.9207 63.9561 92.8762C63.9561 92.6411 63.9258 92.4346 63.8652 92.2563C63.8047 92.0801 63.7148 91.9319 63.5957 91.8113C63.3555 91.5703 62.9668 91.449 62.4326 91.449C62.085 91.449 61.7607 91.6328 61.46 91.9988C61.1602 92.365 60.8887 92.7983 60.6484 93.2969C60.5508 93.4988 60.458 93.7019 60.3691 93.9062C60.2393 94.2073 60.1191 94.5112 60.0078 94.8179C59.8203 95.333 59.6729 95.73 59.5664 96.011C59.502 96.2373 59.4346 96.4653 59.3643 96.6951L59.2021 97.2092C59.1221 97.4583 59.0391 97.709 58.9531 97.9619C58.8369 98.0095 58.7324 98.073 58.6445 98.1626C58.416 98.3918 58.167 98.6343 57.9004 98.8894L57.3711 99.3906C56.8965 99.8354 56.3994 100.28 55.877 100.725C55.3564 101.169 54.832 101.598 54.3037 102.011C53.7764 102.425 53.2695 102.791 52.7803 103.11C52.293 103.43 51.8389 103.688 51.418 103.882C50.9971 104.078 50.6455 104.175 50.3652 104.175C50.1387 104.175 49.9844 104.105 49.9043 103.964C49.8242 103.824 49.7842 103.636 49.7842 103.404C49.7842 103.029 49.8545 102.604 49.9951 102.128C50.0557 101.922 50.1172 101.727 50.1787 101.543C50.2598 101.302 50.3418 101.08 50.4248 100.876L50.9854 99.4729L51.6172 97.8938C52.0791 96.7471 52.5742 95.5354 53.1016 94.2561L53.2637 93.8623C53.7402 92.708 54.2275 91.5256 54.7246 90.3145C54.9756 89.7041 55.2236 89.104 55.4697 88.5144C55.7666 87.801 56.0596 87.1028 56.3486 86.4197L56.7559 85.4595C57.1328 84.5747 57.4922 83.7405 57.832 82.9573C58.293 81.897 58.6914 81.0007 59.0244 80.2671C59.1992 79.9084 59.3428 79.5735 59.4561 79.2612C59.4902 79.1663 59.5195 79.0728 59.5439 78.9807C59.5615 78.9155 59.5762 78.8511 59.5879 78.7874C59.6025 78.7061 59.6133 78.626 59.6191 78.5471C59.624 78.4883 59.627 78.4302 59.627 78.3726C59.627 77.78 59.4561 77.3513 59.1152 77.0857C58.9043 76.9221 58.6797 76.8091 58.4414 76.7466C58.2939 76.7078 58.1406 76.6882 57.9824 76.6882C57.5684 76.6882 57.1572 76.8132 56.749 77.0623C56.3428 77.3118 56.0186 77.741 55.7773 78.3491L49.7041 93.4375L48.3809 96.7363C47.8994 97.937 47.4248 99.145 46.958 100.362C46.7002 101.006 46.4795 101.713 46.291 102.479C46.123 102.618 45.9531 102.75 45.7852 102.876C45.1104 103.383 44.4658 103.777 43.8506 104.058C43.2354 104.339 42.7217 104.479 42.3066 104.479C41.7188 104.479 41.4258 104.198 41.4258 103.636C41.4258 103.029 41.5146 102.369 41.6963 101.66C41.877 100.951 42.1025 100.225 42.3779 99.4846C42.6504 98.7437 42.9492 98.0151 43.2695 97.2969L43.6807 96.3711L44.1611 95.2742C44.3242 94.8962 44.4717 94.5435 44.6025 94.2158L44.6992 93.9714L44.8428 93.5898C45.0234 93.0986 45.1133 92.7117 45.1133 92.4312C45.1133 91.9326 44.9736 91.5039 44.6934 91.1448C44.4111 90.7864 44.0312 90.6067 43.5498 90.6067C43.4307 90.6067 43.3174 90.6191 43.21 90.6443C43.1445 90.6594 43.0811 90.6792 43.0195 90.7034C42.8047 90.7876 42.6143 90.927 42.4473 91.1213C42.1533 91.4644 41.8936 91.8931 41.666 92.4082C41.5664 92.6345 41.4697 92.8696 41.376 93.1138C41.2568 93.4253 41.1426 93.7512 41.0342 94.0925C40.8408 94.7002 40.6172 95.2703 40.3623 95.8C40.002 96.5957 39.5508 97.4722 39.0098 98.4314C38.4688 99.3906 37.8643 100.288 37.1953 101.122C36.5273 101.956 35.7988 102.654 35.0107 103.216C34.5518 103.542 34.0791 103.774 33.5928 103.91C33.2441 104.009 32.8887 104.058 32.5254 104.058C32.2178 104.058 31.9971 103.941 31.8633 103.707C31.7295 103.473 31.6631 103.216 31.6631 102.935C31.6895 102.265 31.8037 101.575 32.0039 100.865C32.2041 100.156 32.4453 99.458 32.7256 98.7712C33.0059 98.0847 33.3096 97.4219 33.6377 96.7832C33.9648 96.1431 34.2764 95.5466 34.5693 94.9932C34.8633 94.4395 35.1211 93.9482 35.3418 93.5188C35.5615 93.0901 35.7051 92.7441 35.7725 92.4778C35.8125 92.3386 35.833 92.1897 35.833 92.0337C35.833 91.9097 35.8174 91.7935 35.7871 91.6851C35.7607 91.5886 35.7227 91.4983 35.6729 91.4141C35.5654 91.2351 35.4248 91.0867 35.251 90.9695C35.1621 90.9094 35.0693 90.8577 34.9727 90.814C34.8818 90.7727 34.7871 90.7388 34.6895 90.7119C34.6387 90.6982 34.5879 90.686 34.5381 90.6758C34.4824 90.6643 34.4277 90.655 34.373 90.6479C34.2842 90.6362 34.1953 90.6301 34.1084 90.6301C33.8916 90.6301 33.6836 90.6631 33.4834 90.729C33.2871 90.7935 33.0977 90.8894 32.915 91.0166C32.5488 91.2737 32.2246 91.6985 31.9434 92.2915C31.3252 93.5576 30.7861 94.7175 30.3262 95.7708C29.9697 96.585 29.6602 97.3354 29.3975 98.0222C28.7969 99.5974 28.3525 100.881 28.0654 101.87C27.7773 102.861 27.6074 103.586 27.5537 104.046C27.5 104.507 27.4736 104.744 27.4736 104.76C27.4736 104.968 27.4824 105.165 27.5 105.351C27.5137 105.489 27.5322 105.621 27.5557 105.747C27.6016 105.999 27.668 106.228 27.7539 106.433C27.9414 106.877 28.1885 107.232 28.4961 107.497C28.6436 107.624 28.8027 107.733 28.9727 107.824C29.1572 107.923 29.3555 108.001 29.5684 108.058C29.9766 108.167 30.4004 108.222 30.8418 108.222C31.8164 108.222 32.7188 108.062 33.5479 107.742C34.376 107.423 35.124 107.005 35.793 106.491C36.4609 105.976 37.0547 105.407 37.5771 104.783C38.0977 104.16 38.5322 103.543 38.8789 102.935C38.666 103.886 38.5586 104.72 38.5586 105.438C38.5586 106.452 38.7588 107.169 39.1592 107.59C39.3008 107.739 39.457 107.861 39.6289 107.957C39.9434 108.134 40.3086 108.222 40.7246 108.222C41.0537 108.222 41.4043 108.175 41.7773 108.083C42.1289 107.995 42.499 107.866 42.8887 107.695C43.6904 107.345 44.5059 106.88 45.334 106.304C45.5723 106.138 45.8096 105.963 46.0439 105.782L46.0498 105.815L46.0527 105.845C46.0703 105.969 46.0879 106.092 46.1152 106.21C46.209 106.616 46.3662 106.967 46.5869 107.263C46.8076 107.559 47.1016 107.793 47.4688 107.965C47.71 108.077 47.9902 108.153 48.3086 108.191C48.4756 108.212 48.6533 108.222 48.8418 108.222C49.3447 108.222 49.8564 108.148 50.3779 108.001C50.5537 107.951 50.7305 107.893 50.9082 107.827C51.0449 107.776 51.1816 107.721 51.3184 107.661C52.166 107.286 53.0215 106.783 53.8838 106.151C54.7451 105.52 55.6104 104.791 56.4795 103.964L56.6035 103.842C56.4639 104.161 56.332 104.475 56.1885 104.795L55.8857 105.466L55.3975 106.538C54.9551 107.502 54.5 108.473 54.0342 109.45C53.2861 111.018 52.5508 112.581 51.8281 114.14C51.7217 114.421 51.6045 114.713 51.4785 115.018C51.3516 115.322 51.2275 115.633 51.1074 115.953C50.9873 116.272 50.8867 116.597 50.8066 116.924C50.7266 117.251 50.6865 117.571 50.6865 117.883C50.6865 118.522 50.8438 118.955 51.1572 119.181C51.4717 119.407 51.8682 119.521 52.3506 119.521C52.7236 119.521 53.0615 119.439 53.3623 119.275C53.6631 119.111 53.9307 118.893 54.1641 118.621C54.3984 118.347 54.6045 118.031 54.7852 117.673C54.9648 117.313 55.123 116.932 55.2559 116.526C55.2793 116.443 55.3223 116.316 55.3838 116.145L55.5371 115.731L56.0479 114.374L56.6689 112.737L57.3008 111.087C57.501 110.565 57.6787 110.109 57.832 109.719C57.9854 109.329 58.0957 109.064 58.1631 108.924L58.2637 108.708L58.4346 108.327L58.8643 107.345C59.0244 106.979 59.2021 106.589 59.3955 106.175L59.6562 105.612L59.9463 104.97C60.1201 104.581 60.2803 104.229 60.4277 103.917L60.7686 103.192C61.0361 102.647 61.3604 102.05 61.7412 101.403C62.1221 100.756 62.543 100.113 63.0039 99.4724C63.2344 99.1526 63.4736 98.8386 63.7217 98.5303C63.9688 98.2227 64.2236 97.9209 64.4873 97.625C64.7041 97.3811 64.9238 97.1484 65.1455 96.927C65.4629 96.6104 65.7842 96.3164 66.1104 96.0459C66.4443 95.7695 66.7803 95.5264 67.1191 95.3171L67.3418 95.1843C67.4932 95.0981 67.6445 95.0188 67.7959 94.946C68.0908 94.8042 68.3818 94.699 68.668 94.6309C68.8223 94.594 68.9766 94.5679 69.1289 94.5527C69.2363 94.542 69.3428 94.5366 69.4492 94.5366C69.7559 94.5366 69.9766 94.5923 70.1104 94.7002C70.2432 94.8103 70.3105 94.9583 70.3105 95.1453C70.3105 95.3271 70.2568 95.5403 70.1475 95.7852C70.0693 95.9609 69.9629 96.1531 69.8291 96.3616C69.5088 96.8613 69.1045 97.4111 68.6172 98.0105C68.415 98.259 68.2061 98.5134 67.9893 98.7739C67.6816 99.1431 67.3594 99.5242 67.0225 99.9172C66.4482 100.588 65.9072 101.251 65.3994 101.906C64.8916 102.561 64.457 103.192 64.0967 103.801C63.7363 104.408 63.5283 104.947 63.4756 105.415C63.4609 105.492 63.4551 105.559 63.4551 105.614V105.789C63.4551 106.129 63.5098 106.436 63.6191 106.711C63.7559 107.055 63.9785 107.348 64.2861 107.59C64.6064 107.842 65.0029 108.021 65.4766 108.128C65.8242 108.206 66.2129 108.245 66.6426 108.245C67.7246 108.245 68.7402 108.043 69.6895 107.637C70.6377 107.232 71.6104 106.658 72.6055 105.917C73.6016 105.177 74.6611 104.292 75.7832 103.263L76.4512 102.654L76.7246 102.407L72.8105 135.87C72.1133 137.621 58.7549 141.928 41.1396 141.928C23.5332 141.928 10.1797 137.625 9.4707 135.873L6.74609 107.727C6.86035 107.809 6.97559 107.891 7.09766 107.965C7.54492 108.234 8.0498 108.414 8.6123 108.504C8.89746 108.55 9.19824 108.573 9.51367 108.573C10.3281 108.573 11.1768 108.378 12.0596 107.988C12.4023 107.837 12.7441 107.668 13.085 107.482C13.6211 107.19 14.1543 106.856 14.6846 106.479C15.5527 105.863 16.4014 105.169 17.2305 104.397C17.6826 103.976 18.1162 103.554 18.5322 103.131C18.8799 102.778 19.2139 102.424 19.5361 102.07C19.2949 102.803 19.0244 103.633 18.7246 104.561L18.498 105.265L18.2227 106.14C18.1055 106.516 17.9922 106.886 17.8828 107.251C17.6211 108.117 17.3975 108.892 17.2109 109.578C17.0234 110.265 16.9229 110.733 16.9102 110.983C16.9023 111.056 16.8965 111.127 16.8936 111.196L16.8906 111.333V111.661C16.8906 112.011 16.9121 112.311 16.9541 112.559C17.002 112.84 17.0771 113.055 17.1807 113.205C17.2363 113.285 17.3008 113.354 17.376 113.411C17.4033 113.432 17.4316 113.452 17.4619 113.47C17.6357 113.574 17.8516 113.626 18.1123 113.626C18.2393 113.626 18.3652 113.603 18.4893 113.558C18.6123 113.513 18.7344 113.446 18.8545 113.356C19.0947 113.178 19.3154 112.951 19.5156 112.678C19.7168 112.406 19.8906 112.116 20.0371 111.812C20.1094 111.662 20.1719 111.518 20.2256 111.381C20.2803 111.241 20.3242 111.108 20.3574 110.983C20.3848 110.904 20.458 110.655 20.5781 110.234L21.0293 108.667C21.209 108.043 21.4131 107.345 21.6406 106.573L21.9072 105.676C22.0518 105.193 22.2002 104.705 22.3525 104.21L22.7646 102.864L23.0742 101.847C23.3076 101.075 23.5254 100.378 23.7256 99.7537C23.9258 99.1304 24.0957 98.6116 24.2363 98.1975C24.377 97.7844 24.4736 97.5396 24.5273 97.4614C24.7676 96.7749 25.0146 96.116 25.2686 95.4841C25.5225 94.8525 25.7529 94.2246 25.96 93.6016C26.042 93.3567 26.1172 93.1096 26.1875 92.8601C26.2959 92.4736 26.3906 92.0815 26.4717 91.6831C26.6055 91.0273 26.6719 90.3262 26.6719 89.5774C26.6719 89.2969 26.6289 89.051 26.542 88.8411C26.4551 88.6299 26.3379 88.459 26.1914 88.3259C26.0439 88.1938 25.877 88.0962 25.6895 88.0334C25.5732 87.9951 25.458 87.9685 25.3428 87.9536L25.2549 87.9448C25.2129 87.9417 25.1709 87.9399 25.1289 87.9399C24.7412 87.9399 24.3633 88.0649 23.9961 88.3147C23.6279 88.5642 23.3311 88.9854 23.1035 89.5774L21.2393 95.075C21.0117 95.543 20.6719 96.0928 20.2168 96.7246C20.0078 97.0149 19.7842 97.311 19.5469 97.6128C19.3955 97.8059 19.2383 98.0015 19.0752 98.1992C18.9385 98.3647 18.7979 98.532 18.6533 98.7007C18.3418 99.0652 18.0166 99.4275 17.6777 99.7874C17.3789 100.105 17.0693 100.421 16.75 100.736C16.3799 101.101 16.0098 101.444 15.6416 101.767C15.332 102.039 15.0234 102.295 14.7148 102.538L14.4375 102.752L14.2129 102.917C14.0098 103.063 13.8086 103.201 13.6094 103.329C13.3223 103.514 13.0391 103.679 12.7607 103.824C12.4229 104 12.1045 104.128 11.8057 104.21C11.5479 104.28 11.3047 104.315 11.0762 104.315C10.8418 104.315 10.6299 104.281 10.4385 104.212C10.2705 104.152 10.1191 104.065 9.98438 103.952C9.69727 103.711 9.46973 103.404 9.30273 103.029C9.13574 102.654 9.02246 102.238 8.96191 101.777C8.90234 101.318 8.87207 100.869 8.87207 100.432C8.87207 99.6187 8.95605 98.7412 9.12305 97.7991C9.22461 97.2231 9.3584 96.6233 9.52344 95.9993C9.95801 94.3545 10.542 92.6855 11.2764 90.9927C12.0117 89.3005 12.8574 87.6477 13.8135 86.0337C14.2969 85.217 14.791 84.4465 15.2969 83.7217C15.791 83.0139 16.2949 82.3499 16.8105 81.7292C17.3984 81.02 17.9902 80.3892 18.585 79.8369C18.7861 79.6504 18.9883 79.4727 19.1904 79.304C19.4482 79.0879 19.707 78.8867 19.9668 78.7002C21.0293 77.936 22.0283 77.554 22.9639 77.554C23.2568 77.554 23.5391 77.5938 23.8115 77.6731C24.0986 77.7568 24.374 77.8848 24.6377 78.0566C24.8184 78.1746 24.9932 78.3179 25.1631 78.4863C25.3398 78.6624 25.5107 78.8657 25.6768 79.0969C25.8047 79.2756 25.9297 79.4707 26.0508 79.6824C26.5049 80.509 26.916 81.1445 27.2832 81.5891C27.4619 81.8057 27.6484 81.9695 27.8428 82.0806C28.0459 82.1973 28.2568 82.2556 28.4766 82.2556C28.9443 82.2556 29.3486 82.053 29.6895 81.6475C30.0293 81.2422 30.2002 80.6882 30.2002 79.9866C30.2002 79.8469 30.1934 79.7029 30.1797 79.5544C30.165 79.3882 30.1416 79.2163 30.1094 79.0391C30.0498 78.7039 29.9062 78.3726 29.6787 78.0449C28.6895 76.5791 27.6279 75.5183 26.4922 74.8638C25.3555 74.2085 24.1797 73.8809 22.9639 73.8809C22.3105 73.8809 21.6533 73.9675 20.9922 74.1409C20.7744 74.1978 20.5566 74.2642 20.3389 74.3398C20.1484 74.406 19.958 74.4792 19.7666 74.5596C18.6904 75.0117 17.625 75.6396 16.5693 76.4424C15.5127 77.2461 14.4844 78.2048 13.4824 79.3196C12.4795 80.4348 11.5342 81.6555 10.6455 82.9807C9.75684 84.3066 8.93555 85.7141 8.17969 87.2031C7.42578 88.6924 6.76074 90.217 6.18555 91.7766C5.9043 92.5374 5.65137 93.3013 5.42383 94.0659L0.527344 49.665C1.38086 50.1284 2.26758 50.4192 2.79102 50.5898C4.98438 51.3035 8.08203 51.9387 11.9971 52.4773C19.8994 53.5649 30.3887 54.1641 41.5312 54.1641ZM18.0508 141.265C22.0518 142.215 30.3721 143.809 41.1406 143.809C51.9082 143.809 60.2285 142.215 64.2295 141.265C67 140.608 69.2168 139.927 70.8926 139.227L65.8438 147.93L64.1914 176.303C64.1914 179.449 54.0459 182 41.5312 182C29.0166 182 18.8721 179.449 18.8721 176.303L16.7842 148.236L11.4482 139.253C11.6787 139.348 11.9189 139.443 12.1689 139.538C12.9561 139.835 13.8428 140.129 14.8311 140.419C15.4336 140.595 16.0732 140.771 16.751 140.945C17.1699 141.052 17.6035 141.159 18.0508 141.265ZM53.1377 49.6116C55.8623 49.6116 58.0703 49.0188 58.0703 48.2881C58.0703 47.5566 55.8623 46.9641 53.1377 46.9641C50.4141 46.9641 48.2061 47.5566 48.2061 48.2881C48.2061 49.0188 50.4141 49.6116 53.1377 49.6116Z" fill="#DA4648"/>
<path d="M49.0372 47.0213C49.0127 47.0599 49 47.0993 49 47.1394C49 47.615 50.7841 48 52.9843 48C55.1849 48 56.9685 47.615 56.9685 47.1394L62.1725 26.3197L82.8684 4.75999C82.8751 4.75341 82.8817 4.7466 82.888 4.73956C83.326 4.25069 82.437 2.7378 80.9621 1.44029C79.4873 0.142775 77.8946 -0.296499 77.3996 0.197566C77.3959 0.201261 77.3923 0.205008 77.3888 0.208807L55.3074 23.1352L49.0372 47.0213Z" fill="#DA4648"/>
</svg>
