<svg width="134" height="189" viewBox="0 0 134 189" fill="none" xmlns="http://www.w3.org/2000/svg">
<path fill-rule="evenodd" clip-rule="evenodd" d="M21.4727 0H13V25H21.5459V16.6667H29.2822V25H37.7539V0H29.2822V8.26099H21.4727V0ZM41.4746 8.33325H48.9521V25H57.4248V8.33325H64.9395V0H41.4746V8.33325ZM68.6602 0H77.5381L82.9893 8.80444L88.4414 0H97.3193V25H88.8467V12.6086L82.916 21.5942L76.9854 12.6086V25H68.6602V0ZM109.991 0H101.519V25H122V16.739H109.991V0Z" fill="black"/>
<path d="M12.1885 173.852L0 37H134L121.811 173.778L66.8892 189" fill="#E44D26"/>
<path d="M67 177V48H122L111.504 164.635" fill="#F16529"/>
<path fill-rule="evenodd" clip-rule="evenodd" d="M67 65H25L29.5684 115.657H67V98.9312H44.8945L43.3477 81.7625H67V65ZM47.1055 124.075H30.3057L32.6631 150.4L67 160V142.499L48.2842 137.478L47.1055 124.075Z" fill="#EBEBEB"/>
<path fill-rule="evenodd" clip-rule="evenodd" d="M67 65H109L107.45 81.7756H67V65ZM67 98.9575H105.937L101.323 150.467L67 160V142.559L85.7119 137.534L87.668 115.733H67V98.9575Z" fill="white"/>
</svg>
