<svg xmlns="http://www.w3.org/2000/svg" width="43" height="32" viewBox="0 0 43 32">
  <g id="India" transform="translate(-1 0)">
    <path id="Shape" d="M34.18,32H28.669a.563.563,0,0,1-.479-.845c1.874-3.154.268-6.37-1.408-8.512-.454,1.839.207,5.853.762,8.1a.582.582,0,0,1-.1.486.557.557,0,0,1-.435.205H22.341a.959.959,0,0,1-.853-.512.97.97,0,0,1,.04-.985,5.059,5.059,0,0,0,.549-4.442,44.95,44.95,0,0,1-.521-7.731c-3.575,1.615-6.284,2.434-8.05,2.434a3.672,3.672,0,0,1-1.038-.13c-.463,1.652-1.226,3.7-2.227,4.083a34.955,34.955,0,0,0,2.392,7.065.563.563,0,0,1-.507.781H6.61a.538.538,0,0,1-.434-.218.557.557,0,0,1-.1-.473V31.3c.1-.442.994-4.372.042-6.292-.011-.022-.023-.05-.035-.076l-.023-.052a6.271,6.271,0,0,0-.521,1.485,5.979,5.979,0,0,1-.085,4.761.547.547,0,0,1-.492.308C2.7,31.437,0,31.148,0,29.773a.593.593,0,0,1,.058-.257c.954-1.9,1.972-10.46,2.084-11.43H.556a.568.568,0,0,1-.468-.256.587.587,0,0,1-.026-.551A15.865,15.865,0,0,0,1.1,10.855c0-4.372,4.792-7.63,5.753-8.238L6.884,2.6A13.935,13.935,0,0,1,13.2.637a5.429,5.429,0,0,1,3.089.861,6.091,6.091,0,0,0,3.35,1.23,5.851,5.851,0,0,0,3.338-1.371c.01,0,.014,0,.014-.013l.117-.077A12.413,12.413,0,0,1,24.559.347,4.841,4.841,0,0,1,26.643,0c3.488,0,9.706,1.761,10.783,3.93C41.12,11.389,43,16.342,43,18.65a4.49,4.49,0,0,1-3.547,4.39,2.7,2.7,0,0,1-.469.041,2.635,2.635,0,0,1-2.57-2.037,2.841,2.841,0,0,1,.941-3,3.08,3.08,0,0,1,2.172-.9,4.274,4.274,0,0,0-1.794-2.5,9.431,9.431,0,0,0-3.976-1.5v.009c.015.2.03.4.051.618a1.048,1.048,0,0,1-.7,1.113,1.15,1.15,0,0,1-.341.051H32.75a1.022,1.022,0,0,1-.873-.486c-.134-.2-.269-.4-.4-.589l-.053-.077v6.323c2.938,3.776,2.938,6.123,2.938,7.526a1.692,1.692,0,0,0,.207,1.178,2.079,2.079,0,0,1,0,3.008A.569.569,0,0,1,34.18,32ZM24.244,15.308a.571.571,0,0,1,.239.053.538.538,0,0,1,.3.371l1.06,4.276a16.171,16.171,0,0,1,1.131,1.165h.012a.652.652,0,0,1,.046.056.422.422,0,0,0,.039.047c1.66,1.913,4.192,5.7,2.492,9.612h4.35a.932.932,0,0,0-.13-1.28,2.518,2.518,0,0,1-.529-1.958c0-1.366,0-3.43-2.819-6.989a.562.562,0,0,1-.114-.346V12.532a.4.4,0,0,1,.021-.1c-.675-.745-1.263-1.139-1.7-1.139a.606.606,0,0,0-.279.064,3.415,3.415,0,0,1-3.608-.512c-.881-.675-2.858-2.795-2.2-7.872a5.665,5.665,0,0,1-2.9.882A7.169,7.169,0,0,1,15.687,2.42a4.356,4.356,0,0,0-2.471-.672,13.168,13.168,0,0,0-5.759,1.8l-.023.015c-.872.561-5.221,3.552-5.221,7.294a19.546,19.546,0,0,1-.848,6.118h.888l.512-6.72a.571.571,0,0,1,.521-.511h.024a.548.548,0,0,1,.547.461c.874,4.875,2.463,12.71,3.256,14.31.89,1.8.5,4.765.192,6.374h3.988c-1.768-4.263-2.436-6.77-1.987-7.449a.728.728,0,0,1,.615-.346,9.9,9.9,0,0,0,1.671-4.019.555.555,0,0,1,.539-.426.538.538,0,0,1,.489.311,1.9,1.9,0,0,0,.762.158c.043,0,.086,0,.129,0,1.41,0,4.376-.651,10.495-3.75A.566.566,0,0,1,24.244,15.308Zm-20.7-.817h0l-.234,3.083v.014a.015.015,0,0,1,0,.013c-.109.981-1.1,9.661-2.164,12.211a10.1,10.1,0,0,0,3.188.515c.088,0,.177,0,.265,0a4.746,4.746,0,0,0-.13-3.635.576.576,0,0,1-.049-.358A6.254,6.254,0,0,1,5.63,23.616C4.949,21.376,4.121,17.417,3.546,14.491Zm20.34,2.175c-.277.141-.549.272-.812.4l-.417.2a50.445,50.445,0,0,0,.466,7.872,6.17,6.17,0,0,1-.534,5.183h3.725c-.424-1.919-1.306-6.606-.349-8.639A12.459,12.459,0,0,0,25,20.736a.484.484,0,0,1-.183-.282l-.936-3.788Zm15.5,1.616a1.7,1.7,0,0,0-1.288.585,1.811,1.811,0,0,0-.637,1.831,1.513,1.513,0,0,0,.639,1,1.56,1.56,0,0,0,1.177.241,3.4,3.4,0,0,0,2.623-3.29c0-1.464-.946-5.119-5.454-14.22a3.991,3.991,0,0,0-1.768-1.345,11.922,11.922,0,0,1-.553,5.8,7.317,7.317,0,0,0-.425,3.148,10.392,10.392,0,0,1,4.647,1.7,5.5,5.5,0,0,1,2.451,4.838v.076a3.007,3.007,0,0,1-.29,1.472,1.662,1.662,0,0,1-1.363,1.305.958.958,0,0,1-.126.008.938.938,0,0,1-.855-.546,1.575,1.575,0,0,1,.591-1.523.572.572,0,0,1,.782,0,.332.332,0,0,0,.041.038,4.311,4.311,0,0,0,.1-.614l0-.029c.005-.062.012-.138.012-.215a.27.27,0,0,0-.131-.256A1.728,1.728,0,0,0,39.381,18.282ZM28.64,10.17c1.2,0,2.6,1.243,4.16,3.693a10.137,10.137,0,0,1,.333-5.478c.813-1.646.527-4.612.366-5.811A21.659,21.659,0,0,0,26.62,1.084a3.642,3.642,0,0,0-1.567.26,10.255,10.255,0,0,0-1.251.794c-.668,3.6-.063,6.524,1.619,7.82a2.3,2.3,0,0,0,2.447.4A1.709,1.709,0,0,1,28.64,10.17Z" transform="translate(1)" fill="#ec5149"/>
  </g>
</svg>
