<svg xmlns="http://www.w3.org/2000/svg" width="47" height="43" viewBox="0 0 47 43">
  <g id="individuality" transform="translate(-1.001 0.299)">
    <path id="Shape" d="M23.419,43h0A.732.732,0,0,1,23,42.866l-6.788-4.634a.72.72,0,0,1-.311-.507.737.737,0,0,1,.184-.573l3.578-3.909a.713.713,0,0,1,.518-.229c2.735-.082,3.853-1.1,3.971-1.212L36.012,19.512A.57.57,0,0,0,36.166,19a.474.474,0,0,0-.247-.315.611.611,0,0,0-.222-.054c-.139,0-.321.073-.759.427L29.2,23.659a.739.739,0,0,1-1-.076.723.723,0,0,1,.018-.994l7.319-7.415a1.427,1.427,0,0,0,.576-.888.675.675,0,0,0-.676-.644l-.062,0a1.88,1.88,0,0,0-1.313.66L27.2,20.277a.731.731,0,0,1-1.012-.044.72.72,0,0,1,.011-1.007l8.122-8.218a.982.982,0,0,0,.436-.851.756.756,0,0,0-.739-.612h-.034a1.388,1.388,0,0,0-1.091.526l-8.512,8.094a.73.73,0,0,1-1.015,0,.719.719,0,0,1-.024-1.01l5.74-6.183a1.831,1.831,0,0,0,.647-1.05.521.521,0,0,0-.118-.488.785.785,0,0,0-.559-.23h-.039a1.927,1.927,0,0,0-1.227.736L19.64,17.582A11.823,11.823,0,0,1,18,19.121a.738.738,0,0,1-1-.1.711.711,0,0,1,.05-.994L18.577,16.6c.938-1.12,1.2-2.168.757-3.029H19.26l-2.974,2.819a7.556,7.556,0,0,1-.8.65c-4.98,3.6-3.107,9.213-3.025,9.45a.723.723,0,0,1-.17.756l-3.21,3.181a.731.731,0,0,1-1.006.02,31.437,31.437,0,0,1-3.288-3.45C.151,21.29-2.239,12.421,2.864,5.466A12.2,12.2,0,0,1,13.171.222a23.025,23.025,0,0,1,10.5,2.97C26.2.839,30.061,0,32.824,0A13.11,13.11,0,0,1,34.26.077c5.752.62,10.3,4.671,12.154,10.836,2.04,6.761-1.262,14.456-9.55,22.255A77.373,77.373,0,0,1,23.781,42.9.811.811,0,0,1,23.419,43ZM35.667,17.188a2.063,2.063,0,0,1,.741.136,1.933,1.933,0,0,1,1.158,1.309,1.981,1.981,0,0,1-.485,1.844l-11.859,12.3c-.052.061-1.325,1.487-4.688,1.663l-2.806,3.076,5.721,3.909a74.446,74.446,0,0,0,13.6-10.492c7.071-7.077,9.75-13.674,7.961-19.608C43.305,5.651,39.326,2.074,34.1,1.509a12.053,12.053,0,0,0-1.32-.07c-2.66,0-6.279.827-8.459,3.147a.738.738,0,0,1-.925.124,22.822,22.822,0,0,0-7.2-2.771,16.17,16.17,0,0,0-3.016-.3A10.843,10.843,0,0,0,4.031,6.316c-4.65,6.336-2.408,14.5,1.877,19.77a29.468,29.468,0,0,0,2.628,2.829l2.408-2.39a9.79,9.79,0,0,1,3.671-10.654,6.714,6.714,0,0,0,.656-.526l2.974-2.819a1.548,1.548,0,0,1,1.3-.392,1.473,1.473,0,0,1,1.074.774,3.39,3.39,0,0,1,.371,1.414L26.774,8.9a3.273,3.273,0,0,1,2.111-1.127c.061-.005.123-.008.184-.008a2.231,2.231,0,0,1,1.6.685,1.9,1.9,0,0,1,.517,1.243l.69-.66A2.882,2.882,0,0,1,34,8.1h.078a2.174,2.174,0,0,1,2.131,1.959,2.438,2.438,0,0,1-.848,1.958l-.184.182h.192l.091,0a2.1,2.1,0,0,1,2.1,2.038,2.611,2.611,0,0,1-.978,1.93L35.573,17.19l.017,0h.076Z" transform="translate(1 -0.299)" fill="#ec5149"/>
  </g>
</svg>
