<svg id="lint-free" xmlns="http://www.w3.org/2000/svg" width="34" height="34.001" viewBox="0 0 34 34.001">
  <path id="Shape" d="M29.6,34h-.83V31.816H27.518V34h-.83V31.816H25.441V34h-.831V31.816H23.363V34h-.832V31.816h-.968V34h-.831V31.816H19.486V34h-.831V31.816H17.408V34h-.83V31.816H15.332V34H14.5V31.816H13.253V34h-.831V31.816H11.187V34h-.832V31.816H9.11V34H8.279V31.816H7.033V34H6.2V31.816H4.954V34H4.123V31.816H2.877V34H2.04V31.816H0v-.823H2.04V29.737H0v-.823H2.04V27.658H0v-.824H2.04V25.592H0v-.837H2.04V23.513H0v-.837H2.04v-.968H0v-.837H2.04V19.628H0V18.8H2.04V17.549H0v-.823H2.04V15.47H0v-.824H2.04V13.4H0v-.837H2.04V11.325H0v-.837H2.04V9.246H0V8.409H2.04V7.166H0V6.329H2.04V5.087H0V4.263H2.04V3.008H0V2.183H2.045V0h.832V2.183H4.119V0h.823V2.183H6.19V0h.832V2.183H8.271V0H9.1V2.183h1.242V0h.833V2.183h1.246V0h.839V2.183h1.246V0h.833V2.183h1.245V0h.83V2.183h1.248V0h.83V2.183h1.247V0h.831V2.183h.97V0h.83V2.183h1.247V0h.831V2.183h1.245V0h.831V2.183h1.247V0H29.6V2.183H30.85V0h.83V2.183H34v.824H31.68V4.263H34v.824H31.68V6.329H34v.837H31.68V8.409H34v.837H31.68v1.242H34v.837H31.68v1.242H34V13.4H31.68v1.243H34v.824H31.68v1.255H34v.823H31.68V18.8H34v.823H31.68v1.243H34v.837H31.68v.968H34v.837H31.68v1.242H34v.837H31.68v1.242H34v.824H31.68v1.255H34v.823H31.68v1.256H34v.823H31.676V34h-.831V31.816H29.6V34ZM2.87,29.737v1.256H4.117V29.737Zm26.728,0v1.256h1.247V29.737Zm-2.078,0v1.256h1.249V29.737Zm-2.076,0v1.256H26.69V29.737Zm-2.076,0v1.256h1.246V29.737Zm-1.8,0v1.256h.97V29.737Zm-2.074,0v1.256h1.245V29.737Zm-2.079,0v1.256H18.66V29.737Zm-2.075,0v1.256h1.245V29.737Zm-2.081,0v1.256H14.5V29.737Zm-2.075,0v1.256h1.242V29.737Zm-2.08,0v1.256h1.247V29.737Zm-2.074,0v1.256H8.271V29.737Zm-2.08,0v1.256H6.193V29.737ZM29.6,27.658v1.255h1.247V27.658Zm-2.076,0v1.255h1.247V27.658Zm-2.082,0h0v1.254h1.246V27.658Zm-2.078,0v1.255h1.246V27.658Zm-1.8,0v1.255h.97V27.658Zm-2.076,0h0v1.255h1.246V27.658H19.486Zm-2.08,0h0v1.255h1.249V27.658H17.406Zm-2.075,0h0v1.255h1.246V27.658H15.331Zm-2.076,0h0v1.254H14.5V27.658Zm-2.08,0h0v1.255h1.247V27.658H11.174Zm-2.073,0v1.255h1.242V27.658Zm-2.082,0v1.255H8.266V27.658Zm-2.078,0v1.255H6.187V27.658Zm-2.065,0v1.255H4.117V27.658Zm24.638-2.066v1.242h1.255V25.592Zm2.083,0v1.242h1.247V25.592Zm-4.157,0,0,0v1.24h1.245V25.592Zm-2.079,0v1.242H24.61V25.592Zm-1.8,0v1.242h.97V25.592Zm-2.076,0h0v1.241h1.247V25.592H19.487Zm-2.079,0h0v1.241h1.248V25.592H17.408Zm-2.075,0h0v1.241h1.247V25.592H15.332Zm-2.076,0,0,0v1.24H14.5V25.592Zm-2.08,0h0v1.241h1.247V25.592H11.176Zm-2.073,0v1.241h1.244V25.592H9.1l0,0H9.1Zm-2.082,0v1.242H8.267V25.592Zm-2.079,0v1.242H6.187V25.592Zm-2.065,0v1.242H4.117V25.592Zm24.638-2.079v1.242h1.255V23.513Zm2.083,0v1.242h1.247V23.513Zm-4.159,0v1.242h1.247V23.513Zm-2.075,0v1.242h1.246V23.513Zm-1.8,0v1.242h.97V23.513Zm-2.076,0h0v1.241h1.247V23.513H19.488Zm-2.079,0h0v1.241h1.249V23.513H17.409Zm-2.075,0h0v1.241h1.247V23.513H15.333Zm-2.076,0h0v1.241H14.5V23.513Zm-2.08,0h0v1.241h1.247V23.513H11.177Zm-2.077,0v1.242h1.246V23.513Zm-2.079,0v1.242H8.267V23.513Zm-2.079,0v1.242H6.187V23.513Zm-2.065,0v1.242H4.117V23.513Zm24.638-1.8v.968h1.255v-.968Zm2.083,0v.968h1.247v-.968Zm-4.159,0v.968h1.247v-.968Zm-2.075,0v.968h1.246v-.968Zm-1.8,0v.968h.97v-.968Zm-2.076,0h0v.967h1.247v-.968H19.489Zm-2.079,0h0v.967h1.248v-.968H17.41Zm-2.075,0h0v.967H16.58v-.968H15.335Zm-2.077,0h0v.966H14.5v-.968Zm-2.077,0v.968h1.245v-.968Zm-2.081,0v.968h1.246v-.968Zm-2.079,0v.968H8.267v-.968Zm-2.079,0v.968H6.187v-.968Zm-2.065,0v.968H4.117v-.968Zm24.638-2.08v1.243h1.255V19.628Zm2.083,0v1.243h1.247V19.628Zm-4.159,0v1.243h1.247V19.628Zm-2.075,0v1.243h1.246V19.628Zm-1.8,0v1.243h.97V19.628Zm-2.075,0h0v1.242h1.247V19.628H19.49Zm-2.079,0h0v1.242H18.66V19.628H17.411Zm-2.076,0v1.243h1.246V19.628Zm-2.078,0v1.243H14.5V19.628Zm-2.076,0v1.243h1.245V19.628Zm-2.081,0v1.243h1.246V19.628Zm-2.079,0v1.243H8.267V19.628Zm-2.079,0v1.243H6.187V19.628Zm-2.065,0v1.243H4.117V19.628Zm24.638-2.079V18.8h1.255V17.549Zm2.083,0V18.8h1.247V17.549Zm-4.159,0V18.8h1.247V17.549Zm-2.075,0V18.8h1.246V17.549Zm-1.8,0V18.8h.97V17.549Zm-2.073,0V18.8h1.245V17.549Zm-2.081,0h0V18.8H18.66V17.549H17.411Zm-2.076,0V18.8h1.246V17.549Zm-2.078,0V18.8H14.5V17.549Zm-2.076,0V18.8h1.245V17.549Zm-2.081,0V18.8h1.246V17.549Zm-2.079,0V18.8H8.267V17.549Zm-2.079,0V18.8H6.187V17.549Zm-2.065,0V18.8H4.117V17.549ZM27.515,15.47v1.255h1.255V15.47Zm2.083,0v1.255h1.247V15.47Zm-4.159,0v1.255h1.247V15.47Zm-2.075,0v1.255h1.246V15.47Zm-1.8,0v1.255h.97V15.47Zm-2.073,0v1.255h1.245V15.47Zm-2.079,0v1.255H18.66V15.47Zm-2.078,0v1.255h1.246V15.47Zm-2.078,0v1.255H14.5V15.47Zm-2.076,0v1.255h1.245V15.47Zm-2.081,0v1.255h1.246V15.47Zm-2.079,0v1.255H8.267V15.47Zm-2.079,0v1.255H6.187V15.47Zm-2.065,0v1.255H4.117V15.47ZM27.515,13.4v1.243h1.255V13.4Zm2.083,0v1.243h1.247V13.4Zm-4.159,0v1.243h1.247V13.4Zm-2.075,0v1.243h1.246V13.4Zm-1.8,0v1.243h.97V13.4Zm-2.073,0v1.243h1.245V13.4Zm-2.079,0v1.243H18.66V13.4Zm-2.078,0v1.243h1.246V13.4Zm-2.078,0v1.243H14.5V13.4Zm-2.076,0v1.243h1.245V13.4ZM9.1,13.4v1.243h1.246V13.4Zm-2.079,0v1.243H8.267V13.4Zm-2.079,0v1.243H6.187V13.4Zm-2.065,0v1.243H4.117V13.4Zm24.638-2.079v1.242h1.255V11.325Zm2.083,0v1.242h1.247V11.325Zm-4.159,0v1.242h1.247V11.325Zm-2.075,0v1.242h1.246V11.325Zm-1.8,0v1.242h.97V11.325Zm-2.073,0v1.242h1.245V11.325Zm-2.082,0v1.242h1.247V11.325Zm-2.076,0v1.242H16.58V11.325Zm-2.078,0v1.242H14.5l0-1.242Zm-2.075,0v1.242h1.242V11.325Zm-2.081,0v1.242h1.246V11.325Zm-2.079,0v1.242H8.267V11.325Zm-2.079,0v1.242H6.187V11.325Zm-2.065,0v1.242H4.117V11.325ZM27.515,9.246v1.242h1.255V9.246Zm2.083,0v1.242h1.247V9.246Zm-4.159,0v1.242h1.247V9.246Zm-2.075,0v1.242h1.246V9.246Zm-1.8,0v1.242h.97V9.246Zm-2.076,0v1.242h1.247V9.246Zm-2.079,0v1.242h1.247V9.246Zm-2.077,0v1.242h1.247V9.246Zm-2.077,0v1.242H14.5V9.246Zm-2.075,0v1.242h1.242V9.246Zm-2.081,0v1.242h1.246l0-1.242Zm-2.079,0v1.242H8.267V9.246Zm-2.079,0v1.242H6.187V9.246Zm-2.065,0v1.242H4.117V9.246Zm24.638-2.08V8.409h1.255V7.166Zm2.083,0V8.409h1.247V7.166Zm-4.159,0V8.409h1.247V7.166Zm-2.075,0V8.409h1.246V7.166Zm-1.8,0V8.409h.97V7.166Zm-2.076,0V8.409h1.247V7.166Zm-2.079,0V8.409h1.247V7.166Zm-2.077,0V8.409h1.246V7.166Zm-2.077,0V8.409H14.5V7.166Zm-2.072,0V8.409h1.241V7.166Zm-2.083,0V8.409h1.246l0-1.243Zm-2.076,0V8.409H8.267V7.166Zm-2.079,0V8.409H6.187V7.166Zm-2.065,0V8.409H4.117V7.166ZM27.515,5.087V6.329h1.255V5.087Zm2.083,0V6.329h1.247V5.087Zm-4.159,0V6.329h1.247V5.087Zm-2.076,0V6.329H24.61V5.087Zm-1.8,0V6.329h.968V5.087Zm-2.077,0V6.329h1.246V5.087Zm-2.08,0V6.329h1.247V5.087Zm-2.076,0V6.329h1.246V5.087Zm-2.078,0V6.329H14.5l0-1.242Zm-2.07,0V6.329h1.24l0-1.242Zm-2.084,0V6.329h1.245l0-1.242Zm-2.076,0V6.329H8.266V5.087Zm-2.078,0V6.329H6.187l0-1.242Zm-2.065,0V6.329H4.117V5.087ZM29.6,3.008V4.263h1.247V3.008Zm-2.076,0V4.263h1.247V3.008Zm-2.077,0V4.263H26.69V3.008Zm-2.076,0V4.263h1.247V3.008Zm-1.8,0V4.263h.968V3.008Zm-2.078,0V4.263h1.247V3.008Zm-2.079,0V4.263H18.66V3.008Zm-2.076,0V4.263H16.58V3.008Zm-2.078,0V4.263H14.5V3.008Zm-2.075,0V4.263h1.245V3.008Zm-2.079,0V4.263h1.245V3.008Zm-2.077,0V4.263H8.271V3.008Zm-2.077,0V4.263H6.192V3.008Zm-2.07,0V4.263H4.117V3.008Z" fill="#ed5e57"/>
</svg>
