<svg width="194" height="45" viewBox="0 0 194 45" fill="none" xmlns="http://www.w3.org/2000/svg">
<path fill-rule="evenodd" clip-rule="evenodd" d="M43.3013 18.391V29.9595C43.3013 37.4247 37.2074 43.5056 29.7262 43.5056H13.7731C6.24236 43.5056 0.148438 37.4247 0.148438 29.9595V18.391H9.6609V29.9595C9.6609 33.4697 12.5345 36.3371 16.0521 36.3371H27.3977C30.9153 36.3371 33.7889 33.4697 33.7889 29.9595V18.391H43.3013V18.391ZM18.6281 14.782H24.8706C25.8615 14.782 26.7037 15.573 26.7037 16.6112V27.3393C26.7037 28.3281 25.911 29.1685 24.8706 29.1685C22.7898 29.1685 20.7089 29.1685 18.6281 29.1685C17.6372 29.1685 16.7949 28.3775 16.7949 27.3393C16.7949 23.7798 16.7949 20.1708 16.7949 16.6112C16.7949 15.6225 17.6372 14.782 18.6281 14.782V14.782Z" fill="white"/>
<path fill-rule="evenodd" clip-rule="evenodd" d="M33.8389 1.08764C38.4465 2.57079 42.0136 6.42697 43.0541 11.2225H33.8389V1.08764V1.08764ZM13.7736 0.444944H26.7046V7.61348H16.0527C13.5259 7.61348 11.346 9.09663 10.3056 11.2225H0.446289C1.73443 5.09213 7.23383 0.444944 13.7736 0.444944V0.444944Z" fill="white"/>
<path fill-rule="evenodd" clip-rule="evenodd" d="M155.866 14.4854C160.474 14.4854 163 16.018 163 21.8022C163 27.6854 160.522 29.4157 155.866 29.4157C151.209 29.4157 148.731 27.6854 148.731 21.8022C148.731 16.018 151.209 14.4854 155.866 14.4854ZM107.164 14.8315V29.1191H113.654C118.262 29.1191 120.541 27.4382 120.541 21.8517C120.541 16.2652 118.312 14.782 113.654 14.782H107.164V14.8315ZM130.202 25.6584C128.022 25.6584 127.279 25.4607 127.081 23.4831V23.4337H132.977V20.0719H127.131C127.378 18.391 128.171 18.2427 130.202 18.2427H134.463V14.782H129.707C125.05 14.782 122.82 16.2652 122.82 21.8517C122.82 27.4382 125.1 29.1191 129.707 29.1191H134.463V25.6584H130.202ZM136.94 14.8315V21.9011C136.94 27.4382 139.17 29.1191 143.827 29.1191H146.998V25.6584H144.322C141.696 25.6584 141.151 25.3124 141.151 21.9506V14.8315H136.94ZM113.208 25.6584C115.834 25.6584 116.379 25.3124 116.379 21.9506C116.379 18.5393 115.784 18.2921 113.208 18.2921H111.177V25.6584H113.208ZM158.789 21.8022C158.789 25.4607 158.492 25.8067 155.866 25.8067C153.191 25.8067 152.894 25.4607 152.943 21.8022C152.943 18.391 153.191 18.0944 155.866 18.0944C158.492 18.0944 158.789 18.391 158.789 21.8022Z" fill="white"/>
<path fill-rule="evenodd" clip-rule="evenodd" d="M82.4902 23.4831C82.6885 25.4607 83.4316 25.6584 85.6113 25.6584H89.8721V29.1191H85.1162C80.5088 29.1191 78.2295 27.4382 78.2295 21.8517C78.2295 16.2652 80.459 14.782 85.1162 14.782H89.8721V18.2427H85.6113C83.5801 18.2427 82.7871 18.391 82.54 20.0719H88.3857V23.4337H82.4902V23.4831ZM64.4072 29.1191C59.7998 29.1191 57.5205 27.4382 57.5205 21.8517V14.8315H61.7314V21.9506C61.7314 25.2629 62.2764 25.6584 64.8037 25.6584V14.8315H68.7178V25.6584C71.2939 25.6584 71.8389 25.2629 71.8389 21.9506V14.8315H76.0498V21.9011C76.0498 27.4876 73.8203 29.1685 69.1631 29.1685C67.6279 29.1191 66.042 29.1191 64.4072 29.1191ZM99.6328 18.1438H96.2637V20.1708H99.6328C99.9795 20.1708 100.228 20.0719 100.228 19.182C100.228 18.3416 99.9795 18.1438 99.6328 18.1438ZM96.2637 25.7573V23.3348H99.6328C100.128 23.3348 100.475 23.582 100.475 24.5708C100.475 25.5101 100.178 25.7573 99.7314 25.7573H96.2637ZM104.488 18.2921C104.488 20.3191 103.943 21.4562 101.366 21.6539C104.092 21.8022 104.687 22.9888 104.735 25.3124C104.735 28.2292 103.2 29.1191 100.871 29.1191H92.3496V14.8315H100.871C103.745 14.8315 104.488 15.8697 104.488 18.2921Z" fill="white"/>
<path fill-rule="evenodd" clip-rule="evenodd" d="M109.542 34.2112C110.235 34.2112 110.93 34.3101 111.326 34.4584L110.979 35.6449L110.78 35.6149C110.451 35.5636 110.022 35.4966 109.492 35.4966C108.749 35.4966 108.65 35.6449 108.65 35.8427C108.65 36.1393 108.749 36.1888 109.642 36.2876C110.83 36.436 111.375 36.9303 111.375 37.9191C111.375 39.3034 110.731 39.6989 108.997 39.6989C108.304 39.6989 107.659 39.6 107.214 39.4517L107.511 38.2157L107.686 38.2416C108.026 38.2934 108.494 38.364 108.997 38.364C109.74 38.364 109.84 38.2652 109.84 38.018C109.84 37.7708 109.74 37.6719 108.749 37.573C107.659 37.4247 107.164 37.0787 107.164 36.0899C107.164 34.7551 107.857 34.2112 109.542 34.2112ZM117.073 35.5955V39.6H115.637V35.5955H113.902V34.3101H118.808V35.5955H117.073ZM124.702 34.3596H126.139V38.2652C126.139 39.4022 125.198 39.7483 123.86 39.7483C122.473 39.7483 121.581 39.4517 121.581 38.2652V34.3596H123.018V37.9191C123.018 38.2157 123.216 38.364 123.86 38.364C124.504 38.364 124.702 38.2157 124.702 37.9191V34.3596ZM129.211 39.6V34.3596H131.589C133.273 34.3596 134.116 34.9034 134.116 36.9303C134.116 39.0067 133.273 39.6 131.589 39.6H129.211ZM132.581 36.9798C132.581 38.2157 132.383 38.364 131.392 38.364H130.648V35.5955H131.392C132.383 35.5955 132.581 35.6944 132.581 36.9798ZM136.989 39.6H138.426V34.3596H136.989V39.6ZM144.372 34.2112C146.057 34.2112 146.998 34.7551 146.998 36.8809C146.998 39.0562 146.106 39.6989 144.372 39.6989C142.688 39.6989 141.746 39.0562 141.746 36.8809C141.746 34.7551 142.638 34.2112 144.372 34.2112ZM145.461 36.8809C145.461 38.2157 145.362 38.364 144.371 38.364C143.38 38.364 143.281 38.2652 143.281 36.8809C143.281 35.5955 143.38 35.4966 144.371 35.4966C145.362 35.4966 145.461 35.6449 145.461 36.8809Z" fill="white"/>
<path d="M192.5 6.5V43.554" stroke="white" stroke-linecap="square"/>
</svg>
