<svg width="141" height="46" viewBox="0 0 141 46" fill="none" xmlns="http://www.w3.org/2000/svg">
<path fill-rule="evenodd" clip-rule="evenodd" d="M90.6934 0.123674L91.4297 0.0353355C91.9482 -0.0235558 94.0322 0.0117779 94.8037 0.0883389C98.0967 0.435802 101.177 1.66665 103.567 3.59242C104.115 4.03411 105.534 5.41219 105.534 5.50642C105.534 5.53586 105.187 5.8951 104.763 6.29557C104.05 6.97283 103.979 7.02583 103.768 7.02583C103.567 7.02583 103.485 6.97283 103.078 6.60181C101.871 5.48286 100.806 4.73493 99.498 4.08712C98.1846 3.43341 96.8887 3.04472 95.2578 2.81504C94.4219 2.69726 92.0479 2.71493 91.2588 2.84449C88.1377 3.36863 86.0117 4.9705 85.54 7.14951C85.3994 7.77965 85.4404 9.00461 85.6172 9.49931C86.0586 10.7243 86.9131 11.5723 88.4854 12.3438C89.8398 13.0093 91.1533 13.4156 93.9678 14.0458C94.9336 14.2637 96.0586 14.5346 96.4648 14.6406C100.835 15.8302 103.644 17.5263 105.004 19.7936C105.935 21.3366 106.253 23.2565 105.917 25.2353C105.246 29.1339 102.112 31.7841 97.2891 32.5438C96.459 32.6734 93.9912 32.7205 93.002 32.6321C90.4111 32.3848 87.8604 31.5662 85.7646 30.2941C84.6221 29.5992 83.1787 28.4272 82.3838 27.538L82.0713 27.1964L82.8428 26.4367C83.5791 25.7123 83.627 25.677 83.8564 25.677C84.0742 25.677 84.1445 25.7241 84.6514 26.1834C87.1074 28.4155 89.4863 29.5344 92.5078 29.8878C93.4619 29.9997 95.2402 29.9997 96.082 29.8878C99.3037 29.4579 101.595 27.8148 102.095 25.571C102.23 24.9644 102.184 23.6746 102.013 23.1858C101.353 21.3543 99.5742 20.1823 95.9404 19.1988C95.4639 19.0693 94.4219 18.816 93.6084 18.6394C89.6221 17.7501 87.2539 16.8903 85.3281 15.6123C82.8076 13.9457 81.6006 11.8079 81.6064 9.0105C81.6064 7.5382 81.9014 6.27201 82.5137 5.07061C83.2969 3.53353 84.7871 2.13778 86.5479 1.28974C87.6787 0.742041 89.3389 0.276794 90.6934 0.123674ZM41.6367 32.9737V16.7136V0.45347L42.4199 0.488806C42.8438 0.512362 43.3564 0.571255 43.5508 0.618368C44.0693 0.75971 44.6816 1.07184 45.0645 1.39574C45.2471 1.54886 50.4648 7.30852 56.666 14.1871L67.9316 26.6958L67.9502 13.5805L67.9619 0.45936L69.1455 0.482916L70.3291 0.500584L70.5 0.694927L70.6709 0.883383V33.3506L69.8633 33.3153C68.7148 33.2682 68.1201 33.0856 67.3848 32.5379C67.1426 32.3612 63.5449 28.3801 55.7061 19.6052L44.375 6.92572L44.3457 20.1117L44.3164 33.3035H41.9189L41.7783 33.1386L41.6367 32.9737ZM111.13 0.500584C111.13 0.518251 113.951 5.08828 117.402 10.6536L123.674 20.7713V33.333H125.446C126.678 33.333 127.296 33.3094 127.467 33.2623C127.796 33.1622 128.114 32.8265 128.197 32.4908C128.25 32.2965 128.268 30.6298 128.268 26.4602V20.7006L134.569 10.6124C138.038 5.06473 140.87 0.512363 140.87 0.494696C140.87 0.441692 138.65 0.477028 138.427 0.535919C138.297 0.571255 138.108 0.659594 138.008 0.736153C137.891 0.830379 136.035 3.78677 132.502 9.5052C129.575 14.2519 127.166 18.1388 127.148 18.1388C127.131 18.1329 124.852 14.4698 122.084 9.99989L121.755 9.46865L121.731 9.43129L121.711 9.39589L121.682 9.35031L121.667 9.32544C117.152 2.03072 116.741 1.36843 116.145 1.02606C116.085 0.991547 116.022 0.960281 115.955 0.9258L115.895 0.895161C115.182 0.535919 115.052 0.512363 113.003 0.488806C111.972 0.471138 111.13 0.477028 111.13 0.500584ZM8.23926 17.1553C12.7676 8.28613 16.5312 0.912828 16.6016 0.771486C16.6787 0.630146 16.7549 0.541807 16.7842 0.565365C16.8311 0.624256 33.5684 33.2682 33.5684 33.3153C33.5684 33.333 32.7266 33.333 31.7012 33.3212C29.8643 33.2976 29.8232 33.2917 29.3994 33.1445C28.8281 32.9384 28.4688 32.6969 28.0205 32.2258C27.6738 31.8548 27.5322 31.5956 25.7949 28.1976L23.9395 24.5639H15.5479L7.15527 24.558L5.09375 28.6334C2.89746 32.9737 2.79785 33.1386 2.32617 33.2682C2.10254 33.3271 0 33.3624 0 33.3035C0 33.2917 3.7041 26.0244 8.23926 17.1553ZM19.1172 15.1647C21.0547 18.9515 22.6504 22.0846 22.6621 22.1258C22.6797 22.1906 21.3486 22.2023 15.5479 22.2023C9.45312 22.2023 8.41602 22.1906 8.43359 22.1199C8.47461 21.9314 15.5186 8.1919 15.5537 8.23312C15.5713 8.25668 17.1797 11.3721 19.1172 15.1647ZM28.4092 45.2409L29.5928 42.5025L30.582 40.2174L30.8535 40.2351L31.124 40.2528L32.2549 42.8735L32.3584 43.112C32.9365 44.449 33.4102 45.5446 33.4268 45.6002C33.4561 45.6944 33.4268 45.7062 33.0908 45.6885L32.7256 45.6709L32.4434 45.023L32.1602 44.3752L30.8477 44.3576L29.5342 44.3458L29.2393 45.023L28.9512 45.7003H28.2148L28.4092 45.2409ZM31.3311 42.4612C31.5898 43.056 31.8018 43.5684 31.8018 43.592C31.8018 43.6155 31.3604 43.6391 30.8242 43.6391C29.917 43.6391 29.8467 43.6332 29.8818 43.5331C29.9639 43.3093 30.8301 41.3541 30.8418 41.3658C30.8477 41.3717 31.0713 41.8664 31.3311 42.4612ZM99.7461 44.0042L100.924 41.2657L101.371 40.2233H101.913L103.079 42.9206C103.715 44.3988 104.239 45.6355 104.239 45.6591C104.239 45.6826 104.08 45.7003 103.88 45.6885L103.526 45.6709L103.244 45.023L102.962 44.3752L101.643 44.3634L100.323 44.3458L100.034 45.023L99.752 45.7003H99.0098L99.7461 44.0042ZM102.16 42.5201L102.638 43.6391H101.637C100.859 43.6391 100.642 43.6214 100.665 43.5625C100.871 43.0502 101.613 41.4012 101.643 41.4012C101.66 41.4012 101.896 41.9077 102.16 42.5201ZM36.3955 45.7003V42.9854V40.2704L37.7383 40.294C38.9336 40.3176 39.1104 40.3352 39.4053 40.4471C40.0234 40.6886 40.3652 41.2304 40.3594 41.9606C40.3535 42.6144 40.0645 43.1385 39.5518 43.433C39.458 43.486 39.4932 43.592 39.9521 44.5755L40.2256 45.1646L40.4141 45.5773C40.4434 45.642 40.459 45.6795 40.459 45.6826C40.459 45.6847 40.4375 45.6876 40.4004 45.6904L40.292 45.6963L40.0879 45.7003H39.7109L39.2402 44.6815L38.7686 43.6685L37.9385 43.6509L37.1025 43.6332V45.7003H36.3955ZM39.2158 41.1362C39.5518 41.3364 39.6631 41.5366 39.6631 41.9489C39.6572 42.4023 39.5225 42.6556 39.1924 42.8146C38.9805 42.9147 38.8271 42.9324 38.0264 42.9324H37.1016V40.9772L38.0615 41.0007C38.8857 41.0184 39.0449 41.036 39.2158 41.1362ZM43.6387 45.7003V42.9854V40.2704L44.9814 40.294C46.4482 40.3293 46.6719 40.3706 47.0664 40.6945C47.1836 40.7946 47.3545 41.0243 47.4434 41.2009C47.7549 41.8429 47.6201 42.7027 47.125 43.1856C46.7715 43.5331 46.5127 43.5979 45.3643 43.6273L44.3457 43.6509V45.7003H43.6387ZM46.46 41.1362C46.8018 41.3364 46.9072 41.5366 46.9072 41.9607C46.9072 42.367 46.8193 42.5437 46.501 42.7793C46.3535 42.8912 46.2422 42.9029 45.3408 42.9206L44.3457 42.9383V40.9772L45.3057 41.0007C46.1299 41.0184 46.2891 41.036 46.46 41.1362ZM75.5938 43.0207C75.5938 41.6014 76.2178 40.6886 77.4014 40.3706C77.9844 40.2174 78.7861 40.2999 79.333 40.5826C80.0928 40.9713 80.5645 41.8959 80.5645 43.0207C80.5645 43.8864 80.3047 44.6049 79.8281 45.0819C78.9209 45.9948 77.166 45.9771 76.3008 45.0525C75.8057 44.5284 75.5938 43.9159 75.5938 43.0207ZM78.9746 41.201C79.5752 41.5249 79.8516 42.0961 79.8574 43.0089C79.8643 44.281 79.2988 44.9759 78.209 45.0407C77.3672 45.0878 76.8428 44.811 76.501 44.1456C76.3008 43.7451 76.2949 43.7274 76.2949 43.0266C76.2949 42.1844 76.4014 41.8782 76.8252 41.4601C77.1787 41.1126 77.5732 40.983 78.1797 41.0066C78.5684 41.0243 78.71 41.0537 78.9746 41.201ZM83.8623 45.7003V42.9913V40.2822H84.4336L85.5527 41.6367L86.6777 42.9913L87.6963 41.7722L88.8096 40.4471C88.8564 40.3941 89.0332 40.3352 89.21 40.3117L89.5156 40.2704V45.7003H88.8682V43.6096C88.8682 42.4612 88.8506 41.519 88.8271 41.519C88.8193 41.5205 88.7812 41.5589 88.7197 41.6268L88.4688 41.9117C88.2705 42.1407 88.0078 42.4511 87.7256 42.791C86.707 44.016 86.666 44.0572 86.5771 43.9453C86.5439 43.9012 86.3447 43.657 86.0703 43.322L85.5117 42.6438L84.54 41.466L84.5215 43.5861L84.5098 45.7003H83.8623ZM93.0498 42.9854V45.7003H93.6973V43.6509L94.7461 43.6214C95.9238 43.592 96.1182 43.5449 96.4951 43.2151C97.1426 42.6438 97.1719 41.4012 96.5537 40.7828C96.1533 40.3764 95.9297 40.3293 94.3926 40.294L93.0498 40.2704V42.9854ZM95.918 42.7793C96.4707 42.367 96.4473 41.4719 95.876 41.1362C95.6934 41.036 95.5469 41.0184 94.6865 41.0007L93.6973 40.9772V42.9383L94.7217 42.9206C95.6582 42.9029 95.7646 42.8912 95.918 42.7793ZM107.225 40.3234C107.201 40.3411 107.184 41.5602 107.184 43.0325V45.7003H107.891L107.902 43.6037L107.92 41.5013L109.657 43.5979L111.395 45.7003H112.013V40.2763L111.677 40.294L111.336 40.3117L111.306 42.4082L111.276 44.5107L109.521 42.3965L107.767 40.2822H107.514C107.378 40.2822 107.242 40.2999 107.225 40.3234ZM115.883 41.89C115.287 41.0891 114.781 40.3941 114.758 40.3529C114.729 40.2999 114.811 40.2822 115.129 40.2822H115.541L116.377 41.4306C116.836 42.0667 117.237 42.5967 117.261 42.6085C117.284 42.6261 117.679 42.1197 118.144 41.4836C118.604 40.8476 119.01 40.3176 119.051 40.3058C119.092 40.2881 119.286 40.2822 119.48 40.294L119.846 40.3117L118.727 41.8252L117.607 43.3387V45.7003H116.96V43.3505L115.883 41.89ZM22.6318 40.4589C22.1963 40.6003 21.8369 40.8594 21.543 41.254C21.2305 41.6721 21.083 42.1432 21.042 42.844C20.9951 43.804 21.2305 44.5578 21.7607 45.0819C22.4727 45.8004 23.751 45.9653 24.7285 45.4706C24.9756 45.3411 25.4004 44.9524 25.6064 44.652L25.7471 44.4636L25.4297 44.3222L25.1172 44.1809L25 44.334C24.6465 44.811 24.1514 45.0525 23.5332 45.0525C22.7734 45.0525 22.2314 44.7463 21.9375 44.1456C21.5312 43.3093 21.6719 42.0549 22.2314 41.4895C22.5615 41.1656 22.9268 41.0302 23.498 41.0243C24.0811 41.0243 24.4521 41.1538 24.8057 41.5013C24.8369 41.5317 24.8691 41.5604 24.8994 41.5858C24.9297 41.6112 24.958 41.6334 24.9834 41.6507C25.0254 41.6797 25.0566 41.6951 25.0703 41.6898C25.2178 41.625 25.6182 41.3658 25.6182 41.3364C25.6182 41.2127 24.876 40.6297 24.5752 40.5119C24.0811 40.3235 23.1387 40.294 22.6318 40.4589ZM50.5879 45.7003V43.0207V40.3411H54.4746V40.9889H51.2949V42.6968H54.2393V43.3446H51.2949V45.0525H54.4746V45.7003H50.5879ZM57.0664 40.665V40.9889H59.0098V45.7003H59.7168V40.9889H61.6602V40.3411H57.0664V40.665ZM68.2441 42.0136C68.4795 41.2422 68.9795 40.7121 69.6924 40.4648C69.9932 40.3588 70.1582 40.3411 70.6992 40.3588C71.2471 40.3764 71.4004 40.4 71.6836 40.5296C72.0596 40.7062 72.4482 40.9948 72.5898 41.2068C72.6904 41.3717 72.667 41.4012 72.2783 41.6191C72.1826 41.6701 72.1357 41.6952 72.0957 41.6863C72.0576 41.6778 72.0264 41.6381 71.9658 41.5602C71.9014 41.4777 71.665 41.3187 71.4473 41.2127C71.0996 41.0419 71 41.0184 70.582 41.0243C69.793 41.0243 69.2451 41.3658 68.9443 42.0431C68.7793 42.42 68.7383 43.3211 68.8682 43.7686C69.0098 44.2516 69.2861 44.6285 69.6689 44.8405C69.9697 45.0113 70.0342 45.023 70.582 45.023C71.124 45.023 71.1943 45.0113 71.4893 44.8464C71.6592 44.7521 71.8955 44.5578 72.0068 44.4223L72.2129 44.175L72.502 44.3222C72.7725 44.4577 72.79 44.4753 72.7256 44.599C72.5898 44.8405 71.9951 45.3823 71.7129 45.5118C70.8115 45.9359 69.6338 45.7945 68.9561 45.1879C68.3496 44.6402 68.1201 44.0631 68.1143 43.0796C68.1143 42.5672 68.1377 42.3434 68.2441 42.0136ZM0 42.9618V43.3446H15.9072L15.8887 42.9736L15.8711 42.6085L7.93848 42.5908L0 42.579V42.9618ZM124.969 43.0619C124.969 42.8735 124.986 42.6968 125.01 42.6791C125.027 42.6556 128.608 42.6379 132.96 42.6379H140.869V43.4035H124.969V43.0619Z" fill="white"/>
</svg>
