<svg xmlns="http://www.w3.org/2000/svg" width="52.001" height="32" viewBox="0 0 52.001 32">
  <g id="Nepal" transform="translate(-1)">
    <path id="Shape" d="M25.673,32A26.778,26.778,0,0,1,11.2,28.259a22.348,22.348,0,0,1-7.662-8.23A29.958,29.958,0,0,1,0,8.058l.644,1.1a34.682,34.682,0,0,0,10.849,11.3l2.082-1.96L8.708,16.385l4.867-2.127-3.8-3.574,5.342-.423L12.83,5.688,18,7.007l-.485-5.035L21.9,4.893,23.269,0l3.059,4.151L29.39.006l1.369,4.888,4.381-2.92-.485,5.035,5.173-1.319-2.283,4.573,5.343.423-3.8,3.574,4.866,2.127L39.084,18.5l1.805,1.7A21.427,21.427,0,0,0,51.575,9.352L52,8.365v.01a29.924,29.924,0,0,1-3.864,11.808,23.1,23.1,0,0,1-7.888,8.124A27.585,27.585,0,0,1,25.673,32ZM2.848,14.733h0A27.008,27.008,0,0,0,4.9,19.459c4.131,7.387,11.121,11.132,20.775,11.132,13.7,0,19.869-7.538,22.634-13.861a23.607,23.607,0,0,1-6.762,4.727,1.5,1.5,0,0,1-.633.142h-.024a1.521,1.521,0,0,1-1.049-.41L38.038,19.5a1.346,1.346,0,0,1-.416-1.243,1.42,1.42,0,0,1,.84-1.025l1.947-.845-1.947-.859a1.4,1.4,0,0,1-.84-1.025,1.351,1.351,0,0,1,.416-1.242l1.521-1.422-2.133-.167a1.513,1.513,0,0,1-1.164-.7A1.329,1.329,0,0,1,36.2,9.671l.914-1.832-2.069.526a1.367,1.367,0,0,1-.364.051h-.026a1.527,1.527,0,0,1-.956-.333,1.364,1.364,0,0,1-.526-1.2l.2-2.011L31.621,6.034a1.57,1.57,0,0,1-.858.256,1.7,1.7,0,0,1-.508-.077,1.477,1.477,0,0,1-.933-.96L28.775,3.3l0-.005h-.006l0,.006-1.22,1.659a1.539,1.539,0,0,1-2.442,0L23.891,3.292l-.548,1.96a1.481,1.481,0,0,1-.933.96,1.708,1.708,0,0,1-.508.077,1.557,1.557,0,0,1-.857-.256L19.292,4.868l.194,2.011a1.363,1.363,0,0,1-.525,1.2,1.523,1.523,0,0,1-.953.333h-.03a1.354,1.354,0,0,1-.363-.051L15.547,7.84l.913,1.832a1.327,1.327,0,0,1-.057,1.294,1.514,1.514,0,0,1-1.165.7l-2.133.167,1.521,1.422a1.352,1.352,0,0,1,.417,1.242,1.4,1.4,0,0,1-.841,1.025l-1.947.859,1.947.845a1.422,1.422,0,0,1,.841,1.025,1.346,1.346,0,0,1-.417,1.243l-2.081,1.959a1.586,1.586,0,0,1-1.894.154A36.4,36.4,0,0,1,2.848,14.733Z" transform="translate(1)" fill="#ec5149"/>
  </g>
</svg>
