<svg id="Pakistan" xmlns="http://www.w3.org/2000/svg" width="31" height="39" viewBox="0 0 31 39">
  <path id="Shape" d="M15.19,39h-.051A2.6,2.6,0,0,1,13.9,38.65l-.283-.162.013-.43a1.7,1.7,0,0,1-.916.27h-.053a5.518,5.518,0,0,1-1.848-.417l-.387-.162.059-.417a4.713,4.713,0,0,1-.57.068l-.1,0a1.882,1.882,0,0,1-1.077-.339,1.2,1.2,0,0,1-.517-.78l-.016-.108,3.63-15.739c-.072-.013-.146-.024-.217-.033s-.147-.02-.22-.034L6.4,34.869c0-.007.005-.01.009-.01s.013.009.026.023l.025.028a2.23,2.23,0,0,0,1.209.358,2.2,2.2,0,0,0,.391-.035l.031,1.09a1.485,1.485,0,0,1-.2.014H7.853a2.692,2.692,0,0,1-.348.023,2.728,2.728,0,0,1-1.9-.776,1.215,1.215,0,0,1-.243-1l4.981-14.422-.351-.081.059.027L3.479,32.878a1.825,1.825,0,0,0,1.5.81,1.781,1.781,0,0,0,.243-.017l.081,1.1a2.159,2.159,0,0,1-.244.014h-.1a2.89,2.89,0,0,1-2.589-1.683l-.1-.242,6.75-13.116a1.489,1.489,0,0,1-1.116-1.2c0-.658.712-1.174,2.116-1.534l-7.6-11.5L3.311,4.9l7.773,11.758-.249.175.005,0c.278-.048.592-.1.91-.145L4.865,3.7,5.8,3.175l5.989,11.286L7.164,2.085l1-.391,5.29,14.152L9.882.686,10.915.417l2.3,9.78L12.6.592,13.669.511l1.022,15.928.352-.009c.394-.01.7-.018.924-.018L16,16.049H15.27V.054h1.07V12.807L17.672,0l1.063.121L17.242,14.488,20.282.43l1.045.242L17.913,16.466c.16,0,.327.012.5.026l-.368-.134,5.135-14.65,1.006.364L19.113,16.547l.027,0c.295.026.6.053.9.092l-.68-.337L25.529,3.2l.962.472-6.045,12.86L28.171,4.9l.884.618L21.513,16.87c.271.06.548.133.871.229l-.542-.5L30.2,6.874l.8.74-8.254,9.592a1.759,1.759,0,0,1,1.471,1.345c0,.59-.562,1.057-1.718,1.427l6.735,13.291-.173.269a3.076,3.076,0,0,1-2.279,1.507,1.632,1.632,0,0,1-.5-.081,2.26,2.26,0,0,1-.989,1,1.7,1.7,0,0,1-.646.135,1.991,1.991,0,0,1-.9-.242,3.318,3.318,0,0,1-2.3,1.385,1.529,1.529,0,0,1-.538-.107,2.916,2.916,0,0,1-1.8.632h-.016a3.316,3.316,0,0,1-.353-.027l.022.31-.252.188a2.391,2.391,0,0,1-1.272.418h-.02a1.438,1.438,0,0,1-.875-.3v.027l-.13.161A1.383,1.383,0,0,1,15.19,39Zm1.15-18.31V37.922l.535-.537a.653.653,0,0,0,.769.067L16.426,20.69Zm-1.116-.014-.517,17.139a.948.948,0,0,0,.391.084.958.958,0,0,0,.176-.016V20.677h-.05Zm-2.14,16.439h0l.564.335.5-16.816a.8.8,0,0,1-.088-.007.792.792,0,0,0-.089-.007L11.606,37.035a1.991,1.991,0,0,0,1.477.081Zm4.444-16.1h0L18.691,37.13l.071-.485a1.888,1.888,0,0,0,1.469-.363Zm-7,15.214h0l.06.322L12.9,20.582,9.313,36.147a1.517,1.517,0,0,0,1.218.081Zm8.429-15.659h0c-.132.013-.282.027-.426.027l2.745,15.5a1.823,1.823,0,0,0,1.466-.753L18.962,20.569Zm1.156-.121a.149.149,0,0,0-.038.007.154.154,0,0,1-.039.007L23.89,35.488l.305-.632a.711.711,0,0,0,.67.094,1.437,1.437,0,0,0,.572-.713l-5.32-13.789Zm1.308-.2-.221.04,5.227,13.547a1.389,1.389,0,0,0,.339.042,1.42,1.42,0,0,0,1.211-.688L21.425,20.246Zm-5.364-2.732c-4.117,0-6.488.635-7.016,1.036.544.4,2.93,1.036,7.016,1.036s6.466-.635,7.013-1.036C22.548,18.151,20.179,17.515,16.061,17.515Zm-3.549-1.1h0l-.4.229c.159-.027.315-.041.466-.054l-.066-.175ZM8.9,17.34h0L0,7.265l.792-.741L9.7,16.6,8.9,17.34Z" fill="#ec524a"/>
</svg>
