<svg xmlns="http://www.w3.org/2000/svg" width="40.999" height="31" viewBox="0 0 40.999 31">
  <g id="Persia" transform="translate(-0.001 0)">
    <path id="Shape" d="M26.68,31h-.113a24.427,24.427,0,0,1-10.536-2.74,3.134,3.134,0,0,1-1.115,1.693,4.182,4.182,0,0,1-3.134.608A3.949,3.949,0,0,1,8.535,28.48a3.724,3.724,0,0,1,.614-3.257.877.877,0,0,1,.257-.207,2.844,2.844,0,0,1,1.922-.4,12.019,12.019,0,0,0-3.964-1.279,3.426,3.426,0,0,1-1.48,2.687,4.563,4.563,0,0,1-1.952.442,4.508,4.508,0,0,1-1.81-.377A3.359,3.359,0,0,1,.167,24.137a4.589,4.589,0,0,1,.432-3.4,6.275,6.275,0,0,1,5.825-3.112A14.006,14.006,0,0,1,11.912,18.9a4.125,4.125,0,0,1,3.473-2.869c.134-.012.27-.018.4-.018a4.553,4.553,0,0,1,3.946,2.306,2.3,2.3,0,0,1-.608,2.778,3.669,3.669,0,0,1-1.239.763,14.525,14.525,0,0,0,4.53.724,14.655,14.655,0,0,0,9.054-3.154.809.809,0,0,1,.95-.077,6.564,6.564,0,0,0,3.44.924,9.274,9.274,0,0,0,3.971-.95.819.819,0,0,1,.9.091.73.73,0,0,1,.218.84c-2.15,5.3-5.436,8.683-9.766,10.055A15.119,15.119,0,0,1,26.68,31ZM15.417,26.3h0a.814.814,0,0,1,.418.116,23.675,23.675,0,0,0,10.8,3.067,13.512,13.512,0,0,0,4.071-.6,13.728,13.728,0,0,0,8.029-7.5,9.134,9.134,0,0,1-6.664-.478,15.975,15.975,0,0,1-18.086.762.715.715,0,0,1-.248-.232,1.919,1.919,0,0,1-.166-1.758,2.051,2.051,0,0,1,1.75-1,.789.789,0,0,1,.853.543,1.947,1.947,0,0,0,.88,1.228,1.391,1.391,0,0,0,1-.465.8.8,0,0,0,.239-1.047,2.992,2.992,0,0,0-2.547-1.416c-.072,0-.144,0-.216.008a2.918,2.918,0,0,0-2.378,2.624.8.8,0,0,1-.45.53.837.837,0,0,1-.7-.039,13.533,13.533,0,0,0-5.6-1.533,4.771,4.771,0,0,0-4.429,2.36,3.133,3.133,0,0,0-.314,2.184,1.86,1.86,0,0,0,1.1,1.047,2.874,2.874,0,0,0,2.266.051,2.723,2.723,0,0,0,.807-2.274.753.753,0,0,1,.257-.556.819.819,0,0,1,.531-.2l.067,0c.058,0,5.9.446,7.561,3.658a.853.853,0,0,1,.075.232,2.365,2.365,0,0,1-.564,2.094,1.524,1.524,0,0,1-.908.3,1.5,1.5,0,0,1-.564-.11.779.779,0,0,1-.532-.62,1.712,1.712,0,0,0-.62-1.15.981.981,0,0,0-.791.1,2.09,2.09,0,0,0-.333,1.693,2.825,2.825,0,0,0,2.1,1.15,2.637,2.637,0,0,0,1.844-.323,2.126,2.126,0,0,0,.675-1.719.754.754,0,0,1,.414-.659A.938.938,0,0,1,15.417,26.3Zm9.769-11.308h0a4.508,4.508,0,0,1-3.926-2.313,2.271,2.271,0,0,1,.608-2.779,3.589,3.589,0,0,1,1.239-.749A14.532,14.532,0,0,0,9.523,11.562a.806.806,0,0,1-.949.09,6.569,6.569,0,0,0-3.456-.933,9.143,9.143,0,0,0-3.956.946.8.8,0,0,1-.891-.091.727.727,0,0,1-.218-.84C2.21,5.433,5.5,2.05,9.821.68A15.319,15.319,0,0,1,14.427,0,24.614,24.614,0,0,1,24.966,2.735a3.123,3.123,0,0,1,1.115-1.693A4.25,4.25,0,0,1,29.215.435a3.95,3.95,0,0,1,3.246,2.081,3.708,3.708,0,0,1-.614,3.257.7.7,0,0,1-.257.206,2.818,2.818,0,0,1-1.911.4,11.978,11.978,0,0,0,3.957,1.279,3.458,3.458,0,0,1,1.48-2.688,4.545,4.545,0,0,1,1.937-.436,4.489,4.489,0,0,1,1.825.385,3.319,3.319,0,0,1,1.953,1.951,4.546,4.546,0,0,1-.43,3.387,6.284,6.284,0,0,1-5.832,3.117,13.875,13.875,0,0,1-5.481-1.282,4.122,4.122,0,0,1-3.472,2.868,3.652,3.652,0,0,1-.384.026ZM23.855,10.54h-.016a1.687,1.687,0,0,0-.9.465.8.8,0,0,0-.24,1.048,2.962,2.962,0,0,0,2.513,1.419c.083,0,.167,0,.25-.011,1.169-.1,1.991-1.011,2.378-2.623a.749.749,0,0,1,.448-.517.787.787,0,0,1,.325-.07.8.8,0,0,1,.378.1A13.472,13.472,0,0,0,34.6,11.892a4.77,4.77,0,0,0,4.427-2.359,3.146,3.146,0,0,0,.314-2.183,1.881,1.881,0,0,0-1.106-1.06,2.877,2.877,0,0,0-2.264-.039,2.681,2.681,0,0,0-.807,2.262.725.725,0,0,1-.257.555.821.821,0,0,1-.546.209l-.05,0-.029,0c-.993-.1-6.021-.742-7.533-3.667a.881.881,0,0,1-.073-.232,2.319,2.319,0,0,1,.563-2.081,1.515,1.515,0,0,1,.919-.313,1.489,1.489,0,0,1,.554.106.769.769,0,0,1,.531.62,1.744,1.744,0,0,0,.622,1.163.985.985,0,0,0,.79-.116,2.079,2.079,0,0,0,.332-1.693,2.865,2.865,0,0,0-2.1-1.15,2.677,2.677,0,0,0-1.846.336,2.123,2.123,0,0,0-.674,1.719.754.754,0,0,1-.414.646.823.823,0,0,1-.792-.025A23.623,23.623,0,0,0,14.365,1.517a13.518,13.518,0,0,0-4.072.6A13.8,13.8,0,0,0,2.266,9.624a9.053,9.053,0,0,1,6.664.465,15.977,15.977,0,0,1,18.087-.762.759.759,0,0,1,.248.245,1.873,1.873,0,0,1,.167,1.745,2.054,2.054,0,0,1-1.75,1,.789.789,0,0,1-.851-.543,1.968,1.968,0,0,0-.882-1.215A.316.316,0,0,0,23.855,10.54Z" fill="#ec524a"/>
  </g>
</svg>
