<svg xmlns="http://www.w3.org/2000/svg" width="48" height="20" viewBox="0 0 48 20">
  <g id="practicality-and-operation" transform="translate(-1 -0.701)">
    <path id="Shape" d="M9.009,20a8.815,8.815,0,0,1-4.865-1.447C1.472,16.744,0,13.44,0,9.247A8.867,8.867,0,0,1,3.818,1.478,8.746,8.746,0,0,1,8.685.094a12.542,12.542,0,0,1,4.272.8C16.491,2.183,20.209,5.77,23.8,9.239l.005-.007c3.384-3.374,7.22-7.2,10.807-8.485A12.285,12.285,0,0,1,38.763,0a9.584,9.584,0,0,1,5.285,1.513,8.982,8.982,0,0,1,3.946,7.734c0,4.187-1.464,7.477-4.122,9.264a8.865,8.865,0,0,1-5.04,1.444,13.473,13.473,0,0,1-4.282-.748c-3.426-1.147-7.028-4.431-10.725-7.984-3.637,3.616-7.19,6.956-10.659,8.1A12.743,12.743,0,0,1,9.154,20ZM8.583,1.477A7.318,7.318,0,0,0,4.639,2.619,7.552,7.552,0,0,0,1.453,9.247c0,3.73,1.254,6.634,3.531,8.179a7.3,7.3,0,0,0,4.174,1.195,11.348,11.348,0,0,0,3.529-.6c3.167-1.044,6.591-4.274,10.113-7.776C19.46,7.02,15.674,3.367,12.435,2.187a10.932,10.932,0,0,0-3.741-.709Zm30.183-.095a10.759,10.759,0,0,0-3.634.659c-3.285,1.18-7.015,4.9-10.306,8.179,3.585,3.449,7.062,6.633,10.206,7.685a11.92,11.92,0,0,0,3.786.666,7.427,7.427,0,0,0,4.212-1.188c2.261-1.522,3.507-4.412,3.509-8.137a7.576,7.576,0,0,0-3.317-6.6A8.089,8.089,0,0,0,38.766,1.382Z" transform="translate(1 0.701)" fill="#ec5149"/>
  </g>
</svg>
