<svg width="183" height="183" viewBox="0 0 183 183" fill="none" xmlns="http://www.w3.org/2000/svg">
<path d="M183 91.5C183 94.3272 182.873 97.1208 182.619 99.8808C182.425 102.066 182.148 104.224 181.797 106.357C174.701 149.825 136.974 183 91.5 183C68.3373 183 47.1879 174.395 31.0689 160.203C25.1121 154.963 19.8423 148.958 15.4131 142.34C5.67657 127.801 0 110.312 0 91.5C0 40.9659 40.9659 0 91.5 0C142.034 0 183 40.9659 183 91.5Z" fill="#F2F2F2"/>
<path fill-rule="evenodd" clip-rule="evenodd" d="M160.074 101.721C158.705 102.239 158.039 102.506 157.539 102.322C157.339 102.248 157.166 102.103 156.985 101.872C156.729 101.548 156.459 101.055 156.078 100.359L156.072 100.349L155.945 100.117C154.072 96.7156 153.075 93.1382 152.989 89.2476C152.918 85.9089 153.832 82.8054 154.982 79.7612C155.9 77.3403 154.706 76.4861 152.608 76.2659C151.081 76.1091 149.506 76.124 147.976 76.2808C143.996 76.6875 143.604 77.0305 142.547 80.8916C141.92 83.1821 141.42 85.4912 140.378 87.6658C137.81 93.0186 134.891 98.1741 131.896 103.292C131.77 103.51 131.648 103.731 131.526 103.953C131.133 104.67 130.736 105.391 130.157 105.993C127.988 102.747 127.171 99.1626 126.988 95.4023C126.805 91.6904 127.943 88.24 129.194 84.8267C129.616 83.678 129.265 82.9653 128.271 82.4692C127.831 82.2493 127.339 82.0439 126.857 82.0063C124.304 81.8052 121.758 81.8347 119.268 82.5322C118.147 82.8418 117.416 83.4688 117.166 84.7258C117.115 84.9827 117.062 85.2388 117.005 85.4941L116.902 85.9414L116.825 86.2605C116.732 86.6353 116.634 87.0081 116.528 87.3792C116.095 88.9089 115.551 90.4072 114.899 91.8694C113.454 95.1118 112.014 98.3569 110.573 101.603C109.187 104.727 107.8 107.853 106.41 110.976L105.899 112.125C103.608 117.275 101.318 122.423 98.6006 127.367C98.5762 127.412 98.5527 127.461 98.5283 127.513L98.4629 127.652C98.4307 127.721 98.3965 127.792 98.3604 127.859C98.2793 128.009 98.1846 128.144 98.0615 128.219C98.0039 128.255 97.9385 128.278 97.8662 128.282C97.8174 128.285 97.7656 128.28 97.709 128.266C97.5176 128.218 97.4209 128.102 97.373 127.952C97.3203 127.784 97.3311 127.574 97.3408 127.37C97.3467 127.26 97.3516 127.152 97.3467 127.054C97.1963 124.256 97.8613 121.573 98.5254 118.901L98.7617 117.94C99.0938 116.58 99.4346 115.222 99.7803 113.865C100.317 111.756 100.868 109.65 101.419 107.544L101.46 107.385L102.401 103.776C102.752 102.422 102.162 101.512 101.039 100.863C99.4219 99.9341 97.8135 99.8894 96.0625 101.191C96.3018 99.2661 96.4062 97.5764 96.3232 95.8867C96.1367 92.1191 94.3896 89.6685 91.3477 89.1011C89.127 88.687 87.0244 89.3325 85.0391 90.2725C80.4092 92.4624 76.6875 95.7634 73.5596 99.7698C73.1934 100.236 72.8242 100.665 72.2939 100.952C69.6113 102.413 66.9287 103.874 64.248 105.337C61.0615 107.077 57.877 108.82 54.6963 110.573C54.0537 110.931 53.6396 110.83 53.1768 110.334C50.2275 107.174 46.8047 104.567 43.4141 101.922C43.0479 101.635 42.6797 101.35 42.3115 101.065L41.0137 100.065C37.0498 97.0146 33.0879 93.9646 29.6875 90.2539C27.2988 87.6428 25.3047 84.7815 24.3086 81.3274C22.6807 75.6797 23.8975 70.4199 26.6084 65.4216C29.8145 59.5088 34.5713 54.9431 39.8154 50.877C48.1445 44.4233 57.2793 39.2979 66.9072 35.0793C77.6885 30.3604 88.8721 27.3201 100.784 27.7788C105.503 27.9617 110.084 28.7786 114.287 31.0876C117.263 32.7217 119.233 35.0828 119.79 38.5483C120.443 42.6067 119.469 46.356 117.666 49.9109C113.638 57.8528 107.235 63.478 99.668 67.8835C93.3672 71.5503 86.5693 73.8782 79.375 75.0977C75.3994 75.7729 71.4092 76.1794 67.4102 75.5715C62.8223 74.874 58.582 73.3411 55.4424 69.6477C55.0801 69.2227 54.6211 68.9277 54.0049 69.2261C53.7334 69.3579 53.5879 69.5366 53.5146 69.7402C53.4629 69.8855 53.4473 70.0432 53.4502 70.2058C53.4512 70.3081 53.46 70.4124 53.4707 70.5161L53.4824 70.6289C53.5273 70.998 53.6279 71.3711 53.7588 71.7219C54.5986 73.9863 56.1699 75.6946 58.0107 77.187C62.7959 81.0776 68.4668 82.2192 74.4209 82.335C80.249 82.4507 85.9863 81.7119 91.6641 80.3542C104.473 77.2954 115.202 71.0173 123.034 60.259C127.715 53.8279 130.68 46.7405 130.418 38.6306C130.25 33.4866 128.518 28.9431 124.766 25.2502C120.305 20.8669 114.769 18.6626 108.829 17.3384C102.214 15.8687 95.5322 15.6597 88.7822 16.4656C82.9102 17.1667 77.1729 18.3679 71.5879 20.2891C63.043 23.2322 54.7891 26.8467 46.8896 31.2412C38.7959 35.7397 31.1689 40.8916 24.4795 47.3447C18.5596 53.0557 13.4707 59.3564 10.6035 67.1787C9.37988 70.5286 8.49805 73.9717 9.31934 77.594C10.373 82.2568 12.6719 86.293 15.6963 89.9336C20.2686 95.4473 25.8799 99.7891 31.666 103.937C32.7568 104.72 33.8604 105.486 34.9678 106.247L36.6279 107.385C37.6045 108.052 38.5801 108.719 39.5498 109.394C40.3008 109.916 41.0488 110.443 41.791 110.977C43.0977 111.918 44.3867 112.884 45.6436 113.893C46.3008 114.421 46.6143 114.674 46.5547 114.905C46.5 115.117 46.1299 115.311 45.4199 115.682L45.4111 115.688C43.6719 116.594 41.9131 117.467 40.2041 118.433C33.3096 122.328 26.6455 126.55 21.2061 132.418C18.5303 135.309 16.7119 138.555 15.8643 142.158C20.292 148.768 25.5596 154.767 31.5137 160C41.6719 159.209 49.4473 153.927 55.1934 145.191C57.9668 140.972 59.2656 136.197 59.7549 131.161C60.1846 126.722 59.7324 122.425 58.4258 118.187C58.3447 117.921 58.1855 117.656 58.0283 117.396C57.7441 116.924 57.4688 116.465 57.6826 116.042C57.9932 115.438 58.9268 115.132 59.6133 114.736C62.3828 113.128 65.1602 111.543 68.0127 109.906C68.0469 110.075 68.0527 110.224 68.042 110.361C68.0225 110.607 67.9473 110.809 67.877 111.003C67.8457 111.09 67.8154 111.176 67.792 111.263C66.1572 117.258 65.0186 123.301 66.2617 129.531C67.0342 133.41 68.3223 137.062 70.7715 140.274C73.291 143.579 78.917 143.202 81.2012 140.185C83.3701 137.32 84.8076 134.089 86.3047 130.874C86.4414 130.581 86.5752 130.288 86.708 129.994C86.9375 129.488 87.1631 128.979 87.3857 128.47L87.9551 127.165L87.9756 127.115C88.2041 126.591 88.4326 126.066 88.6641 125.543C88.5186 127.684 88.5264 129.773 88.6045 131.855C88.6826 133.906 89.0117 135.932 90.0791 137.745C91.3633 139.923 93.7783 140.558 96.0225 139.394C98.3887 138.166 100.002 136.144 101.256 133.951C106.635 124.517 111.626 114.882 115.759 104.821C116.64 102.684 117.543 100.55 118.54 98.1736L118.655 98.7556L118.888 99.9084C119.806 104.702 121.44 109.238 123.808 113.501C124.315 114.416 124.26 115.046 123.617 115.922C121.747 118.466 119.723 120.881 117.698 123.297L116.692 124.498L116.109 125.191C115.833 125.517 115.555 125.841 115.276 126.166C114.897 126.608 114.519 127.051 114.144 127.496C113.922 127.759 113.702 128.023 113.484 128.289C112.574 129.398 111.701 130.537 110.925 131.75C109.424 134.1 110.286 136.506 112.784 137.04C113.553 137.204 114.363 137.252 115.15 137.241C119.515 137.189 123.543 135.887 127.295 133.753C132.346 130.877 135.34 126.662 135.201 120.66C135.138 117.929 134.398 115.307 133.298 112.804C133.055 112.248 133.044 111.845 133.406 111.323C136.904 106.316 139.995 101.068 142.836 95.6667C142.967 95.4199 143.086 95.1658 143.207 94.9082L143.219 94.8855L143.233 94.8569C143.572 94.1401 143.92 93.4023 144.508 92.7312L144.612 93.0796L144.625 93.1228L144.635 93.1562C144.653 93.2166 144.672 93.2734 144.687 93.3281C144.712 93.4172 144.733 93.501 144.751 93.5854C145.654 98.062 146.871 102.437 149.156 106.433C149.3 106.683 149.394 106.905 149.443 107.107C149.493 107.308 149.498 107.49 149.464 107.662C149.382 108.07 149.074 108.415 148.604 108.812C145.62 111.345 143.104 114.3 141.13 117.683C139.592 120.317 138.539 123.129 138.55 126.214C138.562 129.646 141.189 131.668 144.538 130.862C148.028 130.026 151.265 128.605 154.169 126.483C160.497 121.854 162.353 116.97 160.37 110.155C159.606 107.518 159.608 107.518 162.167 106.745L162.3 106.705C168.188 104.929 174.16 104.854 180.163 105.832C180.843 105.944 181.515 106.071 182.179 106.216C182.529 104.086 182.806 101.93 183 99.7476C175.321 97.8721 167.652 98.8455 160.074 101.721ZM35.6797 149.712C33.9736 150.316 32.2012 150.574 30.3857 150.432C28.1279 150.253 26.6943 148.66 26.5479 146.265C26.3838 143.505 27.2021 141.013 28.4111 138.588C30.6094 134.186 34.3018 131.198 38.0693 128.266C41.7305 125.413 45.666 122.977 49.6455 120.608C49.8398 120.492 50.0039 120.395 50.1426 120.32C50.292 120.24 50.4121 120.185 50.5117 120.158C50.6064 120.134 50.6826 120.135 50.7451 120.165C50.9346 120.257 51.0078 120.618 51.1455 121.335C51.3125 122.193 51.4707 123.051 51.5811 123.893C51.707 124.86 51.7695 125.804 51.7051 126.7C52.0195 136.745 44.7178 146.515 35.6797 149.712ZM86.9795 111.308C88.4541 107.324 89.8398 103.292 90.4736 99.0581C90.7236 97.417 89.9893 96.7754 88.3945 97.1814C86.0469 97.7822 84.2734 99.2781 82.8848 101.117C77.916 107.716 74.8994 115.057 74.8438 124.04C74.8604 124.189 74.874 124.344 74.8867 124.502C74.9072 124.762 74.9238 125.034 74.9404 125.314C75.0371 126.906 75.1523 128.785 76.083 130.512C76.6953 131.646 77.4795 131.754 78.3643 130.825C79.3008 129.844 79.9092 128.647 80.4883 127.442C82.7998 122.658 84.6338 117.678 86.4668 112.701L86.9795 111.308ZM125.268 125.651C123.565 128.591 121.112 130.728 118.104 132.25L117.992 132.307C117.691 132.465 117.336 132.652 117.077 132.317C116.859 132.038 117.089 131.833 117.294 131.649C117.35 131.6 117.403 131.552 117.446 131.504C120.438 128.24 123.39 124.95 126.052 121.41C126.067 121.388 126.093 121.374 126.13 121.359L126.208 121.33C126.263 121.312 126.332 121.287 126.421 121.25C126.395 122.887 126.036 124.327 125.268 125.651ZM144.522 125.79C144.956 126.125 145.471 125.733 145.915 125.525C149.966 123.619 152.299 120.563 152.336 115.971C152.321 115.132 152.303 114.308 152.097 113.483C151.899 112.677 151.638 112.61 151.056 113.17C149.611 114.565 148.297 116.061 147.236 117.773C145.976 119.806 145.061 121.989 144.381 124.268C144.235 124.768 144.045 125.42 144.522 125.79Z" fill="#CD6699"/>
</svg>
