<svg xmlns="http://www.w3.org/2000/svg" width="34.001" height="34" viewBox="0 0 34.001 34">
  <g id="silk" transform="translate(-0.999)">
    <path id="Shape" d="M10.1,34a4.559,4.559,0,0,1-3.127-1.43c-1.027-.979-4.305-4.416-3.358-7.518a5.17,5.17,0,0,1,3.337-3.1A7.086,7.086,0,0,1,4.73,20.936a10.1,10.1,0,0,1-3.605-4.884,17.7,17.7,0,0,1-1.1-7.121C.155,6.544.8,4.826,1.781,4.218a.376.376,0,0,1,.158-.067,7.883,7.883,0,0,1,1.033-.068A8.007,8.007,0,0,1,7.817,5.74,22.525,22.525,0,0,1,12.7,10.492a45.064,45.064,0,0,1,3.313,4.845c.015-1.245.014-3.7-.185-6.181a24.855,24.855,0,0,0-.731-4.673C14.735,3.231,14.276,2.5,13.8,2.418a.491.491,0,0,1-.382-.556.483.483,0,0,1,.187-.316.441.441,0,0,1,.348-.081c1.5.252,2.42,2.746,2.8,7.624.2,2.551.2,5.076.185,6.353.181-1.2.574-3.593,1.147-6.115C19.215,4.36,20.478,1.256,21.841.1a.456.456,0,0,1,.288-.1A.464.464,0,0,1,22.5.181a.491.491,0,0,1,.1.353.479.479,0,0,1-.171.322c-2.49,2.1-4.2,12.342-4.521,14.375a47.275,47.275,0,0,1,3.461-5.043,23.6,23.6,0,0,1,4.884-4.752,7.879,7.879,0,0,1,4.8-1.655,7.772,7.772,0,0,1,1.015.067.354.354,0,0,1,.159.053c.988.607,1.628,2.329,1.755,4.725a17.787,17.787,0,0,1-1.1,7.122,10.176,10.176,0,0,1-3.612,4.884,7.048,7.048,0,0,1-2.226,1.005,5.139,5.139,0,0,1,3.338,3.1c.947,3.106-2.33,6.539-3.357,7.518A4.582,4.582,0,0,1,23.891,33.7a4.407,4.407,0,0,1-3.079-1.444,16.411,16.411,0,0,1-3.478-5.294,19.491,19.491,0,0,1-4.151,5.6A4.349,4.349,0,0,1,10.1,34Zm1.088-13.055h0a.466.466,0,0,1,.454.4.493.493,0,0,1-.355.556,11.642,11.642,0,0,1-1.571.251c-2.947.606-4.744,1.709-5.2,3.19-.626,2.04,1.19,4.7,3.1,6.512a3.179,3.179,0,0,0,4.937,0,16.164,16.164,0,0,0,4.362-6.42l.01-.04c0-.006,0-.01,0-.012a.014.014,0,0,0,.012-.014.35.35,0,0,1,.054-.093c.007,0,.007-.013.007-.014l.009-.007.009-.007c0-.005,0-.006,0-.006s0,0,.009-.006l.006-.007,0-.007a.043.043,0,0,1,.012-.014.044.044,0,0,0,.011-.012.3.3,0,0,1,.053-.039.492.492,0,0,0,.042-.028h.017s.008-.007.013-.013a.037.037,0,0,0,.031-.013h.046a.016.016,0,0,1,.016-.014h.15s.013,0,.013.014h.064a.045.045,0,0,0,.031.013h.007l.007.014h0a.036.036,0,0,1,.031.013.061.061,0,0,1,.039.026h.007c.01,0,.022,0,.026.014s.012.014.013.014a.015.015,0,0,0,0,.01.011.011,0,0,0,.008,0l.013.012a.018.018,0,0,1,.008.015h.006a.56.56,0,0,1,.089.145v.027a.057.057,0,0,1,.009.026,15.324,15.324,0,0,0,3.656,6.115,3.207,3.207,0,0,0,2.464,1.17h.009A3.2,3.2,0,0,0,26.4,31.538c1.9-1.813,3.718-4.475,3.1-6.512-.453-1.483-2.249-2.582-5.2-3.176a9.977,9.977,0,0,1-1.574-.265.482.482,0,0,1-.355-.556.477.477,0,0,1,.463-.4l.047,0c.5.073,1.029.155,1.528.251.22.018.44.027.653.027,4.191,0,6.152-3.467,6.947-5.533,1.724-4.494,1.112-9.622-.2-10.589A5.118,5.118,0,0,0,31,4.722a8.291,8.291,0,0,0-4.954,2.042,25.077,25.077,0,0,0-4.318,4.5,47.8,47.8,0,0,0-4.257,6.651.456.456,0,0,1-.274.237.434.434,0,0,1-.133.021.444.444,0,0,1-.221-.059.082.082,0,0,1-.05-.026l-.256.132a46.935,46.935,0,0,0-4.586-7.161A21.784,21.784,0,0,0,7.3,6.535,7.187,7.187,0,0,0,2.954,5.052a7.064,7.064,0,0,0-.754.041C.88,6.061.266,11.2,2,15.694c.8,2.066,2.758,5.531,6.969,5.531.207,0,.419-.008.631-.025.44-.1.94-.179,1.529-.251A.449.449,0,0,1,11.192,20.945Zm5.627-4.708a.451.451,0,0,1-.2.146l.1.176c.076.14.147.271.211.393a.556.556,0,0,1,.058-.106.5.5,0,0,1-.186-.463Z" transform="translate(1)" fill="#ec5149"/>
  </g>
</svg>
