<svg width="32" height="32" viewBox="0 0 32 32" fill="none" xmlns="http://www.w3.org/2000/svg">
<g id="speed">
<path id="Combined Shape" fill-rule="evenodd" clip-rule="evenodd" d="M20.0959 2.54023C20.1505 2.46093 20.2259 2.39647 20.3158 2.35532C24.9508 0.220057 29.0423 -0.0088967 30.6997 0.000252909C31.1891 -0.00244438 31.4694 0.0172856 31.4911 0.0189818C31.752 0.0409563 31.9587 0.247768 31.9807 0.508636C31.9825 0.53026 32.0024 0.811469 31.9997 1.30248C32.0089 2.96159 31.7789 7.05179 29.6446 11.6846C29.6031 11.7745 29.5387 11.8499 29.4595 11.9044C27.6961 15.5676 24.7231 19.5056 19.7234 22.7184L19.9989 27.1059C20.0137 27.3434 19.8821 27.5641 19.6733 27.6509L11.702 30.9634C11.6404 30.9875 11.5771 31 11.5143 31C11.357 31 11.2042 30.923 11.105 30.7843C10.9656 30.5898 10.9651 30.3211 11.1029 30.1256L13.0443 27.3767L12.7723 25.9317C12.7301 25.908 12.6906 25.8784 12.6553 25.843L10.2501 23.4378L9.60779 23.8265C10.0014 24.5674 10.1053 25.4391 9.88967 26.2879C9.61264 27.378 8.86914 28.2696 7.84918 28.7327L0.769662 31.951C0.697264 31.9837 0.620527 32 0.544301 32C0.402757 32 0.263445 31.945 0.159472 31.8405C-0.00108132 31.6806 -0.0451584 31.4372 0.0489918 31.2304L3.26675 24.151C3.73048 23.1305 4.62204 22.387 5.71223 22.11C6.53537 21.9015 7.37916 21.9926 8.10429 22.3564L8.48506 21.6723L6.15699 19.3442C6.12188 19.3091 6.0924 19.2699 6.0688 19.228L4.62334 18.9559L1.87387 20.8972C1.77664 20.9661 1.66136 21 1.54614 21C1.42984 21 1.31296 20.965 1.21573 20.8951C1.02126 20.7557 0.948613 20.5125 1.03765 20.2986L4.35021 12.3278C4.43707 12.119 4.6572 11.9802 4.89531 12.0023L9.28057 12.2776C12.4936 7.27692 16.4322 4.30368 20.0959 2.54023ZM20.4735 3.54655C15.728 5.86036 10.5021 10.3095 7.16083 18.8335L8.95707 20.6304L11.318 16.3435C11.3939 16.2059 11.5251 16.11 11.6754 16.0778C11.7566 16.0278 11.8512 16 11.9499 16H15.4766C15.7656 16 16.0001 16.2345 16 16.5234V19.6637C16 19.7649 15.9707 19.862 15.9181 19.9446C15.8853 20.0773 15.8024 20.1943 15.6842 20.2694L11.3395 23.0123L13.1663 24.8391C21.9401 21.399 26.3091 15.9865 28.4817 11.5552L20.4735 3.54655ZM29.7038 8.56135C29.5466 9.0355 29.3695 9.52056 29.1703 10.0135C29.1051 10.1748 29.037 10.3381 28.9659 10.5033L21.5266 3.06354C23.8191 2.07683 25.9527 1.57173 27.646 1.31741C29.1472 1.10311 30.302 1.08091 30.9092 1.09109C30.9276 2.18991 30.8429 5.06914 29.7038 8.56135ZM12.2072 17.137H14.8624V19.424L8.93975 23.008L12.2072 17.137ZM5.98821 18.1639L4.59767 17.9022C4.44584 17.8739 4.28742 17.9078 4.16292 17.9952L2.75432 18.9897L5.22138 13.0534L8.51922 13.2601C7.56887 14.7746 6.7201 16.4191 5.98821 18.1639ZM13.0103 29.2453L14.0049 27.8367C14.0924 27.7127 14.1263 27.5544 14.0975 27.4019L13.8357 26.0119C15.5812 25.2801 17.2253 24.4313 18.7399 23.481L18.9471 26.7782L13.0103 29.2453ZM7.39903 27.7422C8.11638 27.4156 8.63995 26.7881 8.83482 26.0201C8.97254 25.4769 8.92189 24.9223 8.69876 24.4423L7.78162 24.961C7.56934 25.0813 7.30207 25.0454 7.12902 24.8717C6.95596 24.6992 6.91947 24.4319 7.03978 24.2191L7.55792 23.302C7.25582 23.161 6.92439 23.0886 6.58529 23.0886C6.385 23.0886 6.18203 23.1137 5.98008 23.1649C5.21207 23.3597 4.58396 23.8833 4.25794 24.6006L1.64049 30.3596L7.39903 27.7422ZM17.3166 8.31663C19.0721 6.56112 21.9279 6.56112 23.6834 8.31663C25.4389 10.0721 25.4389 12.928 23.6834 14.6835C22.8054 15.561 21.6529 16 20.4998 16C19.3472 16 18.1941 15.5615 17.3166 14.6835C15.5611 12.928 15.5611 10.0721 17.3166 8.31663ZM18.0548 13.9453C19.4031 15.2937 21.597 15.2937 22.9453 13.9453C24.2936 12.597 24.2936 10.403 22.9454 9.05473C22.271 8.38081 21.3851 8.0436 20.4998 8.0436C19.6145 8.0436 18.7287 8.38081 18.0548 9.05473C16.7065 10.403 16.7065 12.597 18.0548 13.9453ZM19.6584 12.5336C20.3033 13.1038 21.3521 13.1044 21.9964 12.5336C22.2257 12.3304 22.5983 12.3304 22.8276 12.5336C23.0575 12.7368 23.0575 13.0654 22.8276 13.2686C22.2768 13.7562 21.5526 14 20.8277 14C20.1035 14 19.3786 13.7562 18.8272 13.2686C17.7243 12.2935 17.7243 10.7065 18.8272 9.73135C19.93 8.75622 21.7254 8.75622 22.8276 9.73135C23.0575 9.93457 23.0575 10.2631 22.8276 10.4663C22.5984 10.6696 22.2257 10.6696 21.9964 10.4663C21.3515 9.89613 20.3027 9.89662 19.6584 10.4663C19.0141 11.0366 19.0141 11.9634 19.6584 12.5336Z" fill="#C72839"/>
</g>
</svg>
