<svg xmlns="http://www.w3.org/2000/svg" width="50" height="32.001" viewBox="0 0 50 32.001">
  <g id="Tibet" transform="translate(-1 -1)">
    <path id="Shape" d="M2.1,32h0l-.589-1.4,10.928-4.07a11.777,11.777,0,0,1-.54-1.7L.242,26.483,0,25.011,11.641,23.36l-.013-.126c-.037-.371-.072-.721-.072-1.078,0-.318.025-.62.051-.94v-.007L.008,19.674l.226-1.485,11.579,1.535a12.467,12.467,0,0,1,.472-1.625l-10.8-4.275.625-1.382,10.782,4.275a12.937,12.937,0,0,1,1.215-1.907L5.035,7.731,6.061,6.579l9.061,7.078a13.3,13.3,0,0,1,4.485-3.02L15.323.551,16.809,0,21.1,10.112a14.1,14.1,0,0,1,3.908-.551h.01a14.252,14.252,0,0,1,4.149.615L33.256.013l1.5.525L30.658,10.726a13.472,13.472,0,0,1,4.361,3.021l9.05-7.1L45.1,7.795,36.02,14.912a12.748,12.748,0,0,1,1.072,1.7l11-4.172.6,1.382L37.714,18a12.1,12.1,0,0,1,.515,1.728l11.536-1.535.226,1.485L38.434,21.209l.005.065c.024.3.046.584.046.883a10.385,10.385,0,0,1-.071,1.058l-.012.119L50,25.011l-.245,1.472-11.6-1.664a12.517,12.517,0,0,1-.541,1.728L48.372,30.6l-.6,1.4L36.967,27.917c-.04.069-.077.145-.113.219a2.943,2.943,0,0,1-.142.267.823.823,0,0,1-.7.379.847.847,0,0,1-.394-.1L25.03,23.015,14.487,28.749a.9.9,0,0,1-.406.1.826.826,0,0,1-.69-.372c-.071-.12-.132-.241-.19-.359-.036-.072-.072-.145-.11-.217L2.1,32ZM25.025,11.033c-6.473,0-11.8,4.99-11.865,11.124a10.49,10.49,0,0,0,1.235,4.9L24.622,21.5a.881.881,0,0,1,.8,0L35.688,27a10.541,10.541,0,0,0,1.2-4.838C36.82,16.023,31.5,11.033,25.025,11.033Z" transform="translate(1 1)" fill="#ec5149"/>
  </g>
</svg>
