<svg xmlns="http://www.w3.org/2000/svg" width="40" height="33" viewBox="0 0 40 33">
  <g id="Turkey" transform="translate(0)">
    <path id="Shape" d="M16.288,33h0A16.369,16.369,0,0,1,5.918,29.288,16.2,16.2,0,0,1,.06,18.182a16.8,16.8,0,0,1,15-18.095A16.449,16.449,0,0,1,16.75,0a16.279,16.279,0,0,1,9.4,2.967.489.489,0,0,1,.148.625.5.5,0,0,1-.6.242,12.692,12.692,0,0,0-5.529-.65A13.2,13.2,0,0,0,8.449,17.328a12.729,12.729,0,0,0,14,11.507,13.014,13.014,0,0,0,5.317-1.746.483.483,0,0,1,.251-.07.478.478,0,0,1,.379.185.486.486,0,0,1-.033.637A16.769,16.769,0,0,1,17.98,32.912,16.428,16.428,0,0,1,16.288,33ZM16.718.976a15.675,15.675,0,0,0-1.571.079A15.9,15.9,0,0,0,1.036,18.08,15.341,15.341,0,0,0,17.892,31.944a15.7,15.7,0,0,0,7.263-2.663,14.072,14.072,0,0,1-4.035.6A13.766,13.766,0,0,1,12.4,26.757,13.616,13.616,0,0,1,7.475,17.43,14.108,14.108,0,0,1,21.549,2.139c.4,0,.8.017,1.2.051A15.5,15.5,0,0,0,16.718.976Zm16.45,19.1a.521.521,0,0,1-.076-.006.031.031,0,0,0-.025-.013.493.493,0,0,1-.368-.433l-.328-3.836-3.677-.994a.481.481,0,0,1-.356-.446.5.5,0,0,1,.3-.484l3.514-1.516L31.972,8.51a.492.492,0,0,1,.306-.484.489.489,0,0,1,.547.127l2.5,2.893L38.9,9.682a.469.469,0,0,1,.545.14.48.48,0,0,1,.042.561L37.516,13.7l2.38,2.994a.484.484,0,0,1,.027.561.475.475,0,0,1-.522.217l-3.712-.841-2.1,3.224A.511.511,0,0,1,33.168,20.073ZM33.01,9.861h0l.128,2.777a.485.485,0,0,1-.3.472l-2.535,1.1,2.655.726a.488.488,0,0,1,.355.433l.237,2.765L35.069,15.8a.479.479,0,0,1,.4-.216.487.487,0,0,1,.11.013l2.683.611-1.718-2.165a.492.492,0,0,1-.037-.561L37.93,11.1l-2.578.994a.481.481,0,0,1-.539-.14l-1.8-2.09Z" fill="#ec5149"/>
  </g>
</svg>
