<svg xmlns="http://www.w3.org/2000/svg" width="39.001" height="42" viewBox="0 0 39.001 42">
  <g id="woolen_and_silk" transform="translate(0 0)">
    <path id="Shape" d="M17.106,42c-.522,0-1.053-.026-1.577-.076h-.014A16.661,16.661,0,0,1,10.364,40.6a.085.085,0,0,1-.046-.026,17.18,17.18,0,0,1-6.973-5.6.2.2,0,0,1-.049-.064A17.264,17.264,0,0,1,.157,22.441a17.449,17.449,0,0,1,6.35-11.235.58.58,0,0,1,.13-.114A16.977,16.977,0,0,1,17.105,7.476h.063a16.118,16.118,0,0,1,2.017.127h.023a.033.033,0,0,1,.029.013A16.948,16.948,0,0,1,27.818,11.3h.013a.124.124,0,0,1,.025.027.136.136,0,0,0,.022.024,17.03,17.03,0,0,1,3.484,3.87.79.79,0,0,1,.045.076,17.015,17.015,0,0,1,1.654,3.246c1.022-2.4.627-5.991.31-8.874V9.653a17.746,17.746,0,0,1-.186-4.226A6.573,6.573,0,0,1,35.9.782,4.847,4.847,0,0,1,38.417,0a.851.851,0,0,1,.1,0,.527.527,0,0,1,.361.175A.506.506,0,0,1,39,.551a.5.5,0,0,1-.168.356.517.517,0,0,1-.344.129h-.073c-.567,0-3.432.221-4.2,4.583a17.411,17.411,0,0,0,.2,3.92c.377,3.409.847,7.653-.882,10.336a17.355,17.355,0,0,1,.693,4.864,16.731,16.731,0,0,1-4.909,12.1A17.456,17.456,0,0,1,17.106,42Zm.02-9.5h0c-1.283.48-2.478.87-3.552,1.158a21.8,21.8,0,0,0,.719,3.641,17.1,17.1,0,0,0,1.535,3.6c.43.027.851.051,1.276.051a16.96,16.96,0,0,0,2.549-.2,15.689,15.689,0,0,1-1.768-3.807,24.223,24.223,0,0,1-.758-4.442Zm-4.561,1.426c-1.137.287-2.227.518-3.239.688a11.6,11.6,0,0,0,.5,2.393A11.228,11.228,0,0,0,10.879,39.7a15.742,15.742,0,0,0,3.686,1.057A18.271,18.271,0,0,1,13.3,37.6a22.521,22.521,0,0,1-.739-3.667Zm8.483-3.182c-.934.484-1.914.938-2.912,1.349a24.137,24.137,0,0,0,.742,4.545,14.973,14.973,0,0,0,1.877,3.9,15.843,15.843,0,0,0,3.06-1.069,15.69,15.69,0,0,1-2-4.15A24.428,24.428,0,0,1,21.048,30.747Zm3.7-2.2c-.9.616-1.818,1.177-2.717,1.668,0,.013.005.025.009.038a25.135,25.135,0,0,0,.757,4.761,15,15,0,0,0,1.95,4,16.092,16.092,0,0,0,3.378-2.482,11.313,11.313,0,0,1-2.3-3.476,19.574,19.574,0,0,1-1.079-4.506h0ZM8.3,34.77c-1.231.175-2.422.291-3.54.343a16.215,16.215,0,0,0,4.632,3.845c-.182-.452-.37-1.01-.559-1.655A12.722,12.722,0,0,1,8.3,34.77Zm20.617-9.561h0a32.916,32.916,0,0,1-3.208,2.66,20.109,20.109,0,0,0,1.069,4.774,10.052,10.052,0,0,0,2.081,3.145,16.655,16.655,0,0,0,2.2-3,13.093,13.093,0,0,1-1.831-4.137,23.855,23.855,0,0,1-.307-3.437Zm2-8.758h0a33.6,33.6,0,0,1-13.163,9.394A54.786,54.786,0,0,1,1.937,30.084a16.259,16.259,0,0,0,2.052,4.01A38.408,38.408,0,0,0,15.3,32.056,33.884,33.884,0,0,0,32.385,19.7a16.286,16.286,0,0,0-1.465-3.245Zm1.816,4.519h0a35.322,35.322,0,0,1-2.8,3.246,29.325,29.325,0,0,0,.306,4.214,11.323,11.323,0,0,0,1.372,3.284h.005a16.368,16.368,0,0,0,1.12-10.744Zm-31.7,3.742v.026a16.492,16.492,0,0,0,.585,4.328,54.208,54.208,0,0,0,15.74-4.176,32.62,32.62,0,0,0,12.966-9.369,16.517,16.517,0,0,0-2.664-3c-.927,1.235-3.78,4.449-10.219,7.612a.459.459,0,0,1-.266.242.47.47,0,0,1-.183.039.211.211,0,0,1-.045-.007A.211.211,0,0,0,16.9,20.4c-.529.25-.98.456-1.421.65a46.15,46.15,0,0,1-10.354,3.3H5.11a.475.475,0,0,1-.185.039H4.892a22.367,22.367,0,0,1-3.612.344h-.04A1.457,1.457,0,0,1,1.033,24.712Zm1.888-7.6A16.145,16.145,0,0,0,1.07,23.669h.017a19.4,19.4,0,0,0,3.134-.255,30,30,0,0,1-.892-3.259A23.03,23.03,0,0,1,2.921,17.113Zm3.512-4.494a16.431,16.431,0,0,0-2.541,2.9,24.911,24.911,0,0,0,.448,4.417,30.753,30.753,0,0,0,.91,3.31c1.025-.2,2.1-.449,3.193-.752a41.992,41.992,0,0,1-1.491-5.155A37.98,37.98,0,0,1,6.433,12.619Zm4.147-2.7A15.759,15.759,0,0,0,7.422,11.8a42.745,42.745,0,0,0,.546,5.333A42.129,42.129,0,0,0,9.443,22.2c1.05-.322,2.139-.7,3.235-1.12a42.478,42.478,0,0,1-1.535-5.27A46.561,46.561,0,0,1,10.58,9.92Zm3.787-1.158A15.552,15.552,0,0,0,11.6,9.5a49.675,49.675,0,0,0,.555,6.11A42.178,42.178,0,0,0,13.64,20.7c.414-.17.882-.37,1.43-.611.4-.176.8-.363,1.244-.573a40.94,40.94,0,0,1-1.391-4.85A47.093,47.093,0,0,1,14.368,8.762Zm2.667-.241a15.263,15.263,0,0,0-1.645.089,47.279,47.279,0,0,0,.546,5.843,40.594,40.594,0,0,0,1.313,4.621c1.12-.563,2.192-1.163,3.185-1.782a11.082,11.082,0,0,1-1.646-3.946A19.868,19.868,0,0,1,18.6,8.583c-.551-.043-1.025-.063-1.491-.063Zm2.594.191a18.788,18.788,0,0,0,.173,4.43,10.311,10.311,0,0,0,1.507,3.6,29.214,29.214,0,0,0,2.646-1.96,11.248,11.248,0,0,1-1.014-2.33,11.572,11.572,0,0,1-.335-2.966A16.6,16.6,0,0,0,19.629,8.711Zm4.016,1.21h0a10.1,10.1,0,0,0,.294,2.252,10.233,10.233,0,0,0,.819,1.922,16.89,16.89,0,0,0,2.1-2.241A16.307,16.307,0,0,0,23.645,9.921Z" fill="#ec5149"/>
  </g>
</svg>
