<svg xmlns="http://www.w3.org/2000/svg" width="39.999" height="39" viewBox="0 0 39.999 39">
  <g id="woolen" transform="translate(-1 -1)">
    <path id="_" d="M13.954,39a1.574,1.574,0,0,1-1.1-.446,1.5,1.5,0,0,1-.2-1.554.462.462,0,0,1,.2-.233c1.165-.742,1.682-2.568,1.537-5.427a28.987,28.987,0,0,0-1.071-6.175,1.613,1.613,0,0,1-.489-.077c-1.534-.443-2.37-2.7-2.659-3.652a2.832,2.832,0,0,1-1.957-.945,4.92,4.92,0,0,1-.588-4.261A2.217,2.217,0,0,1,6.6,15.348c-.931-1.473-.327-4.008.072-5.685A8.526,8.526,0,0,0,6.9,8.51a1.782,1.782,0,0,0-1.028-.635,8.244,8.244,0,0,0-1.1-.337c-.31.028-.625.042-.935.042a4.759,4.759,0,0,1-3.3-.974A1.941,1.941,0,0,1,.025,4.962a.466.466,0,0,1,.051-.168C1.822,1.276,4.226.275,5.936.054A6.767,6.767,0,0,1,9.262.468a.045.045,0,0,1,.02.007A.043.043,0,0,0,9.3.482a6.821,6.821,0,0,1,4.958,0c.009,0,.009,0,.009.013h.013A.032.032,0,0,1,14.3.5a.032.032,0,0,0,.015.007.021.021,0,0,1,.021.013h0a.021.021,0,0,1,.021.013h0a.029.029,0,0,1,.024.014s.013,0,.013.013.021,0,.026.014,0,.006,0,.006,0,0,.008.006.018.026.023.026,0,0,.007.006.006.007.008.007.015.013.015.013A.043.043,0,0,0,14.5.662l.007.009,0,0A.042.042,0,0,0,14.533.7l0,.006h0s0,0,0,.007a.1.1,0,0,1,.006.019c0,.01,0,.02.009.02s.006,0,.006,0a.066.066,0,0,0,0,.008.052.052,0,0,0,.008.018l0,.008a.02.02,0,0,1,0,.013.018.018,0,0,0,0,.013.05.05,0,0,1,.009.026V.9a.064.064,0,0,1,0,.026v.091a.126.126,0,0,1,0,.026v.025a.064.064,0,0,1,0,.026v.026a.18.18,0,0,1-.014.026v.025a.064.064,0,0,0-.013.026.222.222,0,0,1-.009.026.054.054,0,0,0-.013.026.045.045,0,0,0-.018.026V1.3a7.1,7.1,0,0,1-1.638,1.775,4.673,4.673,0,0,1,1.458,2.163,6.328,6.328,0,0,1,5.523,1.2l.131.121c.077.071.148.136.216.2a3.606,3.606,0,0,1,4.148.454,3.683,3.683,0,0,1,2.985-.337,3.066,3.066,0,0,1,.668.375,9.116,9.116,0,0,1,5.918-.88,6.061,6.061,0,0,1,3.6,2.551,8.034,8.034,0,0,1,1.317,3.937,5.629,5.629,0,0,1-.257,2.162,3.748,3.748,0,0,1,.854,4.106,6.33,6.33,0,0,1-.8,1.5,4.456,4.456,0,0,1,1.3,3.884,3.651,3.651,0,0,1-.309.868.94.94,0,0,1,.066.143A23.04,23.04,0,0,1,38.1,38.256a.516.516,0,0,1-.41.324H37.5a12.94,12.94,0,0,1-2.661-.545.529.529,0,0,1-.315-.284.548.548,0,0,1-.01-.427c.71-1.755,2.421-6.812,1.82-9.1a1.68,1.68,0,0,1-.411.052h-.046A3.07,3.07,0,0,1,33.1,26.161a3.426,3.426,0,0,1-1.2-.3,3.487,3.487,0,0,1-2.455,1.075,3.554,3.554,0,0,1-1.354-.284,5.943,5.943,0,0,1-2.908.763h-.021a8.251,8.251,0,0,1-4.014-1.178c-.009,0-.013,0-.013.014A5.023,5.023,0,0,1,19.1,26.7a4.271,4.271,0,0,1-1.387-.233l-.489,11.357a.5.5,0,0,1-.328.466,8.253,8.253,0,0,1-2.812.7C14.043,39,14,39,13.954,39Zm1.063-14.549a3.765,3.765,0,0,1-.707.48,33.232,33.232,0,0,1,1.01,5.232c.387,3.759-.209,6.243-1.77,7.382a.354.354,0,0,0,.03.284s.092.117.5.117a6.923,6.923,0,0,0,2.133-.506L16.7,26.006c-.12-.074-.234-.155-.344-.233l-.073-.052A7,7,0,0,1,15.016,24.451Zm23.8,2.085a7.707,7.707,0,0,1-1.563,1.23,11.722,11.722,0,0,1-.491,5.983c-.29,1.074-.651,2.2-1.1,3.432a11.624,11.624,0,0,0,1.622.349,23.108,23.108,0,0,0,1.537-10.994Zm-4.9-1.075c.571,1.532,1.477,1.761,1.967,1.761a1.451,1.451,0,0,0,.194-.013l.006,0c.75-.364,2.531-1.377,2.866-2.91a3.545,3.545,0,0,0-1.12-3.03.5.5,0,0,1-.288-.13.534.534,0,0,1-.021-.738c.089-.1,2.15-2.422.535-4.416L38.029,16c-.018.019-.035.037-.055.056a.478.478,0,0,1-.362.168.5.5,0,0,1-.359-.156.529.529,0,0,1-.008-.738c.88-.926.789-3.791-.572-5.815a5.038,5.038,0,0,0-4.352-2.286,9.319,9.319,0,0,0-3.553.81,3.318,3.318,0,0,1,.32.6.519.519,0,0,1-.286.673.484.484,0,0,1-.187.039.521.521,0,0,1-.475-.324,2.247,2.247,0,0,0-1.176-1.166,2.555,2.555,0,0,0-1.978.208c.019.035.031.059.033.064a.526.526,0,0,1-.265.687.557.557,0,0,1-.2.039.512.512,0,0,1-.467-.31,2.1,2.1,0,0,0-.764-.829A2.75,2.75,0,0,0,22,7.382a2.717,2.717,0,0,0-1.109.235,4.745,4.745,0,0,1,.464.855.534.534,0,0,1-.292.686.438.438,0,0,1-.152.027h-.04A.5.5,0,0,1,20.4,8.86a4.237,4.237,0,0,0-.992-1.42,4.841,4.841,0,0,0-3.49-1.317,7.725,7.725,0,0,0-1.394.134,9.415,9.415,0,0,1-.049,2.422.516.516,0,0,1-.5.427h-.089a.528.528,0,0,1-.414-.609,7.817,7.817,0,0,0-.1-2.887,3.82,3.82,0,0,0-1.482-1.994,4.48,4.48,0,0,1-.7.207,3.739,3.739,0,0,1-.626.052h-.043a3.581,3.581,0,0,1-2-.609A.524.524,0,0,1,8.3,2.929a.517.517,0,0,1,.09-.388.5.5,0,0,1,.713-.117,2.746,2.746,0,0,0,1.435.405,2.752,2.752,0,0,0,.482-.043,3.949,3.949,0,0,0,2.219-1.5A4.956,4.956,0,0,0,9.049,1.8a.49.49,0,0,1-.3.1H8.735a.513.513,0,0,1-.4-.194.549.549,0,0,1-.087-.48A5.9,5.9,0,0,0,6,1.1,6.592,6.592,0,0,0,1.026,5.182a.878.878,0,0,0,.229.7,4.153,4.153,0,0,0,2.61.651,8.111,8.111,0,0,0,.865-.043.667.667,0,0,1,.158,0c.68.143,2.907.7,3.01,1.93a5.9,5.9,0,0,1-.257,1.49c-.334,1.414-.894,3.78-.205,4.869a1.232,1.232,0,0,0,.874.57.482.482,0,0,1,.334.233.517.517,0,0,1,.064.4c-.422,1.792-.334,3.109.257,3.808a1.956,1.956,0,0,0,1.416.612q.056,0,.113,0l.049,0a.515.515,0,0,1,.5.39c.189.754.972,2.978,2.055,3.29a1.52,1.52,0,0,0,1.449-.608.531.531,0,0,1,.248-.337.5.5,0,0,1,.388-.051.505.505,0,0,1,.306.246l0,0a4.536,4.536,0,0,0,3.6,2.327,3.875,3.875,0,0,0,1.33-.247.505.505,0,0,1,.505-.445.508.508,0,0,1,.3.1,7.468,7.468,0,0,0,3.947,1.294,4.891,4.891,0,0,0,2.11-.465.525.525,0,0,1,.1-.311.514.514,0,0,1,.415-.213.507.507,0,0,1,.3.1,2.5,2.5,0,0,0,1.028.4,2.306,2.306,0,0,0,1.888-.6,5.167,5.167,0,0,1-1.323-1.9.521.521,0,0,1,.008-.4.509.509,0,0,1,.287-.275.5.5,0,0,1,.392.009.508.508,0,0,1,.267.289,3.2,3.2,0,0,0,2.781,2.137h.015a.515.515,0,0,1,.48.337ZM6.362,3.007a.516.516,0,0,1-.368-.154.524.524,0,0,1-.111-.574.518.518,0,0,1,.478-.321h.007a.509.509,0,0,1,.364.152.517.517,0,0,1,.15.366.522.522,0,0,1-.318.49A.516.516,0,0,1,6.362,3.007Z" transform="translate(1 1)" fill="#ec5149"/>
  </g>
</svg>
